<svg viewBox="0 0 1440 1024" fill="none" xmlns="http://www.w3.org/2000/svg">
<g clip-path="url(#clip0_811:16338)">
<rect fill="white"/>
<g clip-path="url(#clip1_811:16338)">
<path d="M1452.98 460.114C1451.17 461.772 1449.66 463.852 1447.52 465.02C1437.24 470.771 1426.5 475.198 1414.66 476.789C1409.02 477.556 1403.44 478.958 1397.79 479.536C1392.63 480.059 1387.4 480.471 1382.29 478.847C1382.02 478.801 1381.75 478.698 1381.51 478.544C1381.27 478.389 1381.07 478.187 1380.91 477.95C1380.76 477.713 1380.65 477.445 1380.6 477.165C1380.56 476.885 1380.57 476.598 1380.63 476.322C1380.91 472.717 1382.98 469.948 1384.86 467.144C1390.94 458.101 1398.14 450.214 1408 445.197C1404.35 443.206 1400.75 441.404 1397.3 439.346C1388.18 433.885 1382.18 425.698 1377.59 416.287C1376.5 413.903 1375.2 411.621 1373.71 409.468C1373.27 408.997 1373.02 408.385 1373 407.744C1372.98 407.103 1373.19 406.476 1373.58 405.975C1373.95 405.613 1374.38 405.328 1374.86 405.137C1375.33 404.945 1375.84 404.852 1376.35 404.863C1382.73 405.007 1389.09 405.341 1395.17 407.555C1400.11 409.346 1405.13 410.892 1410.13 412.638C1407.84 409.001 1405.3 405.475 1403.28 401.681C1390.11 373.26 1392.21 361.358 1392.74 360.78C1393.07 360.472 1393.46 360.246 1393.88 360.119C1394.31 359.991 1394.76 359.966 1395.2 360.045C1397.8 360.909 1400.35 361.961 1402.8 363.193C1415.59 369.779 1425.91 379.345 1435.25 390.168C1440.02 395.625 1443.86 401.834 1446.63 408.545C1447.1 409.98 1447.34 411.482 1447.34 412.994C1447.34 413.484 1446.74 414.007 1446.39 414.507C1445.9 414.162 1445.22 413.94 1444.94 413.473C1443.46 410.959 1442.08 408.4 1440.68 405.853C1434.39 394.407 1425.19 385.552 1415.42 377.209C1409.81 372.404 1403.39 368.889 1396.78 365.696C1396.47 365.583 1396.15 365.494 1395.83 365.429C1397.47 374.328 1399.28 383.027 1402.88 391.236C1405.25 397.096 1408.37 402.625 1412.14 407.688C1414.64 410.881 1417.67 413.695 1420.42 416.665C1421.01 417.299 1421.7 417.855 1422.23 418.545C1423.05 419.602 1423.95 420.959 1422.69 422.016C1421.66 422.894 1420.4 423.662 1418.66 422.538C1411.06 417.666 1402.61 414.674 1393.96 412.438C1389.18 411.192 1384.18 410.87 1379.26 410.147C1378.83 410.128 1378.4 410.147 1377.97 410.202C1380.8 414.796 1383.21 419.457 1386.31 423.551C1392.62 431.982 1401.21 437.444 1410.92 441.204C1411.61 441.435 1412.27 441.729 1412.91 442.083C1415.62 443.74 1415.63 446.343 1412.91 447.856C1406.87 451.137 1401.16 454.942 1396.59 460.092C1392.53 464.664 1389.01 469.714 1384.92 474.987C1390.93 475.159 1396.95 474.584 1402.82 473.274C1410.94 471.405 1419.29 470.359 1427.17 467.834C1434.06 465.609 1440.45 461.927 1447.09 458.702C1449.12 457.7 1450.89 456.477 1453 458.312L1452.98 460.114Z" fill="#FFCB68" fill-opacity="0.2"/>
<path d="M-17.9734 223.303C-15.8088 225.278 -13.9895 227.757 -11.4264 229.149C0.910833 236.002 13.8059 241.278 28.0024 243.173C34.7752 244.088 41.4684 245.758 48.2546 246.447C54.4431 247.07 60.7246 247.561 66.8467 245.626C67.1819 245.571 67.5022 245.448 67.7873 245.264C68.0725 245.08 68.3162 244.84 68.5034 244.557C68.6905 244.274 68.817 243.956 68.8748 243.622C68.9325 243.288 68.9202 242.946 68.8388 242.617C68.5068 238.322 66.0235 235.021 63.7658 231.681C56.475 220.904 47.8296 211.505 35.997 205.527C40.3795 203.154 44.6954 201.007 48.8388 198.554C59.7816 192.046 66.9796 182.29 72.4908 171.075C73.8007 168.234 75.3606 165.515 77.1521 162.949C77.6712 162.388 77.9712 161.659 77.998 160.895C78.0248 160.132 77.7766 159.384 77.2982 158.787C76.8621 158.355 76.3434 158.015 75.7731 157.788C75.2027 157.56 74.5923 157.449 73.9782 157.462C66.3288 157.634 58.6927 158.032 51.402 160.669C45.4657 162.804 39.4498 164.646 33.4472 166.727C36.1962 162.393 39.2374 158.191 41.6677 153.67C57.471 119.802 54.9477 105.618 54.3102 104.929C53.9217 104.563 53.4526 104.293 52.9406 104.141C52.4285 103.989 51.8878 103.959 51.3621 104.054C48.2342 105.083 45.1851 106.337 42.2386 107.805C26.8868 115.653 14.5098 127.053 3.30137 139.951C-2.42169 146.453 -7.03398 153.852 -10.3506 161.849C-10.9195 163.559 -11.211 165.349 -11.2139 167.152C-11.2139 167.735 -10.4835 168.358 -10.0718 168.954C-9.4742 168.543 -8.66403 168.278 -8.33203 167.721C-6.55249 164.726 -4.89251 161.677 -3.21922 158.641C4.33718 145.001 15.3729 134.45 27.0993 124.508C33.8323 118.781 41.5349 114.592 49.4631 110.788C49.8352 110.653 50.2169 110.547 50.6052 110.47C48.6397 121.074 46.4618 131.44 42.1457 141.223C39.2958 148.206 35.5602 154.795 31.0303 160.829C28.029 164.633 24.3902 167.987 21.0968 171.526C20.3929 172.281 19.5563 172.944 18.9188 173.766C17.9361 175.025 16.8603 176.643 18.3743 177.902C19.6093 178.949 21.1233 179.864 23.2083 178.525C32.3317 172.719 42.4644 169.153 52.8494 166.489C58.5865 165.004 64.5891 164.62 70.4855 163.758C71.0044 163.736 71.5242 163.758 72.0393 163.824C68.6396 169.299 65.7445 174.853 62.0261 179.731C54.4564 189.779 44.151 196.288 32.4911 200.768C31.668 201.043 30.8721 201.394 30.1139 201.815C26.8602 203.79 26.847 206.892 30.1139 208.695C37.3515 212.605 44.2041 217.139 49.6888 223.276C54.5626 228.724 58.7857 234.743 63.6994 241.026C56.48 241.232 49.2629 240.546 42.2121 238.984C32.4777 236.757 22.4512 235.511 12.9958 232.502C4.72225 229.851 -2.94038 225.464 -10.9085 221.619C-13.3387 220.426 -15.4635 218.968 -18 221.155L-17.9734 223.303Z" fill="#FFCB68" fill-opacity="0.2"/>
<path d="M-17.9734 836.303C-15.8088 838.278 -13.9895 840.757 -11.4264 842.149C0.910833 849.002 13.8059 854.278 28.0024 856.173C34.7752 857.088 41.4684 858.758 48.2546 859.447C54.4431 860.07 60.7246 860.561 66.8467 858.626C67.1819 858.571 67.5022 858.448 67.7873 858.264C68.0725 858.08 68.3162 857.84 68.5034 857.557C68.6905 857.274 68.817 856.956 68.8748 856.622C68.9325 856.288 68.9202 855.946 68.8388 855.617C68.5068 851.322 66.0235 848.021 63.7658 844.681C56.475 833.904 47.8296 824.505 35.997 818.527C40.3795 816.154 44.6954 814.007 48.8388 811.554C59.7816 805.046 66.9796 795.29 72.4908 784.075C73.8007 781.234 75.3606 778.515 77.1521 775.949C77.6712 775.388 77.9712 774.659 77.998 773.895C78.0248 773.132 77.7766 772.384 77.2982 771.787C76.8621 771.355 76.3434 771.015 75.7731 770.788C75.2027 770.56 74.5923 770.449 73.9782 770.462C66.3288 770.634 58.6927 771.032 51.402 773.669C45.4657 775.804 39.4498 777.646 33.4472 779.727C36.1962 775.393 39.2374 771.191 41.6677 766.67C57.471 732.802 54.9477 718.618 54.3102 717.929C53.9217 717.563 53.4526 717.293 52.9406 717.141C52.4285 716.989 51.8878 716.959 51.3621 717.054C48.2342 718.083 45.1851 719.337 42.2386 720.805C26.8868 728.653 14.5098 740.053 3.30137 752.951C-2.42169 759.453 -7.03398 766.852 -10.3506 774.849C-10.9195 776.559 -11.211 778.349 -11.2139 780.152C-11.2139 780.735 -10.4835 781.358 -10.0718 781.954C-9.4742 781.543 -8.66403 781.278 -8.33203 780.721C-6.55249 777.726 -4.89251 774.677 -3.21922 771.641C4.33718 758.001 15.3729 747.45 27.0993 737.508C33.8323 731.781 41.5349 727.592 49.4631 723.788C49.8352 723.653 50.2169 723.547 50.6052 723.47C48.6397 734.074 46.4618 744.44 42.1457 754.223C39.2958 761.206 35.5602 767.795 31.0303 773.829C28.029 777.633 24.3902 780.987 21.0968 784.526C20.3929 785.281 19.5563 785.944 18.9188 786.766C17.9361 788.025 16.8603 789.643 18.3743 790.902C19.6093 791.949 21.1233 792.864 23.2083 791.525C32.3317 785.719 42.4644 782.153 52.8494 779.489C58.5865 778.004 64.5891 777.62 70.4855 776.758C71.0044 776.736 71.5242 776.758 72.0393 776.824C68.6396 782.299 65.7445 787.853 62.0261 792.731C54.4564 802.779 44.151 809.288 32.4911 813.768C31.668 814.043 30.8721 814.394 30.1139 814.815C26.8602 816.79 26.847 819.892 30.1139 821.695C37.3515 825.605 44.2041 830.139 49.6888 836.276C54.5626 841.724 58.7857 847.743 63.6994 854.026C56.48 854.232 49.2629 853.546 42.2121 851.984C32.4777 849.757 22.4512 848.511 12.9958 845.502C4.72225 842.851 -2.94038 838.464 -10.9085 834.619C-13.3387 833.426 -15.4635 831.968 -18 834.155L-17.9734 836.303Z" fill="#FFCB68" fill-opacity="0.2"/>
<path d="M288.795 -33C289.955 -31.878 291.017 -30.6574 291.969 -29.3519C293.672 -26.5015 295.068 -23.4704 296.739 -20.5988C297.23 -19.6511 298.029 -18.9007 299.003 -18.4716C305.349 -16.6636 311.812 -15.0257 318.233 -13.3452C319.079 -13.1325 319.967 -13.0368 321.406 -12.7709C319.09 -17.2166 317.037 -21.205 314.922 -25.1615C313.727 -27.4056 313.579 -28.6075 314.541 -30.3942C316.561 -30.5431 317.439 -29.0967 318.317 -27.6502C323.449 -18.9673 327.116 -9.49058 329.17 0.396039C330.429 6.00104 331.867 11.5848 332.682 17.2642C333.655 24.0604 334.099 30.931 334.67 37.7804C334.914 40.8329 334.956 43.9172 334.998 46.9803C335.072 51.7131 332.682 53.2234 328.514 50.9793C319.01 45.9062 310.265 39.5116 302.536 31.984C290.771 20.5847 281.599 6.76117 275.647 -8.53795C274.198 -12.2711 273.31 -16.2382 272.178 -20.0989C272.035 -20.4339 271.977 -20.7993 272.009 -21.1625C272.241 -22.2261 272.559 -23.162 272.834 -24.1511C273.527 -23.5033 274.109 -22.7451 274.558 -21.9069C278.62 -9.00586 283.972 3.257 292.053 14.1905L293.375 15.9773C295.491 9.01096 297.606 2.38494 299.627 -4.23045C299.776 -4.7951 299.72 -5.39501 299.468 -5.92155C295.85 -12.7177 292.222 -19.5033 288.499 -26.2463C287.304 -28.3734 286.553 -30.5006 287.547 -32.9681L288.795 -33ZM302.462 -1.34823C302.155 -0.614366 301.975 -0.284676 301.848 0.0982086C299.796 6.04355 297.733 11.9676 295.755 17.9343C295.719 18.241 295.749 18.5522 295.844 18.8461C295.939 19.14 296.096 19.4095 296.305 19.636C301.012 24.5603 305.741 29.4633 310.532 34.2919C311.931 35.5616 313.396 36.7545 314.922 37.8655C315.049 35.43 315.07 33.3453 315.292 31.282C315.311 25.1514 313.79 19.1153 310.871 13.7331C308.142 8.76629 305.36 3.84198 302.462 -1.34823ZM300.515 -13.8132C300.511 -13.6678 300.536 -13.523 300.589 -13.3878C303.953 -7.49565 307.331 -1.6141 310.723 4.25679C311.033 4.67483 311.478 4.97175 311.981 5.09699C316.562 6.30945 321.163 7.4794 325.732 8.63869C326.145 8.74504 326.568 8.77693 327.277 8.88328C325.817 3.44846 324.484 -1.7524 323.046 -6.81498C322.884 -7.2268 322.638 -7.60018 322.325 -7.91146C322.012 -8.22274 321.638 -8.46505 321.226 -8.62299C319.005 -9.31431 316.678 -9.68661 314.414 -10.2716C309.728 -11.4309 305.148 -12.6326 300.515 -13.8132ZM330.788 43.2897C331.497 44.4383 331.846 44.1725 331.846 42.9813C330.926 34.4727 329.942 25.9004 329.117 17.3493C328.853 14.5521 327.932 13.2226 324.093 12.2123L313.515 9.21299C319.502 20.8484 324.072 32.6221 330.788 43.2897ZM318.963 30.5269C318.751 32.2393 318.54 33.7176 318.381 35.281C317.852 40.3649 317.863 40.3755 322.496 42.9706C323.987 43.8109 325.5 44.5979 327.308 45.5657L318.963 30.5269Z" fill="#83C3C0" fill-opacity="0.2"/>
<path d="M1187.2 -33C1186.04 -31.878 1184.98 -30.6574 1184.03 -29.3519C1182.33 -26.5015 1180.93 -23.4704 1179.26 -20.5988C1178.77 -19.6511 1177.97 -18.9007 1177 -18.4716C1170.65 -16.6636 1164.19 -15.0257 1157.77 -13.3452C1156.92 -13.1325 1156.03 -13.0368 1154.59 -12.7709C1156.91 -17.2166 1158.96 -21.205 1161.08 -25.1615C1162.27 -27.4056 1162.42 -28.6075 1161.46 -30.3942C1159.44 -30.5431 1158.56 -29.0967 1157.68 -27.6502C1152.55 -18.9673 1148.88 -9.49058 1146.83 0.396039C1145.57 6.00104 1144.13 11.5848 1143.32 17.2642C1142.35 24.0604 1141.9 30.931 1141.33 37.7804C1141.09 40.8329 1141.04 43.9172 1141 46.9803C1140.93 51.7131 1143.32 53.2234 1147.49 50.9793C1156.99 45.9062 1165.74 39.5116 1173.46 31.984C1185.23 20.5847 1194.4 6.76117 1200.35 -8.53795C1201.8 -12.2711 1202.69 -16.2382 1203.82 -20.0989C1203.97 -20.4339 1204.02 -20.7993 1203.99 -21.1625C1203.76 -22.2261 1203.44 -23.162 1203.17 -24.1511C1202.47 -23.5033 1201.89 -22.7451 1201.44 -21.9069C1197.38 -9.00586 1192.03 3.257 1183.95 14.1905L1182.62 15.9773C1180.51 9.01096 1178.39 2.38494 1176.37 -4.23045C1176.22 -4.7951 1176.28 -5.39501 1176.53 -5.92155C1180.15 -12.7177 1183.78 -19.5033 1187.5 -26.2463C1188.7 -28.3734 1189.45 -30.5006 1188.45 -32.9681L1187.2 -33ZM1173.54 -1.34823C1173.85 -0.614366 1174.03 -0.284676 1174.15 0.0982086C1176.2 6.04355 1178.27 11.9676 1180.24 17.9343C1180.28 18.241 1180.25 18.5522 1180.16 18.8461C1180.06 19.14 1179.9 19.4095 1179.69 19.636C1174.99 24.5603 1170.26 29.4633 1165.47 34.2919C1164.07 35.5616 1162.6 36.7545 1161.08 37.8655C1160.95 35.43 1160.93 33.3453 1160.71 31.282C1160.69 25.1514 1162.21 19.1153 1165.13 13.7331C1167.86 8.76629 1170.64 3.84198 1173.54 -1.34823ZM1175.48 -13.8132C1175.49 -13.6678 1175.46 -13.523 1175.41 -13.3878C1172.05 -7.49565 1168.67 -1.6141 1165.28 4.25679C1164.97 4.67483 1164.52 4.97175 1164.02 5.09699C1159.44 6.30945 1154.84 7.4794 1150.27 8.63869C1149.86 8.74504 1149.43 8.77693 1148.72 8.88328C1150.18 3.44846 1151.52 -1.7524 1152.95 -6.81498C1153.12 -7.2268 1153.36 -7.60018 1153.67 -7.91146C1153.99 -8.22274 1154.36 -8.46505 1154.77 -8.62299C1157 -9.31431 1159.32 -9.68661 1161.59 -10.2716C1166.27 -11.4309 1170.85 -12.6326 1175.48 -13.8132ZM1145.21 43.2897C1144.5 44.4383 1144.15 44.1725 1144.15 42.9813C1145.07 34.4727 1146.06 25.9004 1146.88 17.3493C1147.15 14.5521 1148.07 13.2226 1151.91 12.2123L1162.48 9.21299C1156.5 20.8484 1151.93 32.6221 1145.21 43.2897ZM1157.04 30.5269C1157.25 32.2393 1157.46 33.7176 1157.62 35.281C1158.15 40.3649 1158.14 40.3755 1153.5 42.9706C1152.01 43.8109 1150.5 44.5979 1148.69 45.5657L1157.04 30.5269Z" fill="#83C3C0" fill-opacity="0.2"/>
<path d="M35.8411 699.46C27.2981 705.074 18.008 709.435 8.24923 712.412C1.82639 714.295 -4.76816 715.601 -11.3398 716.952C-12.3817 717.172 -14.2708 716.606 -14.683 715.797C-15.5531 714.168 -14.4654 712.77 -12.2443 712.146C-5.37499 710.228 1.49435 708.414 8.36369 706.45C10.4359 705.861 12.4052 704.925 14.7064 704.047C13.6706 703.056 12.6956 702.003 11.7869 700.893C5.71898 692.481 2.91406 683.181 4.40241 672.748C4.50736 672.081 4.66429 671.425 4.87179 670.783C5.79915 668.057 7.41341 667.317 9.56581 669.212C11.8659 671.252 13.8361 673.641 15.4048 676.295C19.2549 682.981 21.4174 690.519 21.7017 698.247C21.7017 699.056 21.633 699.876 21.5758 700.997C34.3184 694.503 45.9161 687.213 50.5872 672.725C39.4818 670.564 31.1241 664.637 25.8462 654.805C24.8062 652.553 24.2038 650.122 24.0716 647.641C23.8426 645.331 24.976 644.348 27.2429 644.811C33.2971 645.967 39.0333 648.426 44.0614 652.02C46.2412 653.826 48.1944 655.894 49.8774 658.178C51.1253 659.657 52.0985 661.379 53.4838 662.892C56.3117 650.587 51.8123 639.866 46.6145 629.109C38.211 634.042 29.819 633.465 21.4269 630.264C16.2062 628.277 12.554 624.187 9.02774 620.039C8.12328 618.965 9.02772 616.573 10.3672 616.053C15.0155 614.216 19.7439 612.899 24.8501 613.742C29.2236 614.447 33.6314 615.025 37.879 615.626C35.7609 612.16 33.3796 608.208 31.0096 604.291C26.2111 596.318 23.3183 587.327 22.5604 578.03C22.2741 574.413 22.9725 570.705 23.19 567.493C19.2287 565.043 14.8552 563.125 11.4664 560.075C4.78021 554.056 2.06677 546.107 2.61632 537.06C2.74225 535.165 3.76125 534.645 5.52438 535.177C10.9283 536.76 15.1529 540.226 18.6562 544.35C21.7818 548.025 24.1517 552.346 26.6705 556.101C30.918 546.338 31.3188 530.555 27.5635 519.129C24.1288 519.683 20.8087 520.411 17.4656 520.723C9.30251 521.486 3.34908 517.072 -1.99755 511.665C-3.89807 509.747 -2.61577 505.888 0.532678 505.125C4.37806 504.228 8.32297 503.839 12.2678 503.97C15.3476 504.062 18.3815 505.264 21.7131 506.05C21.5711 505.704 21.3987 505.371 21.1979 505.056C15.72 498.602 9.38638 492.941 2.37593 488.234C-1.48235 485.68 -5.85583 485.311 -10.2179 484.629C-11.6942 484.433 -13.1453 484.077 -14.5456 483.566C-15.1867 483.323 -16.0224 482.411 -15.9995 481.879C-15.963 481.412 -15.8349 480.957 -15.6226 480.541C-15.4103 480.124 -15.1182 479.754 -14.7631 479.453C-13.9142 478.985 -12.9597 478.746 -11.9924 478.76C-4.58498 478.159 1.8493 480.666 7.68824 485.056C9.1308 486.142 10.5733 487.205 12.3708 488.523C10.081 481.925 10.2642 475.421 10.3902 468.962C10.4534 461.809 12.9743 454.9 17.5228 449.413C19.2058 447.368 20.5453 447.495 21.3353 450.106C22.512 453.993 23.4562 457.948 24.1632 461.949C25.385 468.677 24.9924 475.602 23.0183 482.145C21.8734 485.992 19.8355 489.574 18.0151 493.699C28.4794 501.879 32.7957 513.756 34.5245 526.974C37.5355 523.738 40.3405 520.561 43.3287 517.557C46.8967 514.156 51.3536 511.855 56.1743 510.925C59.0594 510.267 60.7539 511.237 60.4562 514.392C59.7914 520.362 57.321 525.982 53.3808 530.486C48.9204 536.036 43.1433 540.36 36.5853 543.056C36.1273 543.305 35.7233 543.644 35.397 544.053C35.0706 544.462 34.8284 544.932 34.6847 545.437C33.2879 550.335 32.2461 555.338 30.7692 560.214C28.9946 566.072 27.0941 571.918 27.781 578.122C28.2047 582.039 29.2007 585.886 29.9334 589.768C30.2082 590.612 30.5517 590.577 30.7234 589.768C30.8723 589.11 30.9752 588.44 31.1699 587.781C33.7413 578.222 39.566 569.881 47.622 564.223C49.408 562.964 51.4688 561.265 53.7701 562.779C56.2545 564.419 55.7164 567.204 55.3958 569.642C54.553 574.78 52.7042 579.698 49.9576 584.107C47.4462 588.479 44.7179 592.721 41.783 596.816C40.329 598.85 38.1766 600.375 36.1387 602.327L54.8463 633.141C56.7124 625.851 61.3606 620.432 67.1652 615.811C69.1489 614.325 71.2966 613.077 73.5652 612.09C76.9999 610.507 79.5415 612.379 78.9233 616.192C78.501 619.018 77.6798 621.769 76.4847 624.36C73.4635 630.82 69.1161 636.559 63.7306 641.194C61.929 642.532 60.0394 643.744 58.0748 644.822C61.7728 661.159 56.1514 675.382 47.9655 689.131C49.5798 688.877 51.3086 688.542 53.0602 688.368C61.0745 687.594 68.3445 689.824 75.294 693.533C76.3912 694.111 77.3619 694.907 78.1486 695.871C78.9353 696.836 79.5219 697.95 79.8736 699.148C80.1089 700.183 80.0141 701.266 79.6029 702.244C79.1917 703.221 78.485 704.042 77.5838 704.59C72.821 707.86 67.4286 708.345 61.8873 708.379C55.8944 708.461 49.9584 707.198 44.5079 704.682C41.5261 703.103 38.6328 701.36 35.8411 699.46V699.46ZM40.558 695.89C46.7862 703.839 70.5427 704.509 75.1566 699.749C68.2071 693.29 48.1715 691.06 40.558 695.89ZM34.4901 596.816C41.5312 593.835 52.7282 575.003 52.2817 566.903C43.3744 569.896 32.3262 586.949 34.4901 596.816ZM57.3077 515.801C56.9954 515.773 56.6812 515.773 56.3689 515.801C46.5916 518.378 36.425 527.909 35.074 537.811C35.2801 537.892 52.5793 532.115 57.3077 515.789V515.801ZM43.924 625.342C35.5663 619.635 19.0112 616.85 13.9622 620.247C22.3543 629.294 37.1004 629.525 43.924 625.331V625.342ZM50.1636 667.595C47.0266 659.322 35.0282 650.033 27.3918 649.964C31.5935 659.322 41.8632 667.167 50.1636 667.595ZM23.3389 561.97C21.3353 551.907 11.5122 542.086 5.02063 540.11C7.36765 550.601 12.5769 558.492 23.2931 561.97H23.3389ZM16.1604 486.709C22.4458 476.472 21.072 465.704 18.5303 454.855C12.9547 465.103 13.9164 475.871 16.1604 486.709ZM57.823 639.461C64.6923 636.838 75.4428 622.72 75.2711 616.619C65.6197 620.432 57.9489 630.831 57.823 639.461V639.461ZM18.1067 701.759C18.1754 691.361 12.8974 677.577 7.13865 672.967C5.77623 684.348 11.7869 697.334 18.1067 701.759ZM2.07825 509.758C7.96299 516.309 19.8699 517.453 25.6401 512.855C17.9121 510.325 10.3444 507.621 2.07825 509.758Z" fill="#83C3C0" fill-opacity="0.2"/>
<path d="M1403.62 342.395C1412.25 348.03 1421.64 352.407 1431.5 355.395C1437.99 357.285 1444.65 358.595 1451.29 359.952C1452.34 360.173 1454.25 359.604 1454.67 358.793C1455.55 357.157 1454.45 355.754 1452.21 355.128C1445.26 353.203 1438.32 351.382 1431.38 349.411C1429.29 348.819 1427.3 347.88 1424.97 346.999C1426.02 346.005 1427.01 344.947 1427.92 343.833C1434.05 335.39 1436.89 326.055 1435.39 315.583C1435.28 314.914 1435.12 314.255 1434.91 313.612C1433.97 310.875 1432.34 310.133 1430.17 312.035C1427.84 314.081 1425.85 316.48 1424.27 319.143C1420.38 325.854 1418.19 333.421 1417.91 341.177C1417.91 341.989 1417.97 342.812 1418.03 343.937C1405.16 337.42 1393.44 330.102 1388.72 315.56C1399.94 313.391 1408.38 307.442 1413.72 297.573C1414.77 295.314 1415.38 292.873 1415.51 290.383C1415.74 288.064 1414.6 287.078 1412.31 287.542C1406.19 288.703 1400.39 291.171 1395.31 294.779C1393.11 296.591 1391.14 298.667 1389.44 300.96C1388.18 302.444 1387.19 304.172 1385.79 305.691C1382.94 293.341 1387.48 282.579 1392.73 271.782C1401.22 276.734 1409.7 276.154 1418.18 272.942C1423.46 270.947 1427.15 266.842 1430.71 262.679C1431.63 261.6 1430.71 259.2 1429.36 258.678C1424.66 256.834 1419.88 255.512 1414.72 256.359C1410.31 257.066 1405.85 257.646 1401.56 258.249C1403.7 254.77 1406.11 250.804 1408.5 246.872C1413.35 238.87 1416.27 229.845 1417.04 220.513C1417.33 216.883 1416.62 213.161 1416.4 209.937C1420.4 207.478 1424.82 205.553 1428.25 202.492C1435 196.45 1437.75 188.471 1437.19 179.391C1437.06 177.489 1436.03 176.967 1434.25 177.501C1428.79 179.09 1424.52 182.569 1420.98 186.709C1417.82 190.396 1415.43 194.734 1412.89 198.503C1408.59 188.703 1408.19 172.862 1411.98 161.393C1415.45 161.95 1418.81 162.68 1422.19 162.993C1430.43 163.759 1436.45 159.329 1441.85 153.901C1443.77 151.976 1442.48 148.103 1439.3 147.338C1435.41 146.437 1431.42 146.047 1427.44 146.178C1424.33 146.271 1421.26 147.477 1417.89 148.265C1418.04 147.918 1418.21 147.584 1418.41 147.268C1423.95 140.79 1430.35 135.108 1437.43 130.383C1441.33 127.82 1445.75 127.449 1450.16 126.765C1451.65 126.569 1453.12 126.211 1454.53 125.698C1455.18 125.455 1456.02 124.539 1456 124.005C1455.96 123.536 1455.83 123.08 1455.62 122.662C1455.4 122.244 1455.11 121.873 1454.75 121.57C1453.89 121.1 1452.93 120.86 1451.95 120.874C1444.47 120.271 1437.96 122.787 1432.07 127.194C1430.61 128.284 1429.15 129.351 1427.33 130.673C1429.65 124.051 1429.46 117.523 1429.33 111.04C1429.27 103.86 1426.72 96.9252 1422.13 91.4183C1420.43 89.3657 1419.07 89.4932 1418.28 92.1141C1417.09 96.0154 1416.13 99.9847 1415.42 104.001C1414.18 110.753 1414.58 117.704 1416.58 124.272C1417.73 128.134 1419.79 131.729 1421.63 135.869C1411.06 144.079 1406.7 156 1404.95 169.267C1401.91 166.02 1399.07 162.831 1396.05 159.816C1392.45 156.402 1387.94 154.093 1383.07 153.159C1380.16 152.498 1378.45 153.472 1378.75 156.638C1379.42 162.631 1381.92 168.272 1385.9 172.793C1390.4 178.364 1396.24 182.704 1402.87 185.41C1403.33 185.66 1403.74 186 1404.07 186.41C1404.4 186.82 1404.64 187.292 1404.79 187.799C1406.2 192.716 1407.25 197.737 1408.74 202.631C1410.54 208.51 1412.46 214.378 1411.76 220.606C1411.33 224.537 1410.33 228.399 1409.59 232.295C1409.31 233.142 1408.96 233.107 1408.79 232.295C1408.64 231.634 1408.54 230.962 1408.34 230.301C1405.74 220.706 1399.86 212.335 1391.72 206.655C1389.91 205.391 1387.83 203.686 1385.5 205.205C1382.99 206.852 1383.54 209.647 1383.86 212.094C1384.71 217.251 1386.58 222.187 1389.36 226.613C1391.89 231.002 1394.65 235.259 1397.62 239.369C1399.08 241.41 1401.26 242.941 1403.32 244.901L1384.42 275.83C1382.53 268.512 1377.83 263.073 1371.97 258.434C1369.96 256.943 1367.79 255.69 1365.5 254.7C1362.03 253.112 1359.46 254.99 1360.09 258.817C1360.51 261.654 1361.34 264.415 1362.55 267.016C1365.6 273.5 1370 279.26 1375.44 283.912C1377.26 285.255 1379.17 286.471 1381.15 287.554C1377.42 303.952 1383.1 318.227 1391.37 332.027C1389.74 331.772 1387.99 331.436 1386.22 331.262C1378.12 330.485 1370.78 332.723 1363.76 336.446C1362.65 337.026 1361.67 337.825 1360.87 338.793C1360.08 339.761 1359.48 340.879 1359.13 342.082C1358.89 343.12 1358.99 344.208 1359.4 345.189C1359.82 346.17 1360.53 346.994 1361.44 347.544C1366.25 350.826 1371.7 351.313 1377.3 351.347C1383.36 351.429 1389.35 350.161 1394.86 347.637C1397.87 346.052 1400.8 344.302 1403.62 342.395V342.395ZM1398.85 338.811C1392.56 346.79 1368.56 347.463 1363.89 342.685C1370.92 336.202 1391.16 333.964 1398.85 338.811ZM1404.98 239.369C1397.87 236.377 1386.56 217.475 1387.01 209.345C1396.01 212.349 1407.17 229.466 1404.98 239.369ZM1381.93 158.053C1382.24 158.025 1382.56 158.025 1382.88 158.053C1392.76 160.639 1403.03 170.206 1404.39 180.145C1404.19 180.226 1386.71 174.428 1381.93 158.042V158.053ZM1395.45 268.002C1403.9 262.273 1420.62 259.478 1425.73 262.888C1417.25 271.968 1402.35 272.2 1395.45 267.99V268.002ZM1389.15 310.411C1392.32 302.108 1404.44 292.784 1412.16 292.714C1407.91 302.108 1397.53 309.982 1389.15 310.411ZM1416.25 204.394C1418.28 194.293 1428.2 184.436 1434.76 182.453C1432.39 192.982 1427.13 200.903 1416.3 204.394H1416.25ZM1423.5 128.853C1417.15 118.578 1418.54 107.77 1421.11 96.8803C1426.74 107.167 1425.77 117.975 1423.5 128.853ZM1381.41 282.173C1374.47 279.54 1363.6 265.369 1363.78 259.246C1373.53 263.073 1381.28 273.51 1381.41 282.173V282.173ZM1421.54 344.703C1421.47 334.265 1426.8 320.431 1432.62 315.803C1434 327.226 1427.92 340.261 1421.54 344.703ZM1437.73 151.988C1431.79 158.563 1419.76 159.711 1413.93 155.096C1421.73 152.556 1429.38 149.843 1437.73 151.988Z" fill="#83C3C0" fill-opacity="0.2"/>
<path d="M1409.22 1004.7C1418.74 1010.88 1429.1 1015.68 1439.97 1018.95C1447.13 1021.02 1454.48 1022.46 1461.81 1023.95C1462.97 1024.19 1465.07 1023.57 1465.53 1022.68C1466.5 1020.88 1465.29 1019.35 1462.81 1018.66C1455.16 1016.55 1447.5 1014.55 1439.84 1012.39C1437.53 1011.74 1435.34 1010.71 1432.78 1009.75C1433.93 1008.66 1435.02 1007.5 1436.03 1006.28C1442.79 997.021 1445.92 986.786 1444.26 975.306C1444.14 974.573 1443.97 973.85 1443.74 973.145C1442.7 970.144 1440.9 969.331 1438.5 971.416C1435.94 973.66 1433.75 976.289 1432 979.209C1427.71 986.566 1425.3 994.861 1424.98 1003.36C1424.98 1004.25 1425.05 1005.16 1425.12 1006.39C1410.92 999.245 1397.99 991.223 1392.78 975.281C1405.16 972.903 1414.48 966.381 1420.36 955.562C1421.52 953.085 1422.19 950.409 1422.34 947.68C1422.59 945.137 1421.33 944.056 1418.8 944.565C1412.05 945.837 1405.66 948.543 1400.06 952.498C1397.63 954.485 1395.45 956.761 1393.57 959.274C1392.18 960.902 1391.1 962.796 1389.55 964.461C1386.4 950.922 1391.42 939.123 1397.21 927.287C1406.58 932.716 1415.93 932.08 1425.28 928.559C1431.1 926.372 1435.17 921.871 1439.1 917.307C1440.11 916.125 1439.1 913.493 1437.61 912.921C1432.43 910.9 1427.16 909.45 1421.47 910.378C1416.59 911.154 1411.68 911.79 1406.95 912.451C1409.31 908.637 1411.96 904.289 1414.6 899.979C1419.95 891.205 1423.18 881.311 1424.02 871.081C1424.34 867.102 1423.56 863.021 1423.32 859.486C1427.73 856.791 1432.61 854.681 1436.39 851.324C1443.84 844.701 1446.86 835.954 1446.25 825.999C1446.11 823.914 1444.97 823.342 1443.01 823.927C1436.99 825.669 1432.28 829.483 1428.37 834.021C1424.89 838.064 1422.25 842.819 1419.44 846.951C1414.71 836.208 1414.26 818.841 1418.44 806.268C1422.27 806.878 1425.97 807.679 1429.7 808.022C1438.8 808.861 1445.43 804.005 1451.39 798.055C1453.51 795.945 1452.08 791.698 1448.57 790.859C1444.29 789.871 1439.89 789.444 1435.49 789.588C1432.06 789.69 1428.68 791.012 1424.97 791.876C1425.12 791.495 1425.32 791.129 1425.54 790.783C1431.65 783.681 1438.7 777.452 1446.52 772.272C1450.82 769.462 1455.69 769.056 1460.56 768.305C1462.2 768.09 1463.82 767.698 1465.38 767.136C1466.09 766.869 1467.03 765.864 1467 765.28C1466.96 764.766 1466.82 764.265 1466.58 763.807C1466.34 763.349 1466.02 762.942 1465.62 762.61C1464.68 762.095 1463.61 761.832 1462.53 761.847C1454.28 761.186 1447.11 763.945 1440.6 768.776C1438.99 769.971 1437.38 771.141 1435.38 772.59C1437.93 765.331 1437.73 758.173 1437.59 751.066C1437.52 743.195 1434.71 735.592 1429.64 729.555C1427.76 727.305 1426.27 727.444 1425.39 730.318C1424.08 734.595 1423.02 738.946 1422.23 743.349C1420.87 750.752 1421.31 758.372 1423.51 765.572C1424.79 769.806 1427.06 773.747 1429.09 778.286C1417.42 787.287 1412.61 800.356 1410.69 814.9C1407.33 811.34 1404.2 807.844 1400.87 804.539C1396.9 800.797 1391.93 798.265 1386.56 797.241C1383.34 796.517 1381.45 797.585 1381.78 801.055C1382.52 807.625 1385.28 813.809 1389.67 818.765C1394.64 824.873 1401.08 829.631 1408.39 832.597C1408.9 832.871 1409.35 833.244 1409.71 833.694C1410.08 834.144 1410.35 834.661 1410.51 835.216C1412.06 840.607 1413.23 846.112 1414.87 851.477C1416.85 857.923 1418.97 864.356 1418.2 871.183C1417.73 875.493 1416.62 879.726 1415.8 883.998C1415.5 884.926 1415.11 884.888 1414.92 883.998C1414.76 883.273 1414.64 882.536 1414.43 881.811C1411.56 871.292 1405.07 862.115 1396.09 855.888C1394.1 854.503 1391.8 852.634 1389.24 854.299C1386.47 856.105 1387.07 859.169 1387.42 861.851C1388.36 867.505 1390.42 872.916 1393.48 877.768C1396.28 882.58 1399.32 887.247 1402.6 891.753C1404.22 893.991 1406.62 895.669 1408.89 897.817L1388.04 931.724C1385.96 923.702 1380.78 917.739 1374.31 912.654C1372.09 911.019 1369.7 909.646 1367.17 908.56C1363.34 906.819 1360.51 908.878 1361.2 913.074C1361.67 916.184 1362.59 919.211 1363.92 922.062C1367.29 929.17 1372.13 935.485 1378.13 940.586C1380.14 942.057 1382.25 943.391 1384.44 944.578C1380.32 962.554 1386.58 978.205 1395.71 993.334C1393.91 993.054 1391.98 992.685 1390.03 992.495C1381.09 991.643 1372.99 994.096 1365.25 998.177C1364.02 998.814 1362.94 999.689 1362.06 1000.75C1361.19 1001.81 1360.53 1003.04 1360.14 1004.36C1359.88 1005.49 1359.98 1006.69 1360.44 1007.76C1360.9 1008.84 1361.69 1009.74 1362.69 1010.34C1368 1013.94 1374.01 1014.48 1380.19 1014.51C1386.87 1014.6 1393.48 1013.21 1399.56 1010.45C1402.88 1008.71 1406.11 1006.79 1409.22 1004.7V1004.7ZM1403.96 1000.77C1397.02 1009.52 1370.54 1010.26 1365.4 1005.02C1373.14 997.91 1395.48 995.457 1403.96 1000.77ZM1410.72 891.753C1402.88 888.473 1390.4 867.75 1390.89 858.838C1400.82 862.131 1413.14 880.896 1410.72 891.753ZM1385.29 802.606C1385.64 802.575 1385.99 802.575 1386.34 802.606C1397.24 805.441 1408.57 815.93 1410.07 826.825C1409.84 826.914 1390.56 820.558 1385.29 802.594V802.606ZM1400.21 923.143C1409.53 916.862 1427.98 913.798 1433.6 917.536C1424.25 927.491 1407.82 927.745 1400.21 923.13V923.143ZM1393.26 969.636C1396.75 960.533 1410.12 950.311 1418.64 950.235C1413.95 960.533 1402.51 969.165 1393.26 969.636ZM1423.15 853.409C1425.39 842.336 1436.34 831.529 1443.57 829.355C1440.95 840.899 1435.15 849.583 1423.2 853.409H1423.15ZM1431.15 770.594C1424.15 759.33 1425.68 747.481 1428.51 735.543C1434.73 746.82 1433.66 758.669 1431.15 770.594ZM1384.72 938.678C1377.06 935.793 1365.08 920.257 1365.27 913.544C1376.03 917.739 1384.58 929.182 1384.72 938.678V938.678ZM1428.99 1007.23C1428.91 995.787 1434.79 980.62 1441.21 975.548C1442.73 988.07 1436.03 1002.36 1428.99 1007.23ZM1446.85 795.957C1440.29 803.166 1427.02 804.424 1420.59 799.364C1429.2 796.58 1437.64 793.605 1446.85 795.957Z" fill="#83C3C0" fill-opacity="0.2"/>
<path d="M65.9908 333.97C65.9908 331.26 64.6803 330.612 62.0834 331.2C51.0732 333.761 40.4775 337.875 30.6103 343.419C22.4263 347.94 14.3973 352.773 6.45154 357.714C0.0902087 361.671 -6.4379 365.52 -11.4174 371.3C-13.7706 374.18 -15.9278 377.217 -17.8741 380.39C-18.2195 380.93 -17.7549 381.997 -17.6596 382.789C-16.7992 382.684 -15.9664 382.415 -15.2056 381.997C-13.6451 380.606 -12.2871 378.987 -10.4406 376.984C-10.4406 381.841 -10.4406 385.918 -10.4406 390.008C-10.524 396.003 -10.8337 401.915 -10.7026 407.863C-10.6286 409.212 -11.0529 410.54 -11.8939 411.593C-13.3343 413.617 -14.6511 415.727 -15.837 417.913C-16.0633 418.32 -15.5749 419.112 -15.4201 419.759C-14.8439 419.689 -14.2861 419.51 -13.7761 419.232C-13.0982 418.583 -12.4765 417.876 -11.9178 417.121L-11.7986 417.913L16.7917 422.218C13.1107 425.947 10.1206 429.269 6.83268 432.255C2.67518 436.056 -1.75627 439.558 -6.00908 443.263C-7.34329 444.462 -9.08257 445.482 -8.65371 448C-8.01769 447.987 -7.38722 447.878 -6.78342 447.676C-3.81718 446.153 -0.624609 444.918 1.99617 442.88C16.3985 432.003 27.8347 418.116 38.7347 403.834C46.6645 393.209 53.1729 381.582 58.0927 369.25C61.0947 361.959 64.5255 354.8 65.3594 346.837C65.8373 342.565 66.0482 338.268 65.9908 333.97V333.97ZM35.4587 346.369L55.3647 337.975V338.287L35.4587 358.853V346.369ZM16.3985 357.462L31.8849 348.312C31.8849 353.109 31.8849 357.402 31.8849 361.671C31.8237 362.131 31.6046 362.555 31.2655 362.87C26.6831 367.803 22.0888 372.715 17.4826 377.608C17.28 377.824 17.03 378.016 16.4343 378.555L16.3985 357.462ZM-6.35451 373.183C-1.39887 369.554 3.59245 365.956 8.61958 362.39C9.92996 361.479 11.3714 360.748 12.7533 359.992L13.4919 360.256C13.063 367.607 12.658 374.958 12.1696 382.297C12.0836 383.052 11.7576 383.758 11.2404 384.311C5.48657 390.547 -0.326744 396.735 -6.06862 402.899C-6.24731 398.102 -6.42605 392.922 -6.64048 387.777C-6.83108 383.544 -7.11692 379.323 -7.24796 375.09C-7.24165 374.726 -7.15877 374.368 -7.00475 374.04C-6.85073 373.711 -6.62907 373.419 -6.35451 373.183V373.183ZM32.3496 403.63C28.8592 407.971 25.2615 412.204 21.7711 416.545C21.4286 417.088 20.9213 417.505 20.3246 417.734C19.7279 417.963 19.0738 417.992 18.4594 417.817C10.8115 416.498 3.19938 414.771 -4.66294 415.226C-6.10349 415.191 -7.53835 415.03 -8.95153 414.747L1.61503 401.328L2.06764 400.776C4.8671 397.49 7.44023 394.78 12.789 395.668C19.2099 396.699 25.8929 396.159 32.433 396.375C33.8982 396.375 35.3634 396.747 37.2695 397.011C35.5421 399.325 34.0292 401.544 32.3496 403.63ZM40.9743 391.219C40.7951 391.404 40.5798 391.549 40.3419 391.646C40.1041 391.743 39.8489 391.79 39.5924 391.782C30.5388 391.782 21.4852 391.726 12.4316 391.614C12.1189 391.559 11.812 391.474 11.5144 391.363L18.9955 383.088C20.6741 381.351 22.2645 379.53 23.7605 377.632C24.2819 376.815 25.0319 376.172 25.916 375.783C26.8 375.395 27.7785 375.279 28.7281 375.449C33.6122 375.809 38.5322 375.557 43.4402 375.557H49.3965L49.9683 376.145C47.0497 381.182 44.0477 386.218 40.9743 391.219V391.219ZM52.6605 369.466C52.5314 369.715 52.3491 369.932 52.1266 370.102C51.9042 370.272 51.6472 370.391 51.374 370.449C44.9054 370.785 38.4488 371.049 31.9803 371.312L60.5705 340.134C61.1662 351.07 56.9014 360.268 52.6605 369.466V369.466Z" fill="#FFCB68" fill-opacity="0.2"/>
<path d="M65.9908 946.97C65.9908 944.26 64.6803 943.612 62.0834 944.2C51.0732 946.761 40.4775 950.875 30.6103 956.419C22.4263 960.94 14.3973 965.773 6.45154 970.714C0.0902087 974.671 -6.4379 978.52 -11.4174 984.3C-13.7706 987.18 -15.9278 990.217 -17.8741 993.39C-18.2195 993.93 -17.7549 994.997 -17.6596 995.789C-16.7992 995.684 -15.9664 995.415 -15.2056 994.997C-13.6451 993.606 -12.2871 991.987 -10.4406 989.984C-10.4406 994.841 -10.4406 998.918 -10.4406 1003.01C-10.524 1009 -10.8337 1014.92 -10.7026 1020.86C-10.6286 1022.21 -11.0529 1023.54 -11.8939 1024.59C-13.3343 1026.62 -14.6511 1028.73 -15.837 1030.91C-16.0633 1031.32 -15.5749 1032.11 -15.4201 1032.76C-14.8439 1032.69 -14.2861 1032.51 -13.7761 1032.23C-13.0982 1031.58 -12.4765 1030.88 -11.9178 1030.12L-11.7986 1030.91L16.7917 1035.22C13.1107 1038.95 10.1206 1042.27 6.83268 1045.25C2.67518 1049.06 -1.75627 1052.56 -6.00908 1056.26C-7.34329 1057.46 -9.08257 1058.48 -8.65371 1061C-8.01769 1060.99 -7.38722 1060.88 -6.78342 1060.68C-3.81718 1059.15 -0.624609 1057.92 1.99617 1055.88C16.3985 1045 27.8347 1031.12 38.7347 1016.83C46.6645 1006.21 53.1729 994.582 58.0927 982.25C61.0947 974.959 64.5255 967.8 65.3594 959.837C65.8373 955.565 66.0482 951.268 65.9908 946.97V946.97ZM35.4587 959.369L55.3647 950.975V951.287L35.4587 971.853V959.369ZM16.3985 970.462L31.8849 961.312C31.8849 966.109 31.8849 970.402 31.8849 974.671C31.8237 975.131 31.6046 975.555 31.2655 975.87C26.6831 980.803 22.0888 985.715 17.4826 990.608C17.28 990.824 17.03 991.016 16.4343 991.555L16.3985 970.462ZM-6.35451 986.183C-1.39887 982.554 3.59245 978.956 8.61958 975.39C9.92996 974.479 11.3714 973.748 12.7533 972.992L13.4919 973.256C13.063 980.607 12.658 987.958 12.1696 995.297C12.0836 996.052 11.7576 996.758 11.2404 997.311C5.48657 1003.55 -0.326744 1009.73 -6.06862 1015.9C-6.24731 1011.1 -6.42605 1005.92 -6.64048 1000.78C-6.83108 996.544 -7.11692 992.323 -7.24796 988.09C-7.24165 987.726 -7.15877 987.368 -7.00475 987.04C-6.85073 986.711 -6.62907 986.419 -6.35451 986.183V986.183ZM32.3496 1016.63C28.8592 1020.97 25.2615 1025.2 21.7711 1029.55C21.4286 1030.09 20.9213 1030.5 20.3246 1030.73C19.7279 1030.96 19.0738 1030.99 18.4594 1030.82C10.8115 1029.5 3.19938 1027.77 -4.66294 1028.23C-6.10349 1028.19 -7.53835 1028.03 -8.95153 1027.75L1.61503 1014.33L2.06764 1013.78C4.8671 1010.49 7.44023 1007.78 12.789 1008.67C19.2099 1009.7 25.8929 1009.16 32.433 1009.38C33.8982 1009.38 35.3634 1009.75 37.2695 1010.01C35.5421 1012.33 34.0292 1014.54 32.3496 1016.63ZM40.9743 1004.22C40.7951 1004.4 40.5798 1004.55 40.3419 1004.65C40.1041 1004.74 39.8489 1004.79 39.5924 1004.78C30.5388 1004.78 21.4852 1004.73 12.4316 1004.61C12.1189 1004.56 11.812 1004.47 11.5144 1004.36L18.9955 996.088C20.6741 994.351 22.2645 992.53 23.7605 990.632C24.2819 989.815 25.0319 989.172 25.916 988.783C26.8 988.395 27.7785 988.279 28.7281 988.449C33.6122 988.809 38.5322 988.557 43.4402 988.557H49.3965L49.9683 989.145C47.0497 994.182 44.0477 999.218 40.9743 1004.22V1004.22ZM52.6605 982.466C52.5314 982.715 52.3491 982.932 52.1266 983.102C51.9042 983.272 51.6472 983.391 51.374 983.449C44.9054 983.785 38.4488 984.049 31.9803 984.312L60.5705 953.134C61.1662 964.07 56.9014 973.268 52.6605 982.466V982.466Z" fill="#FFCB68" fill-opacity="0.2"/>
<path d="M137.253 24.3163C127.991 22.6101 119.358 19.5791 112.14 13.6124C106.988 9.37318 102.134 4.67826 99.6005 -1.76533C98.9405 -3.43981 98.4721 -5.20968 100.165 -7.1915C106.126 4.30733 114.717 12.7115 126.565 17.1097C126.76 14.4029 127.116 11.7099 127.629 9.04465C128.121 7.45256 128.986 5.99959 130.152 4.80545C132.345 2.3997 135.411 1.84857 137.487 3.18392C138.8 4.06472 139.774 5.36309 140.25 6.86664C140.725 8.37018 140.674 9.98992 140.105 11.461C138.868 14.723 136.475 17.4219 133.378 19.0492C144.14 21.4443 154.476 20.5223 164.898 19.0492C164.43 17.5548 163.919 16.1241 163.525 14.6722C162.98 12.4584 163.329 10.1202 164.498 8.16021C165.666 6.20019 167.561 4.77487 169.774 4.19074C172.829 3.47008 175.501 6.08781 175.745 10.0409C175.916 12.7963 175.671 13.5594 172.85 18.8478C184.251 18.4345 194.46 22.6101 204.988 26.4678C204.265 22.6097 205.107 18.6236 207.33 15.3822C209.299 12.5102 213.036 10.9099 215.388 11.9697C218.039 13.1779 219.252 16.4421 218.582 20.0348C217.964 23.3202 215.761 25.5033 213.259 27.9091C225.128 29.7319 235.689 26.9765 245.706 21.3489C243.896 18.6994 242.118 16.1771 240.383 13.5912C239.589 12.3999 239.091 11.0372 238.932 9.61601C238.773 8.19487 238.956 6.75641 239.468 5.42015C240.532 2.15596 243.651 1.03258 246.696 2.77065C250.24 4.78427 251.316 8.13321 251.56 11.8849C251.548 13.2677 251.694 14.6473 251.997 15.9969C253.775 13.5806 255.648 11.2279 257.32 8.72672C260.393 3.78522 262.59 -1.64605 263.813 -7.32928C264.155 -8.26628 264.601 -9.16214 265.144 -10C267.954 -8.33611 268.337 -7.37164 267.784 -4.57376C265.974 4.80547 261.13 12.648 255.201 19.9288C251.156 24.8993 249.644 25.9273 240.458 30.1771C242.098 31.5056 243.61 32.9852 244.971 34.5964C246.333 36.3194 247.257 38.3445 247.664 40.4995C248.069 44.5374 243.864 47.0597 239.723 45.5654C235.582 44.071 234.326 40.5843 233.24 36.928C232.932 35.5479 232.711 34.1496 232.58 32.7418C217.081 36.2921 202.774 31.682 188.594 25.7259C190.383 29.2762 191.128 32.7736 189.893 36.3239C189.275 38.0677 188.166 39.5979 186.699 40.7327C183.591 43.0218 179.748 40.6161 179.503 36.3769C179.23 32.7171 179.966 29.0524 181.632 25.7789C181.845 25.3656 182.047 24.9416 182.282 24.4541C169.72 22.3345 157.425 25.6835 145.407 25.196C145.556 27.6441 146.088 30.1771 145.726 32.6146C145.285 34.4934 144.365 36.2272 143.054 37.6487C142.295 38.6681 141.187 39.3755 139.94 39.6371C138.692 39.8988 137.392 39.6966 136.284 39.0688C135.24 38.4163 134.438 37.4417 134.002 36.2937C133.566 35.1457 133.518 33.8873 133.867 32.71C134.185 31.2981 134.601 29.9099 135.113 28.5555C135.847 27.1142 136.507 25.8637 137.253 24.3163ZM208.884 26.8599C213.27 25.1112 216.027 19.9924 215.346 17.3217C214.909 15.6366 214.036 15.4458 212.578 16.0499C209.235 17.5124 207.308 23.0128 208.884 26.8599V26.8599ZM131.312 16.9084C133.219 15.1834 135.034 13.3617 136.752 11.4504C137.817 10.0833 137.37 6.95681 136.039 6.69186C134.974 6.4799 132.59 6.43753 131.291 9.50036C130.333 11.7683 130.365 13.8773 131.312 16.9084ZM236.093 31.7985C235.901 31.9787 236.434 38.8674 238.786 41.0824C240.032 42.2694 242.533 43.0537 243.832 41.8031C245.131 40.5525 243.917 38.2951 243.215 37.5639C241.118 35.5609 238.318 33.7274 236.093 31.7985V31.7985ZM140.286 25.9167C138.488 27.9254 137.371 30.4468 137.093 33.1233C137.049 33.507 137.09 33.8958 137.213 34.262C137.336 34.6282 137.539 34.9631 137.806 35.2429C138.184 35.3619 138.582 35.3988 138.975 35.3513C139.368 35.3037 139.746 35.1728 140.084 34.9674C143.437 33.0703 143.522 29.3398 140.286 25.9167V25.9167ZM248.867 19.2081C248.814 16.0287 248.974 10.327 246.834 7.46556C246.057 6.40576 244.992 5.22939 243.64 6.15141C240.543 8.16503 245.195 15.7214 248.889 19.2081H248.867ZM168.613 18.7736C172.531 15.5094 173.936 9.16119 170.583 8.28156C167.229 7.40192 166.218 13.5594 168.634 18.7736H168.613ZM185.369 24.9734C183.389 28.3224 180.365 37.4473 184.219 38.0726C188.073 38.6979 189.073 28.5132 185.39 24.9734H185.369Z" fill="#FFCB68" fill-opacity="0.2"/>
<path d="M1338.75 24.3163C1348.01 22.6101 1356.64 19.5791 1363.86 13.6124C1369.01 9.37318 1373.87 4.67826 1376.4 -1.76533C1377.06 -3.43981 1377.53 -5.20968 1375.84 -7.1915C1369.87 4.30733 1361.28 12.7115 1349.44 17.1097C1349.24 14.4029 1348.88 11.7099 1348.37 9.04465C1347.88 7.45256 1347.01 5.99959 1345.85 4.80545C1343.65 2.3997 1340.59 1.84857 1338.51 3.18392C1337.2 4.06472 1336.23 5.36309 1335.75 6.86664C1335.27 8.37018 1335.33 9.98992 1335.89 11.461C1337.13 14.723 1339.52 17.4219 1342.62 19.0492C1331.86 21.4443 1321.52 20.5223 1311.1 19.0492C1311.57 17.5548 1312.08 16.1241 1312.48 14.6722C1313.02 12.4584 1312.67 10.1202 1311.5 8.16021C1310.33 6.20019 1308.44 4.77487 1306.23 4.19074C1303.17 3.47008 1300.5 6.08781 1300.25 10.0409C1300.08 12.7963 1300.33 13.5594 1303.15 18.8478C1291.75 18.4345 1281.54 22.6101 1271.01 26.4678C1271.73 22.6097 1270.89 18.6236 1268.67 15.3822C1266.7 12.5102 1262.96 10.9099 1260.61 11.9697C1257.96 13.1779 1256.75 16.4421 1257.42 20.0348C1258.04 23.3202 1260.24 25.5033 1262.74 27.9091C1250.87 29.7319 1240.31 26.9765 1230.29 21.3489C1232.1 18.6994 1233.88 16.1771 1235.62 13.5912C1236.41 12.3999 1236.91 11.0372 1237.07 9.61601C1237.23 8.19487 1237.04 6.75641 1236.53 5.42015C1235.47 2.15596 1232.35 1.03258 1229.3 2.77065C1225.76 4.78427 1224.68 8.13321 1224.44 11.8849C1224.45 13.2677 1224.31 14.6473 1224 15.9969C1222.23 13.5806 1220.35 11.2279 1218.68 8.72672C1215.61 3.78522 1213.41 -1.64605 1212.19 -7.32928C1211.85 -8.26628 1211.4 -9.16214 1210.86 -10C1208.05 -8.33611 1207.66 -7.37164 1208.22 -4.57376C1210.03 4.80547 1214.87 12.648 1220.8 19.9288C1224.84 24.8993 1226.36 25.9273 1235.54 30.1771C1233.9 31.5056 1232.39 32.9852 1231.03 34.5964C1229.67 36.3194 1228.74 38.3445 1228.34 40.4995C1227.93 44.5374 1232.14 47.0597 1236.28 45.5654C1240.42 44.071 1241.67 40.5843 1242.76 36.928C1243.07 35.5479 1243.29 34.1496 1243.42 32.7418C1258.92 36.2921 1273.23 31.682 1287.41 25.7259C1285.62 29.2762 1284.87 32.7736 1286.11 36.3239C1286.73 38.0677 1287.83 39.5979 1289.3 40.7327C1292.41 43.0218 1296.25 40.6161 1296.5 36.3769C1296.77 32.7171 1296.03 29.0524 1294.37 25.7789C1294.15 25.3656 1293.95 24.9416 1293.72 24.4541C1306.28 22.3345 1318.57 25.6835 1330.59 25.196C1330.44 27.6441 1329.91 30.1771 1330.27 32.6146C1330.72 34.4934 1331.64 36.2272 1332.95 37.6487C1333.71 38.6681 1334.81 39.3755 1336.06 39.6371C1337.31 39.8988 1338.61 39.6966 1339.72 39.0688C1340.76 38.4163 1341.56 37.4417 1342 36.2937C1342.43 35.1457 1342.48 33.8873 1342.13 32.71C1341.81 31.2981 1341.4 29.9099 1340.89 28.5555C1340.15 27.1142 1339.49 25.8637 1338.75 24.3163ZM1267.12 26.8599C1262.73 25.1112 1259.97 19.9924 1260.65 17.3217C1261.09 15.6366 1261.96 15.4458 1263.42 16.0499C1266.76 17.5124 1268.69 23.0128 1267.12 26.8599V26.8599ZM1344.69 16.9084C1342.78 15.1834 1340.97 13.3617 1339.25 11.4504C1338.18 10.0833 1338.63 6.95681 1339.96 6.69186C1341.03 6.4799 1343.41 6.43753 1344.71 9.50036C1345.67 11.7683 1345.63 13.8773 1344.69 16.9084ZM1239.91 31.7985C1240.1 31.9787 1239.57 38.8674 1237.21 41.0824C1235.97 42.2694 1233.47 43.0537 1232.17 41.8031C1230.87 40.5525 1232.08 38.2951 1232.79 37.5639C1234.88 35.5609 1237.68 33.7274 1239.91 31.7985V31.7985ZM1335.71 25.9167C1337.51 27.9254 1338.63 30.4468 1338.91 33.1233C1338.95 33.507 1338.91 33.8958 1338.79 34.262C1338.66 34.6282 1338.46 34.9631 1338.19 35.2429C1337.82 35.3619 1337.42 35.3988 1337.02 35.3513C1336.63 35.3037 1336.25 35.1728 1335.92 34.9674C1332.56 33.0703 1332.48 29.3398 1335.71 25.9167V25.9167ZM1227.13 19.2081C1227.19 16.0287 1227.03 10.327 1229.17 7.46556C1229.94 6.40576 1231.01 5.22939 1232.36 6.15141C1235.46 8.16503 1230.81 15.7214 1227.11 19.2081H1227.13ZM1307.39 18.7736C1303.47 15.5094 1302.06 9.16119 1305.42 8.28156C1308.77 7.40192 1309.78 13.5594 1307.37 18.7736H1307.39ZM1290.63 24.9734C1292.61 28.3224 1295.63 37.4473 1291.78 38.0726C1287.93 38.6979 1286.93 28.5132 1290.61 24.9734H1290.63Z" fill="#FFCB68" fill-opacity="0.2"/>
<path d="M1423.45 656.457C1423.92 660.979 1424.41 665.415 1424.81 669.852C1425.22 674.288 1425.54 678.767 1425.96 683.214C1425.96 683.939 1426.2 684.644 1426.63 685.224C1433.23 691.574 1439.89 697.859 1446.53 704.167C1447.09 704.688 1447.62 705.252 1448.09 705.856C1449.09 707.16 1449.5 708.859 1448.09 709.725C1447.48 709.938 1446.82 710 1446.18 709.905C1445.53 709.81 1444.92 709.562 1444.39 709.18C1440.74 706.048 1437.21 702.766 1433.86 699.271C1433.3 698.538 1432.49 698.051 1431.58 697.911C1430.68 697.772 1429.76 697.991 1429.01 698.522C1425.27 700.511 1421.47 702.392 1417.69 704.306C1416.89 704.712 1416.05 705.022 1414.71 705.599C1417.82 708.314 1420.57 710.944 1423.54 713.274C1429 717.732 1435.32 721.008 1442.11 722.895C1443.03 723.179 1443.86 723.711 1444.51 724.435C1444.83 724.697 1445.05 725.05 1445.16 725.446C1445.27 725.842 1445.26 726.263 1445.12 726.651C1444.99 727.039 1444.74 727.376 1444.41 727.617C1444.07 727.857 1443.68 727.989 1443.27 727.995C1441.68 728.041 1440.1 727.791 1438.6 727.257C1427.81 723.64 1418.23 717.064 1410.96 708.272C1396.31 691.168 1384.86 672.107 1378.96 650.065C1378.11 646.608 1377.47 643.102 1377.05 639.567C1376.71 637.183 1378.27 635.59 1380.43 636.093C1389.27 638.113 1398.35 639.514 1406.87 642.507C1420.6 647.339 1432.76 655.046 1442.34 666.324C1443.82 668.17 1445.05 670.208 1445.99 672.385C1446.33 673.134 1445.68 674.352 1445.48 675.357C1444.41 675.111 1443.26 675.133 1442.49 674.545C1441.72 673.957 1441.3 672.695 1440.64 671.797C1436.08 665.839 1430.53 660.721 1424.23 656.671C1423.98 656.567 1423.72 656.495 1423.45 656.457V656.457ZM1427.35 693.573C1427.24 693.315 1427.1 693.071 1426.93 692.846C1421.88 687.715 1416.86 682.562 1411.74 677.506C1411.4 677.237 1411 677.044 1410.58 676.939C1410.16 676.834 1409.73 676.819 1409.3 676.896C1404.98 677.773 1400.7 678.821 1395.87 679.922L1411.35 701.975L1427.35 693.573ZM1404.31 646.334C1404.55 648.985 1404.89 651.326 1404.92 653.678C1404.92 656.585 1403.86 659.814 1404.84 662.305C1405.81 664.795 1408.67 666.581 1410.68 668.719C1414.15 672.417 1417.58 676.202 1421.31 680.146C1421.31 679.184 1421.31 678.65 1421.31 678.115C1420.78 670.376 1420.25 662.625 1419.64 654.896C1419.57 654.525 1419.43 654.172 1419.21 653.861C1419 653.55 1418.72 653.287 1418.4 653.09C1414.86 651.155 1411.27 649.338 1407.66 647.542C1406.57 647.078 1405.45 646.674 1404.31 646.334V646.334ZM1381.46 646.334C1382.05 648.237 1382.52 650.129 1383.24 651.893C1386.43 659.376 1389.68 666.83 1392.98 674.256C1393.24 674.823 1394.13 675.624 1394.55 675.517C1398.6 674.523 1402.61 673.379 1406.92 672.161L1381.46 646.334ZM1399.63 659.033C1400.18 659.568 1401.02 659.408 1400.98 658.093C1400.79 654.073 1400.63 650.065 1400.35 646.056C1400.27 645.787 1400.12 645.541 1399.92 645.339C1399.73 645.136 1399.49 644.983 1399.22 644.891C1394 643.544 1388.76 642.272 1383.53 640.978C1382.65 640.796 1382.14 641.342 1382.81 641.929C1388.41 647.609 1394.02 653.296 1399.63 658.991V659.033Z" fill="#FFCB68" fill-opacity="0.2"/>
<path d="M1415.7 554.209C1414.08 552.212 1412.52 550.436 1411.14 548.516C1409.33 546.095 1407.66 543.568 1406.15 540.947C1405.79 539.831 1405.84 538.619 1406.29 537.538C1408.25 531.505 1411.3 525.893 1415.28 520.987C1420.42 514.886 1425.1 508.365 1430.26 502.341C1432 500.333 1436.03 498.413 1438.49 497.166C1438.94 496.975 1439.44 496.948 1439.9 497.089C1440.37 497.23 1440.77 497.53 1441.04 497.939C1441.48 498.821 1440.74 499.847 1439.95 500.311C1436.57 502.517 1431.91 505.309 1430.14 507.891L1447.8 526.968C1448.14 527.332 1448.73 527.652 1448.8 528.071C1448.95 528.976 1449.19 530.2 1448.74 530.796C1448.38 531.059 1447.97 531.235 1447.53 531.312C1447.1 531.388 1446.65 531.363 1446.22 531.238C1445.36 530.869 1444.61 530.284 1444.04 529.538C1438.46 523.624 1432.91 517.688 1427.13 511.521L1418.4 523.15C1418.63 523.448 1418.77 523.68 1418.96 523.878C1424.15 529.263 1429.27 534.702 1434.54 540.02C1438.13 543.65 1441.92 547.082 1445.57 550.645C1446.2 551.217 1446.68 551.942 1446.96 552.753C1447.03 553.084 1447.03 553.426 1446.95 553.756C1446.88 554.085 1446.73 554.394 1446.53 554.662C1446.29 554.848 1446.01 554.971 1445.72 555.019C1445.42 555.067 1445.12 555.039 1444.84 554.937C1443.6 554.396 1442.45 553.651 1441.45 552.731C1435.33 546.442 1429.29 540.086 1423.23 533.731C1420.94 531.337 1418.7 528.909 1416.17 526.217C1415.36 527.205 1414.6 528.236 1413.91 529.307C1412.91 530.972 1412.02 532.696 1411.24 534.47C1410.51 535.828 1410.2 537.375 1410.35 538.911C1410.51 540.447 1411.11 541.902 1412.09 543.087C1414.75 546.298 1417.24 549.652 1419.85 552.918C1421.89 555.478 1421.72 556.703 1418.85 558.435C1420.54 559.88 1422.25 561.238 1423.87 562.716C1430.48 568.777 1437.08 574.853 1443.67 580.943C1444.09 581.33 1444.76 581.716 1444.76 582.179C1444.87 583.316 1444.89 584.459 1444.83 585.599C1443.74 585.639 1442.64 585.609 1441.56 585.511C1441.13 585.511 1440.76 584.926 1440.38 584.606C1433.27 578.553 1426.51 572.084 1420.15 565.232C1418.67 563.772 1417.08 562.429 1415.4 561.215C1415.14 561.1 1414.85 561.048 1414.56 561.061C1414.28 561.074 1414 561.154 1413.74 561.293C1411.56 562.584 1409.32 563.93 1407.2 565.386C1406.94 565.595 1406.73 565.855 1406.58 566.149C1406.43 566.443 1406.33 566.765 1406.31 567.096C1406.14 570.064 1406.1 573.032 1406.08 576C1406.08 576.48 1406.27 576.94 1406.6 577.28C1416.03 585.798 1429.36 599.855 1439.52 607.6C1441.11 608.927 1442.5 610.485 1443.64 612.223C1443.82 612.616 1443.91 613.047 1443.89 613.481C1443.88 613.914 1443.76 614.338 1443.55 614.717C1443.27 615.147 1442.04 615.103 1441.27 614.971C1440.58 614.806 1439.94 614.464 1439.42 613.978C1430.51 606.364 1416.87 594.117 1409.03 585.357C1408.21 584.354 1407.25 583.48 1406.17 582.764C1406.41 584.987 1406.75 587.196 1407.21 589.384C1408.63 594.901 1409.65 600.704 1411.92 605.934C1413.93 610.524 1417.19 614.617 1420.29 618.634C1424.77 624.437 1431.07 627.714 1437.74 630.406C1438.15 630.535 1438.54 630.693 1438.93 630.881C1440.26 631.686 1441.56 632.602 1440.82 634.467C1440.09 636.331 1438.46 636.221 1437.21 635.57C1432.36 633.154 1427.18 631.157 1422.93 627.847C1416.71 623.025 1411.73 616.752 1408.42 609.564C1405.75 603.498 1403.92 597.091 1402.97 590.52C1401.44 581.542 1401.72 572.345 1403.79 563.477C1404.18 562.202 1404.98 561.096 1406.07 560.333C1409.2 558.203 1412.39 556.317 1415.7 554.209Z" fill="#83C3C0" fill-opacity="0.2"/>
<path d="M588.741 12.9908C593.168 11.6453 597.447 10.6095 601.544 9.0184C603.674 8.05307 605.604 6.69454 607.231 5.01396C611.99 0.486281 616.578 -4.22294 621.24 -8.86808C621.414 -9.09252 621.641 -9.26893 621.902 -9.38063C623.108 -9.61556 624.335 -9.79711 625.551 -10C625.365 -8.97772 625.004 -7.99522 624.484 -7.09548C622.585 -4.86367 620.536 -2.76001 618.434 -0.688382C618.037 -0.431935 617.757 -0.0298222 617.653 0.431478C617.549 0.892778 617.631 1.37641 617.879 1.77835C619.811 5.88957 621.646 10.0328 623.428 14.2081C624.015 15.5963 624.313 17.1127 624.879 18.9815C626.31 17.4435 627.603 15.7819 628.741 14.0159C631.814 8.1214 634.642 2.08807 637.65 -3.84918C638.413 -5.19625 639.254 -6.4977 640.168 -7.74685C640.523 -7.64254 640.851 -7.4622 641.13 -7.21834C641.408 -6.97447 641.63 -6.67292 641.78 -6.33461C641.93 -5.9963 642.005 -5.62931 642 -5.25914C641.994 -4.88896 641.908 -4.52446 641.748 -4.1909C637.842 7.07492 633.521 18.1165 623.726 25.837C622.503 26.933 621.185 27.9192 619.789 28.7843C618.877 29.1033 617.884 29.1033 616.973 28.7843C614.839 28.2183 612.705 27.4495 610.261 26.6486C610.816 28.7843 611.328 30.7492 611.862 32.7354C612.715 36.035 611.862 38.0746 609.226 40.2103C601.687 46.1202 593.265 50.8049 584.27 54.0923C582.712 54.6595 581.072 54.9662 579.415 55C578.946 55 578.007 53.7186 578.017 53.0245C577.939 49.4558 578.128 45.8863 578.583 42.346C579.525 35.5991 580.846 28.9109 582.541 22.3131C585.166 12.9801 587.876 3.60442 593.553 -4.51124C594.385 -5.71791 595.206 -6.93526 596.145 -8.05651C596.322 -8.21836 596.538 -8.33262 596.771 -8.38864C597.004 -8.44467 597.248 -8.44061 597.479 -8.37685C597.67 -8.2097 597.814 -7.99604 597.898 -7.75656C597.983 -7.51709 598.004 -7.25996 597.959 -7.01003C597.426 -5.72861 596.647 -4.55395 596.06 -3.30456C593.734 1.67874 591.426 6.66203 589.135 11.6453C588.958 12.0793 588.826 12.53 588.741 12.9908ZM622.809 20.8395C622.083 19.9959 616.823 8.27087 614.839 3.11316C614.486 3.38012 614.252 3.52962 614.06 3.71115C607.05 10.3959 601.939 18.4475 597.255 26.8194C597.059 27.3611 597.059 27.9543 597.255 28.496C598.034 31.0802 598.941 33.6323 599.698 36.2272C600.168 37.829 600.424 39.4841 600.829 41.3529L608.383 35.6506C607.316 31.3792 605.001 27.631 606.249 23.1567C606.794 21.1705 607.231 20.9569 609.152 21.7365C611.851 22.8043 614.657 23.68 617.357 24.7585C619 25.4206 620.003 24.6731 620.888 23.5091C621.657 22.5801 622.286 21.587 622.809 20.8395V20.8395ZM601.373 12.7559C596.732 13.9092 592.358 14.977 588.015 16.1409C587.652 16.237 587.343 16.9632 587.225 17.4544C585.636 23.7014 583.918 29.9269 582.595 36.2379C581.816 39.922 581.688 43.7128 581.261 47.493C581.176 48.1551 581.698 48.1231 581.965 47.6959C586.927 35.2448 593.905 24.0217 601.373 12.7559V12.7559ZM595.228 30.7812C595.153 30.4501 594.972 30.1618 594.63 30.6637L584.494 49.319C584.259 49.7035 584.494 49.853 584.803 49.7889L597.948 43.0187C596.988 38.726 596.103 34.7536 595.228 30.7812Z" fill="#EF8C69" fill-opacity="0.2"/>
<path d="M887.259 12.9908C882.832 11.6453 878.553 10.6095 874.456 9.0184C872.326 8.05307 870.396 6.69454 868.769 5.01396C864.01 0.486281 859.422 -4.22294 854.76 -8.86808C854.586 -9.09252 854.359 -9.26893 854.098 -9.38063C852.892 -9.61556 851.665 -9.79711 850.449 -10C850.635 -8.97772 850.996 -7.99522 851.516 -7.09548C853.415 -4.86367 855.464 -2.76001 857.566 -0.688382C857.963 -0.431935 858.243 -0.0298222 858.347 0.431478C858.451 0.892778 858.369 1.37641 858.121 1.77835C856.189 5.88957 854.354 10.0328 852.572 14.2081C851.985 15.5963 851.687 17.1127 851.121 18.9815C849.69 17.4435 848.397 15.7819 847.259 14.0159C844.186 8.1214 841.358 2.08807 838.35 -3.84918C837.587 -5.19625 836.746 -6.4977 835.832 -7.74685C835.477 -7.64254 835.149 -7.4622 834.87 -7.21834C834.592 -6.97447 834.37 -6.67292 834.22 -6.33461C834.07 -5.9963 833.995 -5.62931 834 -5.25914C834.006 -4.88896 834.092 -4.52446 834.252 -4.1909C838.158 7.07492 842.479 18.1165 852.274 25.837C853.497 26.933 854.815 27.9192 856.211 28.7843C857.123 29.1033 858.116 29.1033 859.027 28.7843C861.161 28.2183 863.295 27.4495 865.739 26.6486C865.184 28.7843 864.672 30.7492 864.138 32.7354C863.285 36.035 864.138 38.0746 866.774 40.2103C874.313 46.1202 882.735 50.8049 891.73 54.0923C893.288 54.6595 894.928 54.9662 896.585 55C897.054 55 897.993 53.7186 897.983 53.0245C898.061 49.4558 897.872 45.8863 897.417 42.346C896.475 35.5991 895.154 28.9109 893.459 22.3131C890.834 12.9801 888.124 3.60442 882.447 -4.51124C881.615 -5.71791 880.794 -6.93526 879.855 -8.05651C879.678 -8.21836 879.462 -8.33262 879.229 -8.38864C878.996 -8.44467 878.752 -8.44061 878.521 -8.37685C878.33 -8.2097 878.186 -7.99604 878.102 -7.75656C878.017 -7.51709 877.996 -7.25996 878.041 -7.01003C878.574 -5.72861 879.353 -4.55395 879.94 -3.30456C882.266 1.67874 884.574 6.66203 886.865 11.6453C887.042 12.0793 887.174 12.53 887.259 12.9908ZM853.191 20.8395C853.917 19.9959 859.177 8.27087 861.161 3.11316C861.514 3.38012 861.748 3.52962 861.94 3.71115C868.95 10.3959 874.061 18.4475 878.745 26.8194C878.941 27.3611 878.941 27.9543 878.745 28.496C877.966 31.0802 877.059 33.6323 876.302 36.2272C875.832 37.829 875.576 39.4841 875.171 41.3529L867.617 35.6506C868.684 31.3792 870.999 27.631 869.751 23.1567C869.206 21.1705 868.769 20.9569 866.848 21.7365C864.149 22.8043 861.343 23.68 858.643 24.7585C857 25.4206 855.997 24.6731 855.112 23.5091C854.343 22.5801 853.714 21.587 853.191 20.8395V20.8395ZM874.627 12.7559C879.268 13.9092 883.642 14.977 887.985 16.1409C888.348 16.237 888.657 16.9632 888.775 17.4544C890.364 23.7014 892.082 29.9269 893.405 36.2379C894.184 39.922 894.312 43.7128 894.739 47.493C894.824 48.1551 894.302 48.1231 894.035 47.6959C889.073 35.2448 882.095 24.0217 874.627 12.7559V12.7559ZM880.772 30.7812C880.847 30.4501 881.028 30.1618 881.37 30.6637L891.506 49.319C891.741 49.7035 891.506 49.853 891.197 49.7889L878.052 43.0187C879.012 38.726 879.897 34.7536 880.772 30.7812Z" fill="#EF8C69" fill-opacity="0.2"/>
<path d="M694.429 -5.07382C695.402 -4.00491 696.279 -2.85125 697.048 -1.62645C699.36 2.88493 701.449 7.51337 703.761 12.0141C706.487 17.3341 709.339 22.5797 712.245 27.804C712.445 28.0287 712.699 28.1971 712.984 28.2923C713.269 28.3875 713.573 28.4062 713.868 28.3466C718.682 25.942 723.412 23.4309 728.046 21.0476C723.953 13.8123 720.135 7.10906 716.381 0.395186C715.506 -1.02701 714.795 -2.54402 714.26 -4.12684C714.085 -5.32278 714.085 -6.53789 714.26 -7.73383L715.076 -7.92534C715.642 -7.38824 716.153 -6.79661 716.604 -6.15906C720.167 -0.0942273 723.656 6.00252 727.208 12.0567C728.333 13.9613 729.595 15.7807 731.016 17.9938L737.972 10.1947C734.791 4.58739 731.822 -0.573022 728.99 -5.81857C728.566 -6.58465 728.799 -7.7125 728.736 -8.68075L729.732 -9L740.221 6.01317C742.999 2.18275 743.879 -2.65849 747.347 -5.90371C747.715 -5.70145 748.04 -5.42819 748.302 -5.0996C748.564 -4.771 748.759 -4.39358 748.875 -3.9891C748.992 -3.58461 749.027 -3.161 748.98 -2.74273C748.932 -2.32446 748.802 -1.91981 748.598 -1.55196C742.236 13.7697 732.5 26.1122 716.678 32.4217C711.46 34.5497 706.073 36.1671 700.187 35.9862C697.101 35.8904 696.274 34.7307 695.373 32.4856C694.1 29.3468 692.668 26.2611 691.3 23.1223C687.769 26.1335 684.301 28.9318 681.035 31.9536C680.474 32.51 679.76 32.8846 678.985 33.0288C678.209 33.173 677.409 33.0801 676.687 32.7622C671.66 31.2194 667.98 27.6976 664.215 24.3034C658.998 19.5899 656.039 13.2697 652.487 7.37506C650.869 4.59951 649.428 1.72459 648.17 -1.23271C647.967 -2.28519 647.945 -3.36492 648.107 -4.42472L648.998 -4.70138C649.764 -3.9091 650.473 -3.06283 651.119 -2.16904C654.745 3.43827 659.284 11.2374 663.049 16.7489C666.029 21.1326 670.25 24.3034 674.661 27.1017C677.843 29.0808 678.479 28.8042 680.558 26.3569C678.214 21.8562 675.722 17.5363 673.664 13.0249C671.713 8.7157 665.425 -0.807155 664.809 -5.60582L665.87 -6.23355C666.953 -5.26779 667.941 -4.19877 668.818 -3.04153C670.939 0.437768 675.923 9.72651 677.959 13.2909C679.879 16.6638 681.777 20.0473 683.771 23.5798C685.531 21.9626 687.048 20.4623 688.67 19.0898C690.558 17.5044 691.597 17.4406 692.986 19.4941C694.942 22.5151 696.713 25.6526 698.289 28.8893C699.922 32.0813 700.134 32.3792 703.591 31.4748C705.193 31.0492 706.773 30.4108 708.586 29.815C707.197 27.3784 705.702 25.144 704.567 22.7393C700.749 14.6316 697.016 6.4742 693.368 -1.73282C692.997 -2.56275 693.368 -3.73317 693.464 -4.74398L694.429 -5.07382Z" fill="#83C3C0" fill-opacity="0.2"/>
<path d="M377.818 28.5354C371.447 33.9301 365.735 35.009 360.149 32.1714C351.846 27.9204 349.043 22.8711 349.616 12.4809C347.657 12.4927 345.699 12.3737 343.755 12.1249C334.857 10.431 331.407 0.342949 333.679 -6.89668C333.87 -7.50088 334.603 -7.9756 335.08 -8.43954C335.429 -7.7751 335.703 -7.073 335.898 -6.34641C336.248 -3.99434 336.132 -1.51283 336.832 0.709773C338.669 6.55758 342.98 8.93121 349.054 7.77676C349.983 7.49311 350.936 7.29097 351.899 7.17256C352.643 7.20267 353.353 7.49663 353.906 8.00336C354.045 8.25763 354.117 8.54352 354.117 8.83415C354.117 9.12479 354.045 9.41061 353.906 9.66489C351.995 11.4235 352.568 13.6894 352.6 15.7933C352.727 22.7632 359.714 29.8193 366.403 29.0425C369.345 28.7188 372.254 26.9818 374.898 25.4065C378.083 23.5184 378.551 23.432 380.303 26.7228C381.025 28.0822 381.768 29.4417 382.426 30.8443C385.983 38.4508 396.803 40.8029 403.662 34.7069C404.673 33.6442 405.58 32.4843 406.37 31.2435C407.962 29.0856 408.239 29.3123 410.139 31.1033C411.675 32.6348 413.534 33.7898 415.576 34.4803C421.946 36.2929 428.179 36.0663 433.7 31.9232C435.004 30.7281 436.083 29.3024 436.886 27.7154C437.439 26.5878 437.908 25.4192 438.288 24.2197C439.455 21.4253 439.445 21.5439 442.28 22.1373C448.056 23.3565 453.62 22.4934 458.334 18.9005C461.403 16.2464 462.847 11.5207 463.155 10.9704C464.684 8.24072 464.705 8.22992 467.699 9.20095C473.507 11.0783 477.935 8.30548 482.15 4.78816C483.483 3.65443 484.56 2.24315 485.309 0.649781C486.059 -0.943584 486.462 -2.68186 486.493 -4.44748C486.758 -6.60136 487.272 -8.71617 488.022 -10.7485C488.182 -11.2771 489.01 -11.59 489.53 -12C489.997 -11.3634 490.825 -10.7485 490.878 -10.0687C491.855 1.58372 486.96 9.80518 475.631 14.218C473.189 15.1675 471.044 14.8546 466.404 13.4304C464.663 18.523 462.348 23.1408 457.018 25.3957C454.653 26.5368 452.09 27.1927 449.475 27.326C446.861 27.4593 444.246 27.0674 441.781 26.1726C441.335 27.4134 440.899 28.5894 440.485 29.7762C439.371 32.7473 437.421 35.3193 434.877 37.1709C432.334 39.0226 429.31 40.0719 426.183 40.1879C418.527 40.3066 415.915 40.3605 408.961 35.3974C404.554 41.4826 399.054 44.2231 391.356 42.486C383.658 40.7489 380.281 35.4838 377.818 28.5354Z" fill="#EF8C69" fill-opacity="0.2"/>
<path d="M1098.18 28.5354C1104.55 33.9301 1110.27 35.009 1115.85 32.1714C1124.15 27.9204 1126.96 22.8711 1126.38 12.4809C1128.34 12.4927 1130.3 12.3737 1132.24 12.1249C1141.14 10.431 1144.59 0.342949 1142.32 -6.89668C1142.13 -7.50088 1141.4 -7.9756 1140.92 -8.43954C1140.57 -7.7751 1140.3 -7.073 1140.1 -6.34641C1139.75 -3.99434 1139.87 -1.51283 1139.17 0.709773C1137.33 6.55758 1133.02 8.93121 1126.95 7.77676C1126.02 7.49311 1125.06 7.29097 1124.1 7.17256C1123.36 7.20267 1122.65 7.49663 1122.09 8.00336C1121.96 8.25763 1121.88 8.54352 1121.88 8.83415C1121.88 9.12479 1121.96 9.41061 1122.09 9.66489C1124.01 11.4235 1123.43 13.6894 1123.4 15.7933C1123.27 22.7632 1116.29 29.8193 1109.6 29.0425C1106.66 28.7188 1103.75 26.9818 1101.1 25.4065C1097.92 23.5184 1097.45 23.432 1095.7 26.7228C1094.98 28.0822 1094.23 29.4417 1093.57 30.8443C1090.02 38.4508 1079.2 40.8029 1072.34 34.7069C1071.33 33.6442 1070.42 32.4843 1069.63 31.2435C1068.04 29.0856 1067.76 29.3123 1065.86 31.1033C1064.33 32.6348 1062.47 33.7898 1060.42 34.4803C1054.05 36.2929 1047.82 36.0663 1042.3 31.9232C1041 30.7281 1039.92 29.3024 1039.11 27.7154C1038.56 26.5878 1038.09 25.4192 1037.71 24.2197C1036.54 21.4253 1036.56 21.5439 1033.72 22.1373C1027.94 23.3565 1022.38 22.4934 1017.67 18.9005C1014.6 16.2464 1013.15 11.5207 1012.85 10.9704C1011.32 8.24072 1011.29 8.22992 1008.3 9.20095C1002.49 11.0783 998.065 8.30548 993.85 4.78816C992.517 3.65443 991.44 2.24315 990.691 0.649781C989.941 -0.943584 989.538 -2.68186 989.507 -4.44748C989.242 -6.60136 988.728 -8.71617 987.978 -10.7485C987.818 -11.2771 986.99 -11.59 986.47 -12C986.003 -11.3634 985.175 -10.7485 985.122 -10.0687C984.145 1.58372 989.04 9.80518 1000.37 14.218C1002.81 15.1675 1004.96 14.8546 1009.6 13.4304C1011.34 18.523 1013.65 23.1408 1018.98 25.3957C1021.35 26.5368 1023.91 27.1927 1026.52 27.326C1029.14 27.4593 1031.75 27.0674 1034.22 26.1726C1034.67 27.4134 1035.1 28.5894 1035.51 29.7762C1036.63 32.7473 1038.58 35.3193 1041.12 37.1709C1043.67 39.0226 1046.69 40.0719 1049.82 40.1879C1057.47 40.3066 1060.08 40.3605 1067.04 35.3974C1071.45 41.4826 1076.95 44.2231 1084.64 42.486C1092.34 40.7489 1095.72 35.4838 1098.18 28.5354Z" fill="#EF8C69" fill-opacity="0.2"/>
<path d="M806.182 14.5354C812.553 19.9301 818.265 21.009 823.851 18.1714C832.154 13.9204 834.957 8.87105 834.384 -1.51905C836.343 -1.5073 838.301 -1.62626 840.245 -1.87512C849.143 -3.56904 852.593 -13.6571 850.321 -20.8967C850.13 -21.5009 849.397 -21.9756 848.92 -22.4395C848.571 -21.7751 848.297 -21.073 848.102 -20.3464C847.752 -17.9943 847.868 -15.5128 847.168 -13.2902C845.331 -7.44242 841.02 -5.06879 834.946 -6.22324C834.017 -6.50689 833.064 -6.70903 832.101 -6.82744C831.357 -6.79733 830.647 -6.50337 830.094 -5.99664C829.955 -5.74237 829.883 -5.45648 829.883 -5.16585C829.883 -4.87521 829.955 -4.58939 830.094 -4.33511C832.005 -2.57646 831.432 -0.310643 831.4 1.79327C831.273 8.76317 824.286 15.8193 817.597 15.0425C814.655 14.7188 811.746 12.9818 809.102 11.4065C805.917 9.51839 805.449 9.43204 803.697 12.7228C802.975 14.0822 802.232 15.4417 801.574 16.8443C798.017 24.4508 787.197 26.8029 780.338 20.7069C779.327 19.6442 778.42 18.4843 777.63 17.2435C776.038 15.0856 775.761 15.3123 773.861 17.1033C772.325 18.6348 770.466 19.7898 768.424 20.4803C762.054 22.2929 755.821 22.0663 750.3 17.9232C748.996 16.7281 747.917 15.3024 747.114 13.7154C746.561 12.5878 746.092 11.4192 745.712 10.2197C744.545 7.42529 744.555 7.54391 741.72 8.13733C735.944 9.35652 730.38 8.49337 725.666 4.90053C722.597 2.24636 721.153 -2.47933 720.845 -3.02958C719.316 -5.75928 719.295 -5.77008 716.301 -4.79905C710.493 -2.92171 706.065 -5.69452 701.85 -9.21184C700.517 -10.3456 699.44 -11.7569 698.691 -13.3502C697.941 -14.9436 697.538 -16.6819 697.507 -18.4475C697.242 -20.6014 696.728 -22.7162 695.978 -24.7485C695.818 -25.2771 694.99 -25.59 694.47 -26C694.003 -25.3634 693.175 -24.7485 693.122 -24.0687C692.145 -12.4163 697.04 -4.19482 708.369 0.218009C710.811 1.16747 712.956 0.8546 717.596 -0.569589C719.337 4.52296 721.652 9.14075 726.982 11.3957C729.347 12.5368 731.91 13.1927 734.525 13.326C737.139 13.4593 739.754 13.0674 742.219 12.1726C742.665 13.4134 743.101 14.5894 743.515 15.7762C744.629 18.7473 746.579 21.3193 749.123 23.1709C751.666 25.0226 754.69 26.0719 757.817 26.1879C765.473 26.3066 768.085 26.3605 775.039 21.3974C779.446 27.4826 784.946 30.2231 792.644 28.486C800.342 26.7489 803.719 21.4838 806.182 14.5354Z" fill="#EF8C69" fill-opacity="0.2"/>
<path d="M499.647 21.7143C505.901 18.4693 511.502 14.0961 516.17 8.81455C516.969 7.95101 517.597 6.90619 518.459 6.10662C518.703 5.89313 518.99 5.73651 519.301 5.64801C519.613 5.55951 519.94 5.54136 520.259 5.59491C520.539 5.74838 520.777 5.96885 520.952 6.23669C521.126 6.50453 521.232 6.81143 521.259 7.1301C521.142 10.3284 520.897 13.5267 520.631 16.6504C519.789 25.9262 521.409 35.2602 525.326 43.708C525.55 44.1984 525.88 44.6461 526.391 45.5523C527.641 44.2895 528.825 42.9622 529.937 41.5758C534.344 35.3817 538.752 29.1983 542.979 22.887C544.352 20.8294 545.108 18.3881 546.343 16.2026C546.843 15.2964 547.557 13.8785 548.802 13.8891C550.048 13.8998 550.932 15.563 551.272 16.6824C552.912 21.6611 554.775 26.5011 557.99 30.6802C559.161 32.2154 560.631 33.5267 562.1 35.0939C566.22 30.6269 570.234 26.3732 573.087 21.2346C578.377 11.6808 581.728 1.17351 582.946 -9.68231C582.993 -10.5167 583.188 -11.3361 583.521 -12.1023C583.987 -12.8005 584.538 -13.438 585.16 -14C585.789 -13.2217 586.843 -12.5075 586.949 -11.6759C587.072 -10.0777 586.972 -8.47019 586.651 -6.89981C584.82 4.82729 581.647 16.2133 575.036 26.2559C572.097 30.7229 563.729 42.0129 558.98 37.7378C554.232 33.4627 551.006 26.5864 548.781 20.8401C546.939 23.9105 545.204 27.2367 543.064 30.2645C539.91 34.8598 536.527 39.2933 532.928 43.5481C531.129 45.6803 528.51 47.0662 526.178 48.6547C525.947 48.8265 525.678 48.9385 525.393 48.9809C525.109 49.0233 524.819 48.9948 524.548 48.8977C524.277 48.8007 524.035 48.6382 523.842 48.4247C523.649 48.2112 523.511 47.9533 523.442 47.6739C521.76 43.4947 519.875 39.3689 518.608 35.0619C516.479 27.8657 516.66 20.4883 517.831 12.983C514.967 15.4776 512.231 17.9937 509.314 20.3284C506.35 22.8986 502.817 24.7257 499.008 25.6589C496.985 26.096 496.208 25.1471 496.176 23.6866C495.919 18.1879 495.944 12.6796 496.251 7.18339C496.751 0.893403 499.327 -4.86353 502.287 -10.4073C502.479 -10.7697 502.596 -11.2495 502.894 -11.4733C503.452 -11.8412 504.04 -12.1621 504.651 -12.4329C504.821 -11.7612 505.247 -11.0256 505.098 -10.4179C504.739 -8.79136 504.225 -7.20278 503.565 -5.67377C499.732 2.95098 498.752 12.0555 499.647 21.7143Z" fill="#FFCB68" fill-opacity="0.2"/>
<path d="M976.353 21.7143C970.099 18.4693 964.498 14.0961 959.83 8.81455C959.031 7.95101 958.403 6.90619 957.541 6.10662C957.297 5.89313 957.01 5.73651 956.699 5.64801C956.387 5.55951 956.06 5.54136 955.741 5.59491C955.461 5.74838 955.223 5.96885 955.048 6.23669C954.874 6.50453 954.768 6.81143 954.741 7.1301C954.858 10.3284 955.103 13.5267 955.369 16.6504C956.211 25.9262 954.591 35.2602 950.674 43.708C950.45 44.1984 950.12 44.6461 949.609 45.5523C948.359 44.2895 947.175 42.9622 946.063 41.5758C941.656 35.3817 937.248 29.1983 933.021 22.887C931.648 20.8294 930.892 18.3881 929.657 16.2026C929.157 15.2964 928.443 13.8785 927.198 13.8891C925.952 13.8998 925.068 15.563 924.728 16.6824C923.088 21.6611 921.225 26.5011 918.01 30.6802C916.839 32.2154 915.369 33.5267 913.9 35.0939C909.78 30.6269 905.766 26.3732 902.913 21.2346C897.623 11.6808 894.272 1.17351 893.054 -9.68231C893.007 -10.5167 892.812 -11.3361 892.479 -12.1023C892.013 -12.8005 891.462 -13.438 890.84 -14C890.211 -13.2217 889.157 -12.5075 889.051 -11.6759C888.928 -10.0777 889.028 -8.47019 889.349 -6.89981C891.18 4.82729 894.353 16.2133 900.964 26.2559C903.903 30.7229 912.271 42.0129 917.02 37.7378C921.768 33.4627 924.994 26.5864 927.219 20.8401C929.061 23.9105 930.796 27.2367 932.936 30.2645C936.09 34.8598 939.473 39.2933 943.072 43.5481C944.871 45.6803 947.49 47.0662 949.822 48.6547C950.053 48.8265 950.322 48.9385 950.607 48.9809C950.891 49.0233 951.181 48.9948 951.452 48.8977C951.723 48.8007 951.965 48.6382 952.158 48.4247C952.351 48.2112 952.489 47.9533 952.558 47.6739C954.24 43.4947 956.125 39.3689 957.392 35.0619C959.521 27.8657 959.34 20.4883 958.169 12.983C961.033 15.4776 963.769 17.9937 966.686 20.3284C969.65 22.8986 973.183 24.7257 976.992 25.6589C979.015 26.096 979.792 25.1471 979.824 23.6866C980.081 18.1879 980.056 12.6796 979.749 7.18339C979.249 0.893403 976.673 -4.86353 973.713 -10.4073C973.521 -10.7697 973.404 -11.2495 973.106 -11.4733C972.548 -11.8412 971.96 -12.1621 971.349 -12.4329C971.179 -11.7612 970.753 -11.0256 970.902 -10.4179C971.261 -8.79136 971.775 -7.20278 972.435 -5.67377C976.268 2.95098 977.248 12.0555 976.353 21.7143Z" fill="#FFCB68" fill-opacity="0.2"/>
<path d="M1416.51 77.3361C1413.52 78.0038 1410.4 77.7664 1407.54 76.6537C1404.68 75.541 1402.21 73.6026 1400.44 71.0819C1396.43 65.7907 1394.13 60.1608 1397.48 53.5997C1384.13 51.134 1377.93 34.943 1386.3 23.2388C1383.97 20.8472 1381.26 18.8153 1379.51 16.1486C1375.78 10.4023 1376.6 4.30684 1379.39 -1.64048C1379.6 -2.08065 1379.93 -2.44891 1380.34 -2.69872C1380.76 -2.92095 1381.56 -3.12203 1381.75 -2.91038C1381.93 -2.70269 1382.05 -2.45596 1382.11 -2.19085C1382.17 -1.92573 1382.17 -1.64995 1382.1 -1.38651C1380.65 1.70257 1380.2 5.16669 1380.79 8.52921C1381 10.64 1381.76 12.6578 1382.99 14.3798C1384.22 16.1018 1385.88 17.4674 1387.8 18.3391C1388.81 18.7604 1389.79 19.2555 1390.73 19.8206C1392.37 20.8789 1392.43 22.0006 1391.14 23.4081C1389.6 24.9945 1388.4 26.8887 1387.63 28.9685C1386.86 31.0483 1386.54 33.2674 1386.67 35.4826C1386.95 39.9166 1390.67 47.6418 1397.08 48.372C1398.02 48.5839 1398.92 48.9408 1399.76 49.4302C1401.03 50.0123 1401.26 51.007 1400.99 52.351C1400.42 54.6112 1400.06 56.922 1399.94 59.2507C1399.94 63.2191 1402.35 66.1399 1404.7 69.0712C1407.29 72.32 1410.66 72.9656 1414.53 72.3624C1415.74 72.1348 1416.98 72.1348 1418.19 72.3624C1420.71 72.9338 1420.89 75.3042 1420.92 77.1668C1421.02 83.5162 1428.27 90.1408 1435.09 89.3365C1438.49 88.9344 1441.95 89.199 1445.19 87.6645C1446.81 86.9026 1447.94 88.0031 1448.66 89.3365C1448.84 89.638 1448.95 89.9777 1448.99 90.3299C1449.02 90.6821 1448.98 91.0377 1448.86 91.3699C1448.74 91.702 1448.54 92.0021 1448.29 92.2475C1448.03 92.4929 1447.73 92.6771 1447.39 92.7864C1438.78 96.4479 1426.45 96.4162 1419.57 86.0983C1417.98 83.7913 1417.61 80.6166 1416.51 77.3361Z" fill="#EF8C69" fill-opacity="0.2"/>
<path d="M-2.53982 277.171C-2.99675 276.2 -3.22528 275.953 -3.20624 275.762C-1.49278 266.245 12.5957 257.013 21.7341 259.373C27.6741 260.915 31.653 264.399 32.7573 270.68C32.9569 271.55 33.2048 272.408 33.4998 273.25C40.9819 272.755 47.8737 273.25 54.442 278.065C62.4762 284.08 61.4291 299.403 56.1555 305.171C49.6824 312.252 42.048 316.078 31.9196 314.802C31.9196 317.6 32.5098 320.513 31.8053 323.082C29.6921 330.696 24.0758 337.244 14.6708 336.578C11.2038 336.56 7.74496 336.242 4.333 335.626C3.47877 335.309 2.71676 334.785 2.1153 334.1C1.51384 333.416 1.09176 332.593 0.887058 331.705C1.00129 328.869 3.62863 330.296 5.34209 330.163C10.0065 329.764 14.8612 330.011 19.2971 328.621C25.6559 326.604 27.3504 321.274 24.5898 315.202C24.1731 314.43 23.7981 313.635 23.4665 312.823C22.229 309.111 24.3233 306.636 28.0548 307.379C31.9769 308.256 36.0548 308.152 39.9271 307.076C43.7994 306.001 47.3464 303.986 50.2535 301.211C54.1754 297.633 54.2516 293.103 52.8238 288.496C51.3959 283.89 47.3025 282.31 42.9618 281.796C39.2493 281.339 35.4987 281.301 31.7672 281.149C29.8634 281.149 28.4736 280.616 28.4927 278.161C28.3296 276.56 28.0108 274.979 27.5408 273.44C26.9968 271.072 25.5678 269.002 23.5467 267.654C21.5256 266.306 19.0653 265.781 16.6698 266.188C10.5585 267.044 6.40814 270.87 2.02931 274.582C0.5928 275.589 -0.937248 276.456 -2.53982 277.171V277.171Z" fill="#EF8C69" fill-opacity="0.2"/>
<path d="M-2.53982 890.171C-2.99675 889.2 -3.22528 888.953 -3.20624 888.762C-1.49278 879.245 12.5957 870.013 21.7341 872.373C27.6741 873.915 31.653 877.399 32.7573 883.68C32.9569 884.55 33.2048 885.408 33.4998 886.25C40.9819 885.755 47.8737 886.25 54.442 891.065C62.4762 897.08 61.4291 912.403 56.1555 918.171C49.6824 925.252 42.048 929.078 31.9196 927.802C31.9196 930.6 32.5098 933.513 31.8053 936.082C29.6921 943.696 24.0758 950.244 14.6708 949.578C11.2038 949.56 7.74496 949.242 4.333 948.626C3.47877 948.309 2.71676 947.785 2.1153 947.1C1.51384 946.416 1.09176 945.593 0.887058 944.705C1.00129 941.869 3.62863 943.296 5.34209 943.163C10.0065 942.764 14.8612 943.011 19.2971 941.621C25.6559 939.604 27.3504 934.274 24.5898 928.202C24.1731 927.43 23.7981 926.635 23.4665 925.823C22.229 922.111 24.3233 919.636 28.0548 920.379C31.9769 921.256 36.0548 921.152 39.9271 920.076C43.7994 919.001 47.3464 916.986 50.2535 914.211C54.1754 910.633 54.2516 906.103 52.8238 901.496C51.3959 896.89 47.3025 895.31 42.9618 894.796C39.2493 894.339 35.4987 894.301 31.7672 894.149C29.8634 894.149 28.4736 893.616 28.4927 891.161C28.3296 889.56 28.0108 887.979 27.5408 886.44C26.9968 884.072 25.5678 882.002 23.5467 880.654C21.5256 879.306 19.0653 878.781 16.6698 879.188C10.5585 880.044 6.40814 883.87 2.02931 887.582C0.5928 888.589 -0.937248 889.456 -2.53982 890.171V890.171Z" fill="#EF8C69" fill-opacity="0.2"/>
<path d="M69.7498 27.2554C72.2577 29.9957 74.9474 32.6013 77.2251 35.5251C80.6175 39.8801 80.775 48.0885 77.6492 52.1988C74.2689 56.6639 69.4711 57.3734 64.322 56.6884C61.9017 56.3561 59.517 55.7992 57.198 55.0247C54.896 54.254 52.7152 53.0673 49.9286 51.844C50.4254 52.9205 50.7283 53.6423 51.1402 54.2906C54.3024 60.5295 57.1132 66.8908 56.2651 74.1573C55.9877 76.2666 55.4167 78.3258 54.5689 80.2738C53.1393 83.6746 50.0013 84.2863 46.7543 84.7756C37.9463 86.1213 32.4822 81.2647 28.06 74.5732C26.5455 72.2734 25.3945 69.6799 24.0981 67.3067C23.5763 71.0217 22.8196 74.6991 21.8325 78.3165C20.7566 81.5701 19.196 84.6391 17.2043 87.418C14.7812 90.7087 11.401 92.7761 7.07571 91.724C2.75044 90.672 0.860414 87.3323 0.121362 83.3933C-1.27359 75.6515 -1.36777 67.7279 -0.157273 59.9546C0.0462702 57.722 0.00151151 55.4734 -0.290601 53.2508C-0.423873 51.3547 0.448501 50.4127 2.41123 50.4617C13.0609 50.743 22.2444 46.8652 30.4467 40.2715C35.923 35.8798 40.9025 30.9254 43.1075 24.1238C44.5978 19.4874 44.9976 14.4596 45.7124 9.57856C46.2213 6.16552 48.3294 3.70669 50.2194 1.1255C50.5586 0.672876 51.5036 0.550557 52.1821 0.52609C59.0032 0.305894 65.8364 0 72.6697 0C77.7824 0 82.5923 1.22336 86.4208 5.01563C87.7499 6.22162 88.6273 7.85288 88.9053 9.63516C89.1833 11.4174 88.845 13.242 87.9474 14.8021C85.1124 20.1969 80.363 23.2552 74.911 25.3837C73.1785 26.2645 71.349 26.7906 69.7498 27.2554ZM36.4561 42.498L31.84 46.3636C33.7179 49.4953 35.4747 52.3945 37.1951 55.3672C37.922 56.5905 37.9948 58.3154 36.4803 58.8414C35.8906 58.9161 35.2918 58.8436 34.7363 58.6303C34.1807 58.417 33.6855 58.0695 33.2939 57.6181C31.2343 54.988 29.4775 52.1131 27.5511 49.2506C26.4365 49.8989 25.128 50.5962 23.9164 51.4648C23.6544 51.656 23.4394 51.9055 23.2882 52.194C23.1369 52.4824 23.0534 52.8023 23.0441 53.1285C23.3249 55.007 23.821 56.8461 24.5222 58.609C25.9276 61.8018 27.539 64.9212 29.2231 67.9795C31.5735 72.2611 34.1904 76.5427 38.6974 78.7447C43.7496 81.1913 51.4673 80.4206 51.9519 72.359C51.9532 69.5735 51.4312 66.8129 50.4133 64.2239C47.5903 55.9666 42.3685 49.0916 36.4561 42.498ZM44.7432 32.2588C46.8634 33.3108 48.7897 34.2039 50.6677 35.207C52.0125 35.9165 53.5148 36.6994 52.5577 38.6567C51.6006 40.614 50.0135 40.1858 48.5111 39.3784C46.3909 38.2163 44.2949 36.993 42.1383 35.7085L40.1392 38.5588C45.016 43.2393 50.7316 46.9386 56.9799 49.4586C61.8262 51.3425 66.9996 52.1499 72.0033 49.7277C73.2149 49.165 74.8141 47.8193 74.7899 46.8774C74.8574 44.1993 74.3273 41.5403 73.2391 39.0971C69.3742 31.8551 62.2139 30.118 54.9203 28.9069C52.2912 28.4787 49.65 28.2219 46.8149 27.8549L44.7432 32.2588ZM48.8624 22.1543C55.1989 22.1543 61.4627 22.4845 67.6659 22.0441C72.9135 21.53 77.8763 19.3941 81.8775 15.9276C85.597 12.9304 85.5122 9.49297 81.1506 7.63354C78.2618 6.38867 75.1768 5.67204 72.0396 5.51715C65.158 5.21133 58.2521 5.41934 50.9342 5.41934V11.6093C53.31 11.9378 55.6646 12.4075 57.9855 13.0161C58.3398 13.1082 58.6688 13.2802 58.9479 13.5191C59.227 13.758 59.4489 14.0575 59.5969 14.3953C59.745 14.7331 59.8153 15.1004 59.8027 15.4696C59.7901 15.8387 59.6949 16.2002 59.5242 16.527C58.882 18.0683 57.5857 18.0561 56.1076 17.7503C54.0722 17.3221 51.9883 17.1387 49.965 16.8695L48.8624 22.1543ZM2.89581 55.1837C2.89581 61.7162 2.68984 68.1141 2.9685 74.4998C3.12944 77.8335 3.75347 81.1279 4.82223 84.2863C5.91263 87.5036 7.93594 87.9563 10.88 86.2925C14.9993 83.9805 16.9378 80.0292 18.1494 75.7598C20.04 68.5587 20.1648 61.0009 18.5129 53.7402L11.922 55.1959C12.031 56.2235 12.1279 57.1532 12.2491 58.0952C12.4914 59.8323 13.2789 65.7531 11.8856 66.1568C10.4924 66.5605 9.85018 64.3585 9.64422 63.6123C8.89305 60.9699 8.43265 58.2542 7.82687 55.5017L2.89581 55.1837Z" fill="#83C3C0" fill-opacity="0.2"/>
<path d="M20.9912 36.4827C21.0396 37.0701 20.8876 37.6564 20.5656 38.1235C20.2437 38.5905 19.7758 38.9037 19.2559 39C18.5138 39 17.0732 37.9613 17.0186 37.2648C16.8986 35.8595 17.3351 33.9287 19.0267 34.002C19.5808 34.0398 20.0989 34.3222 20.4673 34.7873C20.8356 35.2524 21.024 35.8621 20.9912 36.4827V36.4827Z" fill="#83C3C0" fill-opacity="0.2"/>
<path d="M8.99116 25.2057C9.03962 25.7932 8.88759 26.3795 8.56564 26.8465C8.2437 27.3135 7.77576 27.6267 7.25592 27.723C6.51379 27.723 5.07319 26.6843 5.01862 25.9878C4.89857 24.5825 5.33508 22.6517 7.02671 22.7251C7.58084 22.7628 8.09894 23.0453 8.46726 23.5104C8.83558 23.9755 9.02399 24.5852 8.99116 25.2057V25.2057Z" fill="#83C3C0" fill-opacity="0.2"/>
<path d="M38.1595 14.3206C38.4534 14.8316 38.5654 15.4268 38.4729 15.9865C38.3804 16.5461 38.0902 17.0287 37.6609 17.3371C36.9893 17.653 35.2436 17.3263 34.8977 16.7193C34.1909 15.4987 33.7641 13.5658 35.326 12.9121C35.8435 12.7104 36.4326 12.7454 36.9638 13.0095C37.4951 13.2736 37.9251 13.7451 38.1595 14.3206V14.3206Z" fill="#83C3C0" fill-opacity="0.2"/>
<path d="M5.00814 42.2003C4.97825 41.7953 5.03088 41.3883 5.1628 41.0045C5.29472 40.6207 5.50314 40.2682 5.77522 39.9686C6.04729 39.6691 6.37734 39.4288 6.74495 39.2626C7.11256 39.0964 7.50998 39.0078 7.91282 39.0022C9.56568 38.9287 10.0761 40.7054 9.99108 41.4529C9.95883 42.0637 9.71482 42.6437 9.30166 43.0916C8.8885 43.5395 8.33239 43.8269 7.73049 43.9036C6.05332 44.1854 5.21474 43.9158 5.00814 42.2003Z" fill="#83C3C0" fill-opacity="0.2"/>
<path d="M26.1305 26.2977C25.9311 25.9439 25.8055 25.5533 25.7615 25.1498C25.7175 24.7464 25.756 24.3387 25.8747 23.9518C25.9934 23.5649 26.1898 23.207 26.4517 22.9002C26.7136 22.5933 27.0355 22.3439 27.3976 22.1674C28.862 21.3973 30.0802 22.7878 30.3214 23.5003C30.5522 24.0668 30.5783 24.6955 30.3951 25.2766C30.2119 25.8578 29.831 26.3546 29.319 26.6802C27.9213 27.6491 27.0477 27.7621 26.1305 26.2977Z" fill="#83C3C0" fill-opacity="0.2"/>
<path d="M14.1305 15.0208C13.9311 14.6669 13.8055 14.2763 13.7615 13.8729C13.7175 13.4694 13.756 13.0617 13.8747 12.6748C13.9934 12.2879 14.1898 11.9301 14.4517 11.6232C14.7136 11.3163 15.0355 11.0669 15.3976 10.8904C16.862 10.1203 18.0802 11.5108 18.3214 12.2234C18.5522 12.7898 18.5783 13.4185 18.3951 13.9997C18.2119 14.5808 17.831 15.0776 17.319 15.4032C15.9213 16.3721 15.0477 16.4851 14.1305 15.0208Z" fill="#83C3C0" fill-opacity="0.2"/>
</g>
</g>
<defs>
<clipPath id="clip0_811:16338">
<rect fill="white"/>
</clipPath>
<clipPath id="clip1_811:16338">
<rect width="1469" height="1082" fill="white" transform="translate(-16 -58)"/>
</clipPath>
</defs>
</svg>
