<svg viewBox="0 0 9 8" fill="none" xmlns="http://www.w3.org/2000/svg">
<path fill-rule="evenodd" clip-rule="evenodd" d="M6.04934 3.1528C6.14809 2.95501 6.20364 2.73189 6.20364 2.4958C6.20364 1.68237 5.54422 1.02295 4.73079 1.02295C3.96986 1.02295 3.3437 1.6 3.26605 2.34036C3.12911 2.30438 2.98535 2.28522 2.83712 2.28522C1.90749 2.28522 1.15387 3.03884 1.15387 3.96848C1.15387 4.89811 1.90749 5.65173 2.83712 5.65173C2.98534 5.65173 3.12909 5.63257 3.26602 5.5966C3.34354 6.33711 3.96976 6.91431 4.73079 6.91431C5.39883 6.91431 5.96299 6.46956 6.14332 5.86C6.16958 5.86144 6.19594 5.86216 6.22237 5.86216C6.48499 5.86216 6.74343 5.79079 6.96863 5.65567L7.67651 5.23094V3.75809H7.52236C7.21354 3.75809 6.91391 3.65299 6.67276 3.46007L6.59764 3.39997C6.43529 3.2701 6.2462 3.18703 6.04934 3.1528Z" fill="white" fill-opacity="0.6"/>
<path fill-rule="evenodd" clip-rule="evenodd" d="M5.18134 1.02502C4.53662 0.932915 4.07056 1.10494 3.75593 1.37999C3.51928 1.58685 3.37804 1.84336 3.30661 2.0649C2.9407 2.05616 2.46553 2.12154 2.05219 2.34805C1.54979 2.62337 1.15387 3.13055 1.15387 3.96859C1.15387 4.79463 1.50277 5.33121 1.95146 5.65426C2.31512 5.91609 2.73481 6.03156 3.06671 6.0632C3.12407 6.305 3.27027 6.61279 3.54553 6.85342C3.86016 7.12846 4.32623 7.30049 4.97094 7.20839C5.30047 7.16131 5.56082 7.04237 5.75949 6.8717C5.95739 6.70169 6.08386 6.4892 6.16034 6.26981C6.31112 5.83731 6.27397 5.3619 6.19735 5.0554C6.16916 4.94267 6.05493 4.87413 5.94219 4.90231C5.82946 4.93049 5.76091 5.04473 5.7891 5.15747C5.85274 5.41205 5.87872 5.79931 5.76298 6.13129C5.70621 6.29414 5.617 6.43934 5.48527 6.5525C5.35431 6.665 5.17105 6.75471 4.91143 6.7918C4.37787 6.86803 4.03738 6.72444 3.82249 6.53659C3.59986 6.34198 3.49383 6.08357 3.46548 5.91347C3.46502 5.91071 3.46451 5.90796 3.46394 5.90524C3.46683 5.89135 3.46834 5.87696 3.46834 5.86222C3.46834 5.74602 3.37414 5.65181 3.25793 5.65182C2.97599 5.65182 2.5484 5.56552 2.19734 5.31276C1.85701 5.06772 1.57468 4.65748 1.57468 3.96859C1.57468 3.29171 1.88012 2.9222 2.25442 2.71709C2.64403 2.50358 3.12303 2.46261 3.44552 2.49452C3.50644 2.50121 3.56476 2.48098 3.60787 2.44284C3.62298 2.42946 3.63622 2.41388 3.64705 2.39649C3.66164 2.37307 3.67181 2.34644 3.67626 2.31766C3.70517 2.14754 3.81125 1.89056 4.03289 1.69681C4.24777 1.50896 4.58827 1.36538 5.12183 1.4416C5.38145 1.47869 5.5647 1.5684 5.69567 1.68091C5.8274 1.79407 5.9166 1.93927 5.97338 2.10212C6.08911 2.43409 6.06314 2.82135 5.99949 3.07594C5.99169 3.10717 5.9913 3.13851 5.99722 3.16811C6.00182 3.19123 6.0104 3.21397 6.02323 3.23534C6.30049 3.69744 6.64154 3.9289 6.97134 4.01456C7.29414 4.09841 7.58817 4.03772 7.7706 3.9465C7.87453 3.89454 7.91666 3.76815 7.86469 3.66421C7.81272 3.56028 7.68634 3.51815 7.5824 3.57012C7.48428 3.61918 7.29438 3.66369 7.07713 3.60726C6.88028 3.55613 6.64411 3.41762 6.4279 3.08865C6.48964 2.7838 6.50755 2.35603 6.37074 1.96359C6.29425 1.74421 6.16779 1.53171 5.96988 1.3617C5.77121 1.19103 5.51086 1.07209 5.18134 1.02502ZM6.51619 6.12854C6.61584 6.18832 6.74508 6.15601 6.80487 6.05637C7.03259 5.67683 7.28768 5.52255 7.49793 5.46794C7.71517 5.41152 7.90508 5.45603 8.0032 5.50509C8.10713 5.55706 8.23352 5.51493 8.28549 5.41099C8.33745 5.30706 8.29533 5.18067 8.19139 5.1287C8.00897 5.03749 7.71493 4.9768 7.39214 5.06064C7.06234 5.14631 6.72128 5.37777 6.44402 5.83986C6.38424 5.93951 6.41655 6.06875 6.51619 6.12854Z" fill="#4B707D"/>
</svg>
