<svg viewBox="0 0 22 22" fill="none" xmlns="http://www.w3.org/2000/svg">
<path d="M10.0843 9.16621C10.0843 8.6602 10.4945 8.25 11.0005 8.25C11.5065 8.25 11.9167 8.6602 11.9167 9.16621V13.063C11.9167 13.569 11.5065 13.9792 11.0005 13.9792C10.4945 13.9792 10.0843 13.569 10.0843 13.063V9.16621ZM10.0834 16.0412C10.0834 15.5352 10.4936 15.125 10.9996 15.125C11.5056 15.125 11.9158 15.5352 11.9158 16.0412V16.5005C11.9158 17.0065 11.5056 17.4167 10.9996 17.4167C10.4936 17.4167 10.0834 17.0065 10.0834 16.5005V16.0412Z" fill="white"/>
<path d="M13.0817 1.25353C12.6719 0.4804 11.8735 0 10.9997 0C10.1259 0 9.32749 0.4804 8.91768 1.25471L0.276464 17.6178C0.0847132 17.9771 -0.0102712 18.3804 0.000880087 18.7877C0.0120314 19.1951 0.128933 19.5925 0.340054 19.9407C0.548134 20.2906 0.843642 20.58 1.1974 20.7803C1.55117 20.9807 1.95095 21.0851 2.35728 21.0833H19.6421C20.4758 21.0833 21.2307 20.656 21.6605 19.9407C21.8713 19.5924 21.988 19.195 21.9991 18.7877C22.0103 18.3804 21.9155 17.9773 21.7241 17.6178L13.0817 1.25353ZM2.35728 18.7226L10.9997 2.35951L19.648 18.7226H2.35728Z" fill="white"/>
</svg>
