<svg viewBox="0 0 18 22" fill="none" xmlns="http://www.w3.org/2000/svg">
<path fill-rule="evenodd" clip-rule="evenodd" d="M12.7774 16.583C14.5234 14.3697 16 11.4904 16 8.61905C16 5.00886 12.9125 2 9 2C5.08747 2 2 5.00886 2 8.61905C2 11.232 3.46763 14.1102 5.23061 16.4058C6.09942 17.5371 7.00541 18.4813 7.76698 19.1324C8.14916 19.4591 8.47778 19.6972 8.73306 19.8475C8.87381 19.9304 8.96306 19.9691 9.00786 19.9868C9.05459 19.9701 9.14717 19.9334 9.29288 19.8533C9.54756 19.7134 9.87489 19.4913 10.2547 19.1847C11.0119 18.5734 11.9132 17.6785 12.7774 16.583ZM9 21C10.5 21 17 15 17 8.61905C17 4.41116 13.4183 1 9 1C4.58172 1 1 4.41116 1 8.61905C1 14.5 7.5 21 9 21Z" fill="#4B707D" stroke="#4B707D"/>
<path fill-rule="evenodd" clip-rule="evenodd" d="M9 11.7C11.0435 11.7 12.7 10.0435 12.7 8C12.7 5.95655 11.0435 4.3 9 4.3C6.95655 4.3 5.3 5.95655 5.3 8C5.3 10.0435 6.95655 11.7 9 11.7ZM9 13C11.7614 13 14 10.7614 14 8C14 5.23858 11.7614 3 9 3C6.23858 3 4 5.23858 4 8C4 10.7614 6.23858 13 9 13Z" fill="#4B707D" stroke="#4B707D" stroke-width="0.3"/>
<path fill-rule="evenodd" clip-rule="evenodd" d="M8.99998 5.3501C9.35896 5.3501 9.64998 5.64111 9.64998 6.0001V7.3501H11C11.359 7.3501 11.65 7.64111 11.65 8.0001C11.65 8.35908 11.359 8.6501 11 8.6501H9.49998C8.86485 8.6501 8.34998 8.13523 8.34998 7.5001V6.0001C8.34998 5.64111 8.64099 5.3501 8.99998 5.3501Z" fill="#4B707D"/>
</svg>