<svg viewBox="0 0 1440 1024" fill="none" xmlns="http://www.w3.org/2000/svg">
<g clip-path="url(#clip0_595:6074)">
<rect width="1440" height="1024" fill="white"/>
<g clip-path="url(#clip1_595:6074)">
<path d="M1452.98 460.114C1451.17 461.772 1449.66 463.852 1447.52 465.02C1437.24 470.771 1426.5 475.198 1414.66 476.789C1409.02 477.556 1403.44 478.958 1397.79 479.536C1392.63 480.059 1387.4 480.471 1382.29 478.847C1382.02 478.801 1381.75 478.698 1381.51 478.544C1381.27 478.389 1381.07 478.187 1380.91 477.95C1380.76 477.713 1380.65 477.445 1380.6 477.165C1380.56 476.885 1380.57 476.598 1380.63 476.322C1380.91 472.717 1382.98 469.948 1384.86 467.144C1390.94 458.101 1398.14 450.214 1408 445.197C1404.35 443.206 1400.75 441.404 1397.3 439.346C1388.18 433.885 1382.18 425.698 1377.59 416.287C1376.5 413.903 1375.2 411.621 1373.71 409.468C1373.27 408.997 1373.02 408.385 1373 407.744C1372.98 407.103 1373.19 406.476 1373.58 405.975C1373.95 405.613 1374.38 405.328 1374.86 405.137C1375.33 404.945 1375.84 404.852 1376.35 404.863C1382.73 405.007 1389.09 405.341 1395.17 407.555C1400.11 409.346 1405.13 410.892 1410.13 412.638C1407.84 409.001 1405.3 405.475 1403.28 401.681C1390.11 373.26 1392.21 361.358 1392.74 360.78C1393.07 360.472 1393.46 360.246 1393.88 360.119C1394.31 359.991 1394.76 359.966 1395.2 360.045C1397.8 360.909 1400.35 361.961 1402.8 363.193C1415.59 369.779 1425.91 379.345 1435.25 390.168C1440.02 395.625 1443.86 401.834 1446.63 408.545C1447.1 409.98 1447.34 411.482 1447.34 412.994C1447.34 413.484 1446.74 414.007 1446.39 414.507C1445.9 414.162 1445.22 413.94 1444.94 413.473C1443.46 410.959 1442.08 408.4 1440.68 405.853C1434.39 394.407 1425.19 385.552 1415.42 377.209C1409.81 372.404 1403.39 368.889 1396.78 365.696C1396.47 365.583 1396.15 365.494 1395.83 365.429C1397.47 374.328 1399.28 383.027 1402.88 391.236C1405.25 397.096 1408.37 402.625 1412.14 407.688C1414.64 410.881 1417.67 413.695 1420.42 416.665C1421.01 417.299 1421.7 417.855 1422.23 418.545C1423.05 419.602 1423.95 420.959 1422.69 422.016C1421.66 422.894 1420.4 423.662 1418.66 422.538C1411.06 417.666 1402.61 414.674 1393.96 412.438C1389.18 411.192 1384.18 410.87 1379.26 410.147C1378.83 410.128 1378.4 410.147 1377.97 410.202C1380.8 414.796 1383.21 419.457 1386.31 423.551C1392.62 431.982 1401.21 437.444 1410.92 441.204C1411.61 441.435 1412.27 441.729 1412.91 442.083C1415.62 443.74 1415.63 446.343 1412.91 447.856C1406.87 451.137 1401.16 454.942 1396.59 460.092C1392.53 464.664 1389.01 469.714 1384.92 474.987C1390.93 475.159 1396.95 474.584 1402.82 473.274C1410.94 471.405 1419.29 470.359 1427.17 467.834C1434.06 465.609 1440.45 461.927 1447.09 458.702C1449.12 457.7 1450.89 456.477 1453 458.312L1452.98 460.114Z" fill="#FFCB68" fill-opacity="0.2"/>
<path d="M-17.9734 223.303C-15.8088 225.278 -13.9895 227.757 -11.4264 229.149C0.910833 236.002 13.8059 241.278 28.0024 243.173C34.7752 244.088 41.4684 245.758 48.2546 246.447C54.4431 247.07 60.7246 247.561 66.8467 245.626C67.1819 245.571 67.5022 245.448 67.7873 245.264C68.0725 245.08 68.3162 244.84 68.5034 244.557C68.6905 244.274 68.817 243.956 68.8748 243.622C68.9325 243.288 68.9202 242.946 68.8388 242.617C68.5068 238.322 66.0235 235.021 63.7658 231.681C56.475 220.904 47.8296 211.505 35.997 205.527C40.3795 203.154 44.6954 201.007 48.8388 198.554C59.7816 192.046 66.9796 182.29 72.4908 171.075C73.8007 168.234 75.3606 165.515 77.1521 162.949C77.6712 162.388 77.9712 161.659 77.998 160.895C78.0248 160.132 77.7766 159.384 77.2982 158.787C76.8621 158.355 76.3434 158.015 75.7731 157.788C75.2027 157.56 74.5923 157.449 73.9782 157.462C66.3288 157.634 58.6927 158.032 51.402 160.669C45.4657 162.804 39.4498 164.646 33.4472 166.727C36.1962 162.393 39.2374 158.191 41.6677 153.67C57.471 119.802 54.9477 105.618 54.3102 104.929C53.9217 104.563 53.4526 104.293 52.9406 104.141C52.4285 103.989 51.8878 103.959 51.3621 104.054C48.2342 105.083 45.1851 106.337 42.2386 107.805C26.8868 115.653 14.5098 127.053 3.30137 139.951C-2.42169 146.453 -7.03398 153.852 -10.3506 161.849C-10.9195 163.559 -11.211 165.349 -11.2139 167.152C-11.2139 167.735 -10.4835 168.358 -10.0718 168.954C-9.4742 168.543 -8.66403 168.278 -8.33203 167.721C-6.55249 164.726 -4.89251 161.677 -3.21922 158.641C4.33718 145.001 15.3729 134.45 27.0993 124.508C33.8323 118.781 41.5349 114.592 49.4631 110.788C49.8352 110.653 50.2169 110.547 50.6052 110.47C48.6397 121.074 46.4618 131.44 42.1457 141.223C39.2958 148.206 35.5602 154.795 31.0303 160.829C28.029 164.633 24.3902 167.987 21.0968 171.526C20.3929 172.281 19.5563 172.944 18.9188 173.766C17.9361 175.025 16.8603 176.643 18.3743 177.902C19.6093 178.949 21.1233 179.864 23.2083 178.525C32.3317 172.719 42.4644 169.153 52.8494 166.489C58.5865 165.004 64.5891 164.62 70.4855 163.758C71.0044 163.736 71.5242 163.758 72.0393 163.824C68.6396 169.299 65.7445 174.853 62.0261 179.731C54.4564 189.779 44.151 196.288 32.4911 200.768C31.668 201.043 30.8721 201.394 30.1139 201.815C26.8602 203.79 26.847 206.892 30.1139 208.695C37.3515 212.605 44.2041 217.139 49.6888 223.276C54.5626 228.724 58.7857 234.743 63.6994 241.026C56.48 241.232 49.2629 240.546 42.2121 238.984C32.4777 236.757 22.4512 235.511 12.9958 232.502C4.72225 229.851 -2.94038 225.464 -10.9085 221.619C-13.3387 220.426 -15.4635 218.968 -18 221.155L-17.9734 223.303Z" fill="#FFCB68" fill-opacity="0.2"/>
<path d="M-17.9734 836.303C-15.8088 838.278 -13.9895 840.757 -11.4264 842.149C0.910833 849.002 13.8059 854.278 28.0024 856.173C34.7752 857.088 41.4684 858.758 48.2546 859.447C54.4431 860.07 60.7246 860.561 66.8467 858.626C67.1819 858.571 67.5022 858.448 67.7873 858.264C68.0725 858.08 68.3162 857.84 68.5034 857.557C68.6905 857.274 68.817 856.956 68.8748 856.622C68.9325 856.288 68.9202 855.946 68.8388 855.617C68.5068 851.322 66.0235 848.021 63.7658 844.681C56.475 833.904 47.8296 824.505 35.997 818.527C40.3795 816.154 44.6954 814.007 48.8388 811.554C59.7816 805.046 66.9796 795.29 72.4908 784.075C73.8007 781.234 75.3606 778.515 77.1521 775.949C77.6712 775.388 77.9712 774.659 77.998 773.895C78.0248 773.132 77.7766 772.384 77.2982 771.787C76.8621 771.355 76.3434 771.015 75.7731 770.788C75.2027 770.56 74.5923 770.449 73.9782 770.462C66.3288 770.634 58.6927 771.032 51.402 773.669C45.4657 775.804 39.4498 777.646 33.4472 779.727C36.1962 775.393 39.2374 771.191 41.6677 766.67C57.471 732.802 54.9477 718.618 54.3102 717.929C53.9217 717.563 53.4526 717.293 52.9406 717.141C52.4285 716.989 51.8878 716.959 51.3621 717.054C48.2342 718.083 45.1851 719.337 42.2386 720.805C26.8868 728.653 14.5098 740.053 3.30137 752.951C-2.42169 759.453 -7.03398 766.852 -10.3506 774.849C-10.9195 776.559 -11.211 778.349 -11.2139 780.152C-11.2139 780.735 -10.4835 781.358 -10.0718 781.954C-9.4742 781.543 -8.66403 781.278 -8.33203 780.721C-6.55249 777.726 -4.89251 774.677 -3.21922 771.641C4.33718 758.001 15.3729 747.45 27.0993 737.508C33.8323 731.781 41.5349 727.592 49.4631 723.788C49.8352 723.653 50.2169 723.547 50.6052 723.47C48.6397 734.074 46.4618 744.44 42.1457 754.223C39.2958 761.206 35.5602 767.795 31.0303 773.829C28.029 777.633 24.3902 780.987 21.0968 784.526C20.3929 785.281 19.5563 785.944 18.9188 786.766C17.9361 788.025 16.8603 789.643 18.3743 790.902C19.6093 791.949 21.1233 792.864 23.2083 791.525C32.3317 785.719 42.4644 782.153 52.8494 779.489C58.5865 778.004 64.5891 777.62 70.4855 776.758C71.0044 776.736 71.5242 776.758 72.0393 776.824C68.6396 782.299 65.7445 787.853 62.0261 792.731C54.4564 802.779 44.151 809.288 32.4911 813.768C31.668 814.043 30.8721 814.394 30.1139 814.815C26.8602 816.79 26.847 819.892 30.1139 821.695C37.3515 825.605 44.2041 830.139 49.6888 836.276C54.5626 841.724 58.7857 847.743 63.6994 854.026C56.48 854.232 49.2629 853.546 42.2121 851.984C32.4777 849.757 22.4512 848.511 12.9958 845.502C4.72225 842.851 -2.94038 838.464 -10.9085 834.619C-13.3387 833.426 -15.4635 831.968 -18 834.155L-17.9734 836.303Z" fill="#FFCB68" fill-opacity="0.2"/>
<path d="M35.8411 699.46C27.2981 705.074 18.008 709.435 8.24923 712.412C1.82639 714.295 -4.76816 715.601 -11.3398 716.952C-12.3817 717.172 -14.2708 716.606 -14.683 715.797C-15.5531 714.168 -14.4654 712.77 -12.2443 712.146C-5.37499 710.228 1.49435 708.414 8.36369 706.45C10.4359 705.861 12.4052 704.925 14.7064 704.047C13.6706 703.056 12.6956 702.003 11.7869 700.893C5.71898 692.481 2.91406 683.181 4.40241 672.748C4.50736 672.081 4.66429 671.425 4.87179 670.783C5.79915 668.057 7.41341 667.317 9.56581 669.212C11.8659 671.252 13.8361 673.641 15.4048 676.295C19.2549 682.981 21.4174 690.519 21.7017 698.247C21.7017 699.056 21.633 699.876 21.5758 700.997C34.3184 694.503 45.9161 687.213 50.5872 672.725C39.4818 670.564 31.1241 664.637 25.8462 654.805C24.8062 652.553 24.2038 650.122 24.0716 647.641C23.8426 645.331 24.976 644.348 27.2429 644.811C33.2971 645.967 39.0333 648.426 44.0614 652.02C46.2412 653.826 48.1944 655.894 49.8774 658.178C51.1253 659.657 52.0985 661.379 53.4838 662.892C56.3117 650.587 51.8123 639.866 46.6145 629.109C38.211 634.042 29.819 633.465 21.4269 630.264C16.2062 628.277 12.554 624.187 9.02774 620.039C8.12328 618.965 9.02772 616.573 10.3672 616.053C15.0155 614.216 19.7439 612.899 24.8501 613.742C29.2236 614.447 33.6314 615.025 37.879 615.626C35.7609 612.16 33.3796 608.208 31.0096 604.291C26.2111 596.318 23.3183 587.327 22.5604 578.03C22.2741 574.413 22.9725 570.705 23.19 567.493C19.2287 565.043 14.8552 563.125 11.4664 560.075C4.78021 554.056 2.06677 546.107 2.61632 537.06C2.74225 535.165 3.76125 534.645 5.52438 535.177C10.9283 536.76 15.1529 540.226 18.6562 544.35C21.7818 548.025 24.1517 552.346 26.6705 556.101C30.918 546.338 31.3188 530.555 27.5635 519.129C24.1288 519.683 20.8087 520.411 17.4656 520.723C9.30251 521.486 3.34908 517.072 -1.99755 511.665C-3.89807 509.747 -2.61577 505.888 0.532678 505.125C4.37806 504.228 8.32297 503.839 12.2678 503.97C15.3476 504.062 18.3815 505.264 21.7131 506.05C21.5711 505.704 21.3987 505.371 21.1979 505.056C15.72 498.602 9.38638 492.941 2.37593 488.234C-1.48235 485.68 -5.85583 485.311 -10.2179 484.629C-11.6942 484.433 -13.1453 484.077 -14.5456 483.566C-15.1867 483.323 -16.0224 482.411 -15.9995 481.879C-15.963 481.412 -15.8349 480.957 -15.6226 480.541C-15.4103 480.124 -15.1182 479.754 -14.7631 479.453C-13.9142 478.985 -12.9597 478.746 -11.9924 478.76C-4.58498 478.159 1.8493 480.666 7.68824 485.056C9.1308 486.142 10.5733 487.205 12.3708 488.523C10.081 481.925 10.2642 475.421 10.3902 468.962C10.4534 461.809 12.9743 454.9 17.5228 449.413C19.2058 447.368 20.5453 447.495 21.3353 450.106C22.512 453.993 23.4562 457.948 24.1632 461.949C25.385 468.677 24.9924 475.602 23.0183 482.145C21.8734 485.992 19.8355 489.574 18.0151 493.699C28.4794 501.879 32.7957 513.756 34.5245 526.974C37.5355 523.738 40.3405 520.561 43.3287 517.557C46.8967 514.156 51.3536 511.855 56.1743 510.925C59.0594 510.267 60.7539 511.237 60.4562 514.392C59.7914 520.362 57.321 525.982 53.3808 530.486C48.9204 536.036 43.1433 540.36 36.5853 543.056C36.1273 543.305 35.7233 543.644 35.397 544.053C35.0706 544.462 34.8284 544.932 34.6847 545.437C33.2879 550.335 32.2461 555.338 30.7692 560.214C28.9946 566.072 27.0941 571.918 27.781 578.122C28.2047 582.039 29.2007 585.886 29.9334 589.768C30.2082 590.612 30.5517 590.577 30.7234 589.768C30.8723 589.11 30.9752 588.44 31.1699 587.781C33.7413 578.222 39.566 569.881 47.622 564.223C49.408 562.964 51.4688 561.265 53.7701 562.779C56.2545 564.419 55.7164 567.204 55.3958 569.642C54.553 574.78 52.7042 579.698 49.9576 584.107C47.4462 588.479 44.7179 592.721 41.783 596.816C40.329 598.85 38.1766 600.375 36.1387 602.327L54.8463 633.141C56.7124 625.851 61.3606 620.432 67.1652 615.811C69.1489 614.325 71.2966 613.077 73.5652 612.09C76.9999 610.507 79.5415 612.379 78.9233 616.192C78.501 619.018 77.6798 621.769 76.4847 624.36C73.4635 630.82 69.1161 636.559 63.7306 641.194C61.929 642.532 60.0394 643.744 58.0748 644.822C61.7728 661.159 56.1514 675.382 47.9655 689.131C49.5798 688.877 51.3086 688.542 53.0602 688.368C61.0745 687.594 68.3445 689.824 75.294 693.533C76.3912 694.111 77.3619 694.907 78.1486 695.871C78.9353 696.836 79.5219 697.95 79.8736 699.148C80.1089 700.183 80.0141 701.266 79.6029 702.244C79.1917 703.221 78.485 704.042 77.5838 704.59C72.821 707.86 67.4286 708.345 61.8873 708.379C55.8944 708.461 49.9584 707.198 44.5079 704.682C41.5261 703.103 38.6328 701.36 35.8411 699.46V699.46ZM40.558 695.89C46.7862 703.839 70.5427 704.509 75.1566 699.749C68.2071 693.29 48.1715 691.06 40.558 695.89ZM34.4901 596.816C41.5312 593.835 52.7282 575.003 52.2817 566.903C43.3744 569.896 32.3262 586.949 34.4901 596.816ZM57.3077 515.801C56.9954 515.773 56.6812 515.773 56.3689 515.801C46.5916 518.378 36.425 527.909 35.074 537.811C35.2801 537.892 52.5793 532.115 57.3077 515.789V515.801ZM43.924 625.342C35.5663 619.635 19.0112 616.85 13.9622 620.247C22.3543 629.294 37.1004 629.525 43.924 625.331V625.342ZM50.1636 667.595C47.0266 659.322 35.0282 650.033 27.3918 649.964C31.5935 659.322 41.8632 667.167 50.1636 667.595ZM23.3389 561.97C21.3353 551.907 11.5122 542.086 5.02063 540.11C7.36765 550.601 12.5769 558.492 23.2931 561.97H23.3389ZM16.1604 486.709C22.4458 476.472 21.072 465.704 18.5303 454.855C12.9547 465.103 13.9164 475.871 16.1604 486.709ZM57.823 639.461C64.6923 636.838 75.4428 622.72 75.2711 616.619C65.6197 620.432 57.9489 630.831 57.823 639.461V639.461ZM18.1067 701.759C18.1754 691.361 12.8974 677.577 7.13865 672.967C5.77623 684.348 11.7869 697.334 18.1067 701.759ZM2.07825 509.758C7.96299 516.309 19.8699 517.453 25.6401 512.855C17.9121 510.325 10.3444 507.621 2.07825 509.758Z" fill="#83C3C0" fill-opacity="0.2"/>
<path d="M1403.62 342.395C1412.25 348.03 1421.64 352.407 1431.5 355.395C1437.99 357.285 1444.65 358.595 1451.29 359.952C1452.34 360.173 1454.25 359.604 1454.67 358.793C1455.55 357.157 1454.45 355.754 1452.21 355.128C1445.26 353.203 1438.32 351.382 1431.38 349.411C1429.29 348.819 1427.3 347.88 1424.97 346.999C1426.02 346.005 1427.01 344.947 1427.92 343.833C1434.05 335.39 1436.89 326.055 1435.39 315.583C1435.28 314.914 1435.12 314.255 1434.91 313.612C1433.97 310.875 1432.34 310.133 1430.17 312.035C1427.84 314.081 1425.85 316.48 1424.27 319.143C1420.38 325.854 1418.19 333.421 1417.91 341.177C1417.91 341.989 1417.97 342.812 1418.03 343.937C1405.16 337.42 1393.44 330.102 1388.72 315.56C1399.94 313.391 1408.38 307.442 1413.72 297.573C1414.77 295.314 1415.38 292.873 1415.51 290.383C1415.74 288.064 1414.6 287.078 1412.31 287.542C1406.19 288.703 1400.39 291.171 1395.31 294.779C1393.11 296.591 1391.14 298.667 1389.44 300.96C1388.18 302.444 1387.19 304.172 1385.79 305.691C1382.94 293.341 1387.48 282.579 1392.73 271.782C1401.22 276.734 1409.7 276.154 1418.18 272.942C1423.46 270.947 1427.15 266.842 1430.71 262.679C1431.63 261.6 1430.71 259.2 1429.36 258.678C1424.66 256.834 1419.88 255.512 1414.72 256.359C1410.31 257.066 1405.85 257.646 1401.56 258.249C1403.7 254.77 1406.11 250.804 1408.5 246.872C1413.35 238.87 1416.27 229.845 1417.04 220.513C1417.33 216.883 1416.62 213.161 1416.4 209.937C1420.4 207.478 1424.82 205.553 1428.25 202.492C1435 196.45 1437.75 188.471 1437.19 179.391C1437.06 177.489 1436.03 176.967 1434.25 177.501C1428.79 179.09 1424.52 182.569 1420.98 186.709C1417.82 190.396 1415.43 194.734 1412.89 198.503C1408.59 188.703 1408.19 172.862 1411.98 161.393C1415.45 161.95 1418.81 162.68 1422.19 162.993C1430.43 163.759 1436.45 159.329 1441.85 153.901C1443.77 151.976 1442.48 148.103 1439.3 147.338C1435.41 146.437 1431.42 146.047 1427.44 146.178C1424.33 146.271 1421.26 147.477 1417.89 148.265C1418.04 147.918 1418.21 147.584 1418.41 147.268C1423.95 140.79 1430.35 135.108 1437.43 130.383C1441.33 127.82 1445.75 127.449 1450.16 126.765C1451.65 126.569 1453.12 126.211 1454.53 125.698C1455.18 125.455 1456.02 124.539 1456 124.005C1455.96 123.536 1455.83 123.08 1455.62 122.662C1455.4 122.244 1455.11 121.873 1454.75 121.57C1453.89 121.1 1452.93 120.86 1451.95 120.874C1444.47 120.271 1437.96 122.787 1432.07 127.194C1430.61 128.284 1429.15 129.351 1427.33 130.673C1429.65 124.051 1429.46 117.523 1429.33 111.04C1429.27 103.86 1426.72 96.9252 1422.13 91.4183C1420.43 89.3657 1419.07 89.4932 1418.28 92.1141C1417.09 96.0154 1416.13 99.9847 1415.42 104.001C1414.18 110.753 1414.58 117.704 1416.58 124.272C1417.73 128.134 1419.79 131.729 1421.63 135.869C1411.06 144.079 1406.7 156 1404.95 169.267C1401.91 166.02 1399.07 162.831 1396.05 159.816C1392.45 156.402 1387.94 154.093 1383.07 153.159C1380.16 152.498 1378.45 153.472 1378.75 156.638C1379.42 162.631 1381.92 168.272 1385.9 172.793C1390.4 178.364 1396.24 182.704 1402.87 185.41C1403.33 185.66 1403.74 186 1404.07 186.41C1404.4 186.82 1404.64 187.292 1404.79 187.799C1406.2 192.716 1407.25 197.737 1408.74 202.631C1410.54 208.51 1412.46 214.378 1411.76 220.606C1411.33 224.537 1410.33 228.399 1409.59 232.295C1409.31 233.142 1408.96 233.107 1408.79 232.295C1408.64 231.634 1408.54 230.962 1408.34 230.301C1405.74 220.706 1399.86 212.335 1391.72 206.655C1389.91 205.391 1387.83 203.686 1385.5 205.205C1382.99 206.852 1383.54 209.647 1383.86 212.094C1384.71 217.251 1386.58 222.187 1389.36 226.613C1391.89 231.002 1394.65 235.259 1397.62 239.369C1399.08 241.41 1401.26 242.941 1403.32 244.901L1384.42 275.83C1382.53 268.512 1377.83 263.073 1371.97 258.434C1369.96 256.943 1367.79 255.69 1365.5 254.7C1362.03 253.112 1359.46 254.99 1360.09 258.817C1360.51 261.654 1361.34 264.415 1362.55 267.016C1365.6 273.5 1370 279.26 1375.44 283.912C1377.26 285.255 1379.17 286.471 1381.15 287.554C1377.42 303.952 1383.1 318.227 1391.37 332.027C1389.74 331.772 1387.99 331.436 1386.22 331.262C1378.12 330.485 1370.78 332.723 1363.76 336.446C1362.65 337.026 1361.67 337.825 1360.87 338.793C1360.08 339.761 1359.48 340.879 1359.13 342.082C1358.89 343.12 1358.99 344.208 1359.4 345.189C1359.82 346.17 1360.53 346.994 1361.44 347.544C1366.25 350.826 1371.7 351.313 1377.3 351.347C1383.36 351.429 1389.35 350.161 1394.86 347.637C1397.87 346.052 1400.8 344.302 1403.62 342.395V342.395ZM1398.85 338.811C1392.56 346.79 1368.56 347.463 1363.89 342.685C1370.92 336.202 1391.16 333.964 1398.85 338.811ZM1404.98 239.369C1397.87 236.377 1386.56 217.475 1387.01 209.345C1396.01 212.349 1407.17 229.466 1404.98 239.369ZM1381.93 158.053C1382.24 158.025 1382.56 158.025 1382.88 158.053C1392.76 160.639 1403.03 170.206 1404.39 180.145C1404.19 180.226 1386.71 174.428 1381.93 158.042V158.053ZM1395.45 268.002C1403.9 262.273 1420.62 259.478 1425.73 262.888C1417.25 271.968 1402.35 272.2 1395.45 267.99V268.002ZM1389.15 310.411C1392.32 302.108 1404.44 292.784 1412.16 292.714C1407.91 302.108 1397.53 309.982 1389.15 310.411ZM1416.25 204.394C1418.28 194.293 1428.2 184.436 1434.76 182.453C1432.39 192.982 1427.13 200.903 1416.3 204.394H1416.25ZM1423.5 128.853C1417.15 118.578 1418.54 107.77 1421.11 96.8803C1426.74 107.167 1425.77 117.975 1423.5 128.853ZM1381.41 282.173C1374.47 279.54 1363.6 265.369 1363.78 259.246C1373.53 263.073 1381.28 273.51 1381.41 282.173V282.173ZM1421.54 344.703C1421.47 334.265 1426.8 320.431 1432.62 315.803C1434 327.226 1427.92 340.261 1421.54 344.703ZM1437.73 151.988C1431.79 158.563 1419.76 159.711 1413.93 155.096C1421.73 152.556 1429.38 149.843 1437.73 151.988Z" fill="#83C3C0" fill-opacity="0.2"/>
<path d="M1409.22 1004.7C1418.74 1010.88 1429.1 1015.68 1439.97 1018.95C1447.13 1021.02 1454.48 1022.46 1461.81 1023.95C1462.97 1024.19 1465.07 1023.57 1465.53 1022.68C1466.5 1020.88 1465.29 1019.35 1462.81 1018.66C1455.16 1016.55 1447.5 1014.55 1439.84 1012.39C1437.53 1011.74 1435.34 1010.71 1432.78 1009.75C1433.93 1008.66 1435.02 1007.5 1436.03 1006.28C1442.79 997.021 1445.92 986.786 1444.26 975.306C1444.14 974.573 1443.97 973.85 1443.74 973.145C1442.7 970.144 1440.9 969.331 1438.5 971.416C1435.94 973.66 1433.75 976.289 1432 979.209C1427.71 986.566 1425.3 994.861 1424.98 1003.36C1424.98 1004.25 1425.05 1005.16 1425.12 1006.39C1410.92 999.245 1397.99 991.223 1392.78 975.281C1405.16 972.903 1414.48 966.381 1420.36 955.562C1421.52 953.085 1422.19 950.409 1422.34 947.68C1422.59 945.137 1421.33 944.056 1418.8 944.565C1412.05 945.837 1405.66 948.543 1400.06 952.498C1397.63 954.485 1395.45 956.761 1393.57 959.274C1392.18 960.902 1391.1 962.796 1389.55 964.461C1386.4 950.922 1391.42 939.123 1397.21 927.287C1406.58 932.716 1415.93 932.08 1425.28 928.559C1431.1 926.372 1435.17 921.871 1439.1 917.307C1440.11 916.125 1439.1 913.493 1437.61 912.921C1432.43 910.9 1427.16 909.45 1421.47 910.378C1416.59 911.154 1411.68 911.79 1406.95 912.451C1409.31 908.637 1411.96 904.289 1414.6 899.979C1419.95 891.205 1423.18 881.311 1424.02 871.081C1424.34 867.102 1423.56 863.021 1423.32 859.486C1427.73 856.791 1432.61 854.681 1436.39 851.324C1443.84 844.701 1446.86 835.954 1446.25 825.999C1446.11 823.914 1444.97 823.342 1443.01 823.927C1436.99 825.669 1432.28 829.483 1428.37 834.021C1424.89 838.064 1422.25 842.819 1419.44 846.951C1414.71 836.208 1414.26 818.841 1418.44 806.268C1422.27 806.878 1425.97 807.679 1429.7 808.022C1438.8 808.861 1445.43 804.005 1451.39 798.055C1453.51 795.945 1452.08 791.698 1448.57 790.859C1444.29 789.871 1439.89 789.444 1435.49 789.588C1432.06 789.69 1428.68 791.012 1424.97 791.876C1425.12 791.495 1425.32 791.129 1425.54 790.783C1431.65 783.681 1438.7 777.452 1446.52 772.272C1450.82 769.462 1455.69 769.056 1460.56 768.305C1462.2 768.09 1463.82 767.698 1465.38 767.136C1466.09 766.869 1467.03 765.864 1467 765.28C1466.96 764.766 1466.82 764.265 1466.58 763.807C1466.34 763.349 1466.02 762.942 1465.62 762.61C1464.68 762.095 1463.61 761.832 1462.53 761.847C1454.28 761.186 1447.11 763.945 1440.6 768.776C1438.99 769.971 1437.38 771.141 1435.38 772.59C1437.93 765.331 1437.73 758.173 1437.59 751.066C1437.52 743.195 1434.71 735.592 1429.64 729.555C1427.76 727.305 1426.27 727.444 1425.39 730.318C1424.08 734.595 1423.02 738.946 1422.23 743.349C1420.87 750.752 1421.31 758.372 1423.51 765.572C1424.79 769.806 1427.06 773.747 1429.09 778.286C1417.42 787.287 1412.61 800.356 1410.69 814.9C1407.33 811.34 1404.2 807.844 1400.87 804.539C1396.9 800.797 1391.93 798.265 1386.56 797.241C1383.34 796.517 1381.45 797.585 1381.78 801.055C1382.52 807.625 1385.28 813.809 1389.67 818.765C1394.64 824.873 1401.08 829.631 1408.39 832.597C1408.9 832.871 1409.35 833.244 1409.71 833.694C1410.08 834.144 1410.35 834.661 1410.51 835.216C1412.06 840.607 1413.23 846.112 1414.87 851.477C1416.85 857.923 1418.97 864.356 1418.2 871.183C1417.73 875.493 1416.62 879.726 1415.8 883.998C1415.5 884.926 1415.11 884.888 1414.92 883.998C1414.76 883.273 1414.64 882.536 1414.43 881.811C1411.56 871.292 1405.07 862.115 1396.09 855.888C1394.1 854.503 1391.8 852.634 1389.24 854.299C1386.47 856.105 1387.07 859.169 1387.42 861.851C1388.36 867.505 1390.42 872.916 1393.48 877.768C1396.28 882.58 1399.32 887.247 1402.6 891.753C1404.22 893.991 1406.62 895.669 1408.89 897.817L1388.04 931.724C1385.96 923.702 1380.78 917.739 1374.31 912.654C1372.09 911.019 1369.7 909.646 1367.17 908.56C1363.34 906.819 1360.51 908.878 1361.2 913.074C1361.67 916.184 1362.59 919.211 1363.92 922.062C1367.29 929.17 1372.13 935.485 1378.13 940.586C1380.14 942.057 1382.25 943.391 1384.44 944.578C1380.32 962.554 1386.58 978.205 1395.71 993.334C1393.91 993.054 1391.98 992.685 1390.03 992.495C1381.09 991.643 1372.99 994.096 1365.25 998.177C1364.02 998.814 1362.94 999.689 1362.06 1000.75C1361.19 1001.81 1360.53 1003.04 1360.14 1004.36C1359.88 1005.49 1359.98 1006.69 1360.44 1007.76C1360.9 1008.84 1361.69 1009.74 1362.69 1010.34C1368 1013.94 1374.01 1014.48 1380.19 1014.51C1386.87 1014.6 1393.48 1013.21 1399.56 1010.45C1402.88 1008.71 1406.11 1006.79 1409.22 1004.7V1004.7ZM1403.96 1000.77C1397.02 1009.52 1370.54 1010.26 1365.4 1005.02C1373.14 997.91 1395.48 995.457 1403.96 1000.77ZM1410.72 891.753C1402.88 888.473 1390.4 867.75 1390.89 858.838C1400.82 862.131 1413.14 880.896 1410.72 891.753ZM1385.29 802.606C1385.64 802.575 1385.99 802.575 1386.34 802.606C1397.24 805.441 1408.57 815.93 1410.07 826.825C1409.84 826.914 1390.56 820.558 1385.29 802.594V802.606ZM1400.21 923.143C1409.53 916.862 1427.98 913.798 1433.6 917.536C1424.25 927.491 1407.82 927.745 1400.21 923.13V923.143ZM1393.26 969.636C1396.75 960.533 1410.12 950.311 1418.64 950.235C1413.95 960.533 1402.51 969.165 1393.26 969.636ZM1423.15 853.409C1425.39 842.336 1436.34 831.529 1443.57 829.355C1440.95 840.899 1435.15 849.583 1423.2 853.409H1423.15ZM1431.15 770.594C1424.15 759.33 1425.68 747.481 1428.51 735.543C1434.73 746.82 1433.66 758.669 1431.15 770.594ZM1384.72 938.678C1377.06 935.793 1365.08 920.257 1365.27 913.544C1376.03 917.739 1384.58 929.182 1384.72 938.678V938.678ZM1428.99 1007.23C1428.91 995.787 1434.79 980.62 1441.21 975.548C1442.73 988.07 1436.03 1002.36 1428.99 1007.23ZM1446.85 795.957C1440.29 803.166 1427.02 804.424 1420.59 799.364C1429.2 796.58 1437.64 793.605 1446.85 795.957Z" fill="#83C3C0" fill-opacity="0.2"/>
<path d="M65.9908 333.97C65.9908 331.26 64.6803 330.612 62.0834 331.2C51.0732 333.761 40.4775 337.875 30.6103 343.419C22.4263 347.94 14.3973 352.773 6.45154 357.714C0.0902087 361.671 -6.4379 365.52 -11.4174 371.3C-13.7706 374.18 -15.9278 377.217 -17.8741 380.39C-18.2195 380.93 -17.7549 381.997 -17.6596 382.789C-16.7992 382.684 -15.9664 382.415 -15.2056 381.997C-13.6451 380.606 -12.2871 378.987 -10.4406 376.984C-10.4406 381.841 -10.4406 385.918 -10.4406 390.008C-10.524 396.003 -10.8337 401.915 -10.7026 407.863C-10.6286 409.212 -11.0529 410.54 -11.8939 411.593C-13.3343 413.617 -14.6511 415.727 -15.837 417.913C-16.0633 418.32 -15.5749 419.112 -15.4201 419.759C-14.8439 419.689 -14.2861 419.51 -13.7761 419.232C-13.0982 418.583 -12.4765 417.876 -11.9178 417.121L-11.7986 417.913L16.7917 422.218C13.1107 425.947 10.1206 429.269 6.83268 432.255C2.67518 436.056 -1.75627 439.558 -6.00908 443.263C-7.34329 444.462 -9.08257 445.482 -8.65371 448C-8.01769 447.987 -7.38722 447.878 -6.78342 447.676C-3.81718 446.153 -0.624609 444.918 1.99617 442.88C16.3985 432.003 27.8347 418.116 38.7347 403.834C46.6645 393.209 53.1729 381.582 58.0927 369.25C61.0947 361.959 64.5255 354.8 65.3594 346.837C65.8373 342.565 66.0482 338.268 65.9908 333.97V333.97ZM35.4587 346.369L55.3647 337.975V338.287L35.4587 358.853V346.369ZM16.3985 357.462L31.8849 348.312C31.8849 353.109 31.8849 357.402 31.8849 361.671C31.8237 362.131 31.6046 362.555 31.2655 362.87C26.6831 367.803 22.0888 372.715 17.4826 377.608C17.28 377.824 17.03 378.016 16.4343 378.555L16.3985 357.462ZM-6.35451 373.183C-1.39887 369.554 3.59245 365.956 8.61958 362.39C9.92996 361.479 11.3714 360.748 12.7533 359.992L13.4919 360.256C13.063 367.607 12.658 374.958 12.1696 382.297C12.0836 383.052 11.7576 383.758 11.2404 384.311C5.48657 390.547 -0.326744 396.735 -6.06862 402.899C-6.24731 398.102 -6.42605 392.922 -6.64048 387.777C-6.83108 383.544 -7.11692 379.323 -7.24796 375.09C-7.24165 374.726 -7.15877 374.368 -7.00475 374.04C-6.85073 373.711 -6.62907 373.419 -6.35451 373.183V373.183ZM32.3496 403.63C28.8592 407.971 25.2615 412.204 21.7711 416.545C21.4286 417.088 20.9213 417.505 20.3246 417.734C19.7279 417.963 19.0738 417.992 18.4594 417.817C10.8115 416.498 3.19938 414.771 -4.66294 415.226C-6.10349 415.191 -7.53835 415.03 -8.95153 414.747L1.61503 401.328L2.06764 400.776C4.8671 397.49 7.44023 394.78 12.789 395.668C19.2099 396.699 25.8929 396.159 32.433 396.375C33.8982 396.375 35.3634 396.747 37.2695 397.011C35.5421 399.325 34.0292 401.544 32.3496 403.63ZM40.9743 391.219C40.7951 391.404 40.5798 391.549 40.3419 391.646C40.1041 391.743 39.8489 391.79 39.5924 391.782C30.5388 391.782 21.4852 391.726 12.4316 391.614C12.1189 391.559 11.812 391.474 11.5144 391.363L18.9955 383.088C20.6741 381.351 22.2645 379.53 23.7605 377.632C24.2819 376.815 25.0319 376.172 25.916 375.783C26.8 375.395 27.7785 375.279 28.7281 375.449C33.6122 375.809 38.5322 375.557 43.4402 375.557H49.3965L49.9683 376.145C47.0497 381.182 44.0477 386.218 40.9743 391.219V391.219ZM52.6605 369.466C52.5314 369.715 52.3491 369.932 52.1266 370.102C51.9042 370.272 51.6472 370.391 51.374 370.449C44.9054 370.785 38.4488 371.049 31.9803 371.312L60.5705 340.134C61.1662 351.07 56.9014 360.268 52.6605 369.466V369.466Z" fill="#FFCB68" fill-opacity="0.2"/>
<path d="M65.9908 946.97C65.9908 944.26 64.6803 943.612 62.0834 944.2C51.0732 946.761 40.4775 950.875 30.6103 956.419C22.4263 960.94 14.3973 965.773 6.45154 970.714C0.0902087 974.671 -6.4379 978.52 -11.4174 984.3C-13.7706 987.18 -15.9278 990.217 -17.8741 993.39C-18.2195 993.93 -17.7549 994.997 -17.6596 995.789C-16.7992 995.684 -15.9664 995.415 -15.2056 994.997C-13.6451 993.606 -12.2871 991.987 -10.4406 989.984C-10.4406 994.841 -10.4406 998.918 -10.4406 1003.01C-10.524 1009 -10.8337 1014.92 -10.7026 1020.86C-10.6286 1022.21 -11.0529 1023.54 -11.8939 1024.59C-13.3343 1026.62 -14.6511 1028.73 -15.837 1030.91C-16.0633 1031.32 -15.5749 1032.11 -15.4201 1032.76C-14.8439 1032.69 -14.2861 1032.51 -13.7761 1032.23C-13.0982 1031.58 -12.4765 1030.88 -11.9178 1030.12L-11.7986 1030.91L16.7917 1035.22C13.1107 1038.95 10.1206 1042.27 6.83268 1045.25C2.67518 1049.06 -1.75627 1052.56 -6.00908 1056.26C-7.34329 1057.46 -9.08257 1058.48 -8.65371 1061C-8.01769 1060.99 -7.38722 1060.88 -6.78342 1060.68C-3.81718 1059.15 -0.624609 1057.92 1.99617 1055.88C16.3985 1045 27.8347 1031.12 38.7347 1016.83C46.6645 1006.21 53.1729 994.582 58.0927 982.25C61.0947 974.959 64.5255 967.8 65.3594 959.837C65.8373 955.565 66.0482 951.268 65.9908 946.97V946.97ZM35.4587 959.369L55.3647 950.975V951.287L35.4587 971.853V959.369ZM16.3985 970.462L31.8849 961.312C31.8849 966.109 31.8849 970.402 31.8849 974.671C31.8237 975.131 31.6046 975.555 31.2655 975.87C26.6831 980.803 22.0888 985.715 17.4826 990.608C17.28 990.824 17.03 991.016 16.4343 991.555L16.3985 970.462ZM-6.35451 986.183C-1.39887 982.554 3.59245 978.956 8.61958 975.39C9.92996 974.479 11.3714 973.748 12.7533 972.992L13.4919 973.256C13.063 980.607 12.658 987.958 12.1696 995.297C12.0836 996.052 11.7576 996.758 11.2404 997.311C5.48657 1003.55 -0.326744 1009.73 -6.06862 1015.9C-6.24731 1011.1 -6.42605 1005.92 -6.64048 1000.78C-6.83108 996.544 -7.11692 992.323 -7.24796 988.09C-7.24165 987.726 -7.15877 987.368 -7.00475 987.04C-6.85073 986.711 -6.62907 986.419 -6.35451 986.183V986.183ZM32.3496 1016.63C28.8592 1020.97 25.2615 1025.2 21.7711 1029.55C21.4286 1030.09 20.9213 1030.5 20.3246 1030.73C19.7279 1030.96 19.0738 1030.99 18.4594 1030.82C10.8115 1029.5 3.19938 1027.77 -4.66294 1028.23C-6.10349 1028.19 -7.53835 1028.03 -8.95153 1027.75L1.61503 1014.33L2.06764 1013.78C4.8671 1010.49 7.44023 1007.78 12.789 1008.67C19.2099 1009.7 25.8929 1009.16 32.433 1009.38C33.8982 1009.38 35.3634 1009.75 37.2695 1010.01C35.5421 1012.33 34.0292 1014.54 32.3496 1016.63ZM40.9743 1004.22C40.7951 1004.4 40.5798 1004.55 40.3419 1004.65C40.1041 1004.74 39.8489 1004.79 39.5924 1004.78C30.5388 1004.78 21.4852 1004.73 12.4316 1004.61C12.1189 1004.56 11.812 1004.47 11.5144 1004.36L18.9955 996.088C20.6741 994.351 22.2645 992.53 23.7605 990.632C24.2819 989.815 25.0319 989.172 25.916 988.783C26.8 988.395 27.7785 988.279 28.7281 988.449C33.6122 988.809 38.5322 988.557 43.4402 988.557H49.3965L49.9683 989.145C47.0497 994.182 44.0477 999.218 40.9743 1004.22V1004.22ZM52.6605 982.466C52.5314 982.715 52.3491 982.932 52.1266 983.102C51.9042 983.272 51.6472 983.391 51.374 983.449C44.9054 983.785 38.4488 984.049 31.9803 984.312L60.5705 953.134C61.1662 964.07 56.9014 973.268 52.6605 982.466V982.466Z" fill="#FFCB68" fill-opacity="0.2"/>
<path d="M1423.45 656.457C1423.92 660.979 1424.41 665.415 1424.81 669.852C1425.22 674.288 1425.54 678.767 1425.96 683.214C1425.96 683.939 1426.2 684.644 1426.63 685.224C1433.23 691.574 1439.89 697.859 1446.53 704.167C1447.09 704.688 1447.62 705.252 1448.09 705.856C1449.09 707.16 1449.5 708.859 1448.09 709.725C1447.48 709.938 1446.82 710 1446.18 709.905C1445.53 709.81 1444.92 709.562 1444.39 709.18C1440.74 706.048 1437.21 702.766 1433.86 699.271C1433.3 698.538 1432.49 698.051 1431.58 697.911C1430.68 697.772 1429.76 697.991 1429.01 698.522C1425.27 700.511 1421.47 702.392 1417.69 704.306C1416.89 704.712 1416.05 705.022 1414.71 705.599C1417.82 708.314 1420.57 710.944 1423.54 713.274C1429 717.732 1435.32 721.008 1442.11 722.895C1443.03 723.179 1443.86 723.711 1444.51 724.435C1444.83 724.697 1445.05 725.05 1445.16 725.446C1445.27 725.842 1445.26 726.263 1445.12 726.651C1444.99 727.039 1444.74 727.376 1444.41 727.617C1444.07 727.857 1443.68 727.989 1443.27 727.995C1441.68 728.041 1440.1 727.791 1438.6 727.257C1427.81 723.64 1418.23 717.064 1410.96 708.272C1396.31 691.168 1384.86 672.107 1378.96 650.065C1378.11 646.608 1377.47 643.102 1377.05 639.567C1376.71 637.183 1378.27 635.59 1380.43 636.093C1389.27 638.113 1398.35 639.514 1406.87 642.507C1420.6 647.339 1432.76 655.046 1442.34 666.324C1443.82 668.17 1445.05 670.208 1445.99 672.385C1446.33 673.134 1445.68 674.352 1445.48 675.357C1444.41 675.111 1443.26 675.133 1442.49 674.545C1441.72 673.957 1441.3 672.695 1440.64 671.797C1436.08 665.839 1430.53 660.721 1424.23 656.671C1423.98 656.567 1423.72 656.495 1423.45 656.457V656.457ZM1427.35 693.573C1427.24 693.315 1427.1 693.071 1426.93 692.846C1421.88 687.715 1416.86 682.562 1411.74 677.506C1411.4 677.237 1411 677.044 1410.58 676.939C1410.16 676.834 1409.73 676.819 1409.3 676.896C1404.98 677.773 1400.7 678.821 1395.87 679.922L1411.35 701.975L1427.35 693.573ZM1404.31 646.334C1404.55 648.985 1404.89 651.326 1404.92 653.678C1404.92 656.585 1403.86 659.814 1404.84 662.305C1405.81 664.795 1408.67 666.581 1410.68 668.719C1414.15 672.417 1417.58 676.202 1421.31 680.146C1421.31 679.184 1421.31 678.65 1421.31 678.115C1420.78 670.376 1420.25 662.625 1419.64 654.896C1419.57 654.525 1419.43 654.172 1419.21 653.861C1419 653.55 1418.72 653.287 1418.4 653.09C1414.86 651.155 1411.27 649.338 1407.66 647.542C1406.57 647.078 1405.45 646.674 1404.31 646.334V646.334ZM1381.46 646.334C1382.05 648.237 1382.52 650.129 1383.24 651.893C1386.43 659.376 1389.68 666.83 1392.98 674.256C1393.24 674.823 1394.13 675.624 1394.55 675.517C1398.6 674.523 1402.61 673.379 1406.92 672.161L1381.46 646.334ZM1399.63 659.033C1400.18 659.568 1401.02 659.408 1400.98 658.093C1400.79 654.073 1400.63 650.065 1400.35 646.056C1400.27 645.787 1400.12 645.541 1399.92 645.339C1399.73 645.136 1399.49 644.983 1399.22 644.891C1394 643.544 1388.76 642.272 1383.53 640.978C1382.65 640.796 1382.14 641.342 1382.81 641.929C1388.41 647.609 1394.02 653.296 1399.63 658.991V659.033Z" fill="#FFCB68" fill-opacity="0.2"/>
<path d="M1415.7 554.209C1414.08 552.212 1412.52 550.436 1411.14 548.516C1409.33 546.095 1407.66 543.568 1406.15 540.947C1405.79 539.831 1405.84 538.619 1406.29 537.538C1408.25 531.505 1411.3 525.893 1415.28 520.987C1420.42 514.886 1425.1 508.365 1430.26 502.341C1432 500.333 1436.03 498.413 1438.49 497.166C1438.94 496.975 1439.44 496.948 1439.9 497.089C1440.37 497.23 1440.77 497.53 1441.04 497.939C1441.48 498.821 1440.74 499.847 1439.95 500.311C1436.57 502.517 1431.91 505.309 1430.14 507.891L1447.8 526.968C1448.14 527.332 1448.73 527.652 1448.8 528.071C1448.95 528.976 1449.19 530.2 1448.74 530.796C1448.38 531.059 1447.97 531.235 1447.53 531.312C1447.1 531.388 1446.65 531.363 1446.22 531.238C1445.36 530.869 1444.61 530.284 1444.04 529.538C1438.46 523.624 1432.91 517.688 1427.13 511.521L1418.4 523.15C1418.63 523.448 1418.77 523.68 1418.96 523.878C1424.15 529.263 1429.27 534.702 1434.54 540.02C1438.13 543.65 1441.92 547.082 1445.57 550.645C1446.2 551.217 1446.68 551.942 1446.96 552.753C1447.03 553.084 1447.03 553.426 1446.95 553.756C1446.88 554.085 1446.73 554.394 1446.53 554.662C1446.29 554.848 1446.01 554.971 1445.72 555.019C1445.42 555.067 1445.12 555.039 1444.84 554.937C1443.6 554.396 1442.45 553.651 1441.45 552.731C1435.33 546.442 1429.29 540.086 1423.23 533.731C1420.94 531.337 1418.7 528.909 1416.17 526.217C1415.36 527.205 1414.6 528.236 1413.91 529.307C1412.91 530.972 1412.02 532.696 1411.24 534.47C1410.51 535.828 1410.2 537.375 1410.35 538.911C1410.51 540.447 1411.11 541.902 1412.09 543.087C1414.75 546.298 1417.24 549.652 1419.85 552.918C1421.89 555.478 1421.72 556.703 1418.85 558.435C1420.54 559.88 1422.25 561.238 1423.87 562.716C1430.48 568.777 1437.08 574.853 1443.67 580.943C1444.09 581.33 1444.76 581.716 1444.76 582.179C1444.87 583.316 1444.89 584.459 1444.83 585.599C1443.74 585.639 1442.64 585.609 1441.56 585.511C1441.13 585.511 1440.76 584.926 1440.38 584.606C1433.27 578.553 1426.51 572.084 1420.15 565.232C1418.67 563.772 1417.08 562.429 1415.4 561.215C1415.14 561.1 1414.85 561.048 1414.56 561.061C1414.28 561.074 1414 561.154 1413.74 561.293C1411.56 562.584 1409.32 563.93 1407.2 565.386C1406.94 565.595 1406.73 565.855 1406.58 566.149C1406.43 566.443 1406.33 566.765 1406.31 567.096C1406.14 570.064 1406.1 573.032 1406.08 576C1406.08 576.48 1406.27 576.94 1406.6 577.28C1416.03 585.798 1429.36 599.855 1439.52 607.6C1441.11 608.927 1442.5 610.485 1443.64 612.223C1443.82 612.616 1443.91 613.047 1443.89 613.481C1443.88 613.914 1443.76 614.338 1443.55 614.717C1443.27 615.147 1442.04 615.103 1441.27 614.971C1440.58 614.806 1439.94 614.464 1439.42 613.978C1430.51 606.364 1416.87 594.117 1409.03 585.357C1408.21 584.354 1407.25 583.48 1406.17 582.764C1406.41 584.987 1406.75 587.196 1407.21 589.384C1408.63 594.901 1409.65 600.704 1411.92 605.934C1413.93 610.524 1417.19 614.617 1420.29 618.634C1424.77 624.437 1431.07 627.714 1437.74 630.406C1438.15 630.535 1438.54 630.693 1438.93 630.881C1440.26 631.686 1441.56 632.602 1440.82 634.467C1440.09 636.331 1438.46 636.221 1437.21 635.57C1432.36 633.154 1427.18 631.157 1422.93 627.847C1416.71 623.025 1411.73 616.752 1408.42 609.564C1405.75 603.498 1403.92 597.091 1402.97 590.52C1401.44 581.542 1401.72 572.345 1403.79 563.477C1404.18 562.202 1404.98 561.096 1406.07 560.333C1409.2 558.203 1412.39 556.317 1415.7 554.209Z" fill="#83C3C0" fill-opacity="0.2"/>
<path d="M25.3037 45.2092C26.9179 43.2122 28.4775 41.4358 29.8627 39.5159C31.6711 37.0953 33.3354 34.5679 34.8468 31.947C35.212 30.8311 35.1617 29.6186 34.7052 28.5376C32.7496 22.505 29.7021 16.8928 25.7182 11.9874C20.5812 5.88591 15.9024 -0.634872 10.7436 -6.65915C8.99862 -8.66724 4.97422 -10.5871 2.50937 -11.8339C2.06148 -12.0247 1.5619 -12.052 1.09627 -11.9111C0.630645 -11.7702 0.227869 -11.4698 -0.0428322 -11.0615C-0.47909 -10.1788 0.262548 -9.15271 1.04781 -8.6893C4.42881 -6.48261 9.08585 -3.69115 10.8636 -1.10931L-6.80477 17.9676C-7.14287 18.3317 -7.73185 18.6516 -7.79729 19.0709C-7.94998 19.9757 -8.18987 21.2004 -7.74271 21.7962C-7.38363 22.0588 -6.97003 22.2351 -6.53344 22.3116C-6.09685 22.388 -5.64885 22.3627 -5.22339 22.2375C-4.36461 21.8692 -3.61358 21.2842 -3.0421 20.5384C2.54199 14.6244 8.09338 8.68842 13.8738 2.52071L22.5989 14.15C22.3699 14.4479 22.2281 14.6796 22.0427 14.8782C16.8512 20.2626 11.7253 25.702 6.45749 31.0202C2.86928 34.6502 -0.915241 38.0816 -4.5689 41.6454C-5.20271 42.2173 -5.68302 42.9423 -5.96495 43.7528C-6.03297 44.084 -6.02922 44.4261 -5.9539 44.7556C-5.87859 45.0852 -5.73348 45.3943 -5.52867 45.6616C-5.29263 45.8478 -5.01393 45.9708 -4.71841 46.019C-4.42289 46.0672 -4.1202 46.0392 -3.83825 45.9374C-2.59505 45.3962 -1.44895 44.6505 -0.446365 43.7307C5.67214 37.4417 11.7144 31.0864 17.7675 24.7311C20.0578 22.3368 22.3045 19.9095 24.8348 17.2173C25.6425 18.2047 26.3961 19.236 27.0924 20.3067C28.0852 21.9718 28.9776 23.6962 29.7645 25.4703C30.4902 26.8282 30.797 28.3749 30.6454 29.9109C30.4937 31.4468 29.8906 32.9016 28.9138 34.0875C26.2526 37.2982 23.7551 40.6524 21.1484 43.9183C19.1089 46.4781 19.2835 47.7028 22.1519 49.435C20.4614 50.8804 18.749 52.2375 17.1348 53.716C10.5182 59.7771 3.9163 65.8529 -2.67119 71.9433C-3.08563 72.3295 -3.76183 72.7157 -3.76183 73.1791C-3.8711 74.3158 -3.89304 75.4594 -3.82733 76.5995C-2.73594 76.6388 -1.64318 76.6093 -0.555403 76.5112C-0.130052 76.5112 0.240852 75.9264 0.622577 75.6064C7.73445 69.5532 14.4897 63.0839 20.8539 56.2317C22.3315 54.7721 23.9175 53.4294 25.5982 52.2155C25.8623 52.1005 26.1487 52.0477 26.4359 52.0611C26.7231 52.0744 27.0035 52.1536 27.256 52.2927C29.4373 53.5836 31.684 54.9297 33.7999 56.3861C34.0554 56.5953 34.2664 56.8546 34.4201 57.1486C34.5739 57.4425 34.6672 57.7649 34.6943 58.0963C34.8579 61.0643 34.9014 64.0323 34.9233 67.0003C34.9223 67.4801 34.7342 67.94 34.3998 68.2802C24.9657 76.7981 11.638 90.8547 1.4841 98.6002C-0.108021 99.927 -1.49731 101.485 -2.63857 103.223C-2.82046 103.616 -2.90736 104.047 -2.89219 104.481C-2.87702 104.914 -2.76013 105.338 -2.55123 105.717C-2.26766 106.147 -1.03528 106.103 -0.271825 105.971C0.420161 105.806 1.05859 105.464 1.58222 104.978C10.4928 97.3644 24.1259 85.1173 31.9677 76.3567C32.7877 75.3538 33.7508 74.48 34.8251 73.7639C34.591 75.9869 34.2451 78.1965 33.7889 80.3839C32.3711 85.9007 31.346 91.7043 29.0774 96.9342C27.0706 101.524 23.8096 105.617 20.7121 109.634C16.2296 115.437 9.92568 118.714 3.26185 121.406C2.85465 121.535 2.45736 121.693 2.07309 121.881C0.7425 122.686 -0.555355 123.602 0.175376 125.467C0.906107 127.331 2.542 127.221 3.78534 126.57C8.6387 124.154 13.8194 122.157 18.0729 118.847C24.2945 114.025 29.2711 107.752 32.5783 100.564C35.2475 94.498 37.0823 88.0905 38.0316 81.5204C39.5564 72.5419 39.2782 63.3447 37.2136 54.4773C36.8194 53.2025 36.0176 52.0963 34.9342 51.3328C31.804 49.2033 28.6084 47.3166 25.3037 45.2092Z" fill="#83C3C0" fill-opacity="0.2"/>
<path d="M-2.53976 277.171C-2.99668 276.2 -3.22521 275.953 -3.20618 275.762C-1.49272 266.245 12.5957 257.013 21.7341 259.373C27.6741 260.915 31.6531 264.399 32.7573 270.68C32.957 271.55 33.2049 272.408 33.4998 273.25C40.9819 272.755 47.8738 273.25 54.442 278.065C62.4762 284.08 61.4292 299.403 56.1555 305.171C49.6825 312.252 42.048 316.078 31.9196 314.802C31.9196 317.6 32.5098 320.513 31.8054 323.082C29.6921 330.696 24.0758 337.244 14.6709 336.578C11.2039 336.56 7.74502 336.242 4.33306 335.626C3.47883 335.309 2.71683 334.785 2.11536 334.1C1.5139 333.416 1.09182 332.593 0.887119 331.705C1.00135 328.869 3.62869 330.296 5.34215 330.163C10.0065 329.764 14.8612 330.011 19.2972 328.621C25.656 326.604 27.3505 321.274 24.5899 315.202C24.1732 314.43 23.7981 313.635 23.4666 312.823C22.2291 309.111 24.3234 306.636 28.0549 307.379C31.977 308.256 36.0549 308.152 39.9272 307.076C43.7995 306.001 47.3465 303.986 50.2536 301.211C54.1755 297.633 54.2517 293.103 52.8238 288.496C51.396 283.89 47.3026 282.31 42.9619 281.796C39.2494 281.339 35.4988 281.301 31.7673 281.149C29.8635 281.149 28.4737 280.616 28.4927 278.161C28.3297 276.56 28.0109 274.979 27.5408 273.44C26.9968 271.072 25.5679 269.002 23.5468 267.654C21.5257 266.306 19.0653 265.781 16.6699 266.188C10.5586 267.044 6.4082 270.87 2.02937 274.582C0.592861 275.589 -0.937187 276.456 -2.53976 277.171V277.171Z" fill="#EF8C69" fill-opacity="0.2"/>
<path d="M1452.83 30.1708C1453.29 29.2 1453.52 28.9525 1453.5 28.7622C1451.79 19.2448 1437.7 10.0131 1428.56 12.3734C1422.62 13.9152 1418.64 17.3985 1417.54 23.6799C1417.34 24.5496 1417.09 25.4075 1416.79 26.2496C1409.31 25.7547 1402.42 26.2496 1395.85 31.0654C1387.82 37.0804 1388.86 52.4032 1394.14 58.1707C1400.61 65.2516 1408.24 69.0776 1418.37 67.8023C1418.37 70.6004 1417.78 73.5127 1418.49 76.0824C1420.6 83.6962 1426.22 90.2441 1435.62 89.5779C1439.09 89.5599 1442.55 89.2415 1445.96 88.6262C1446.81 88.309 1447.58 87.7846 1448.18 87.1002C1448.78 86.4158 1449.2 85.5928 1449.41 84.7051C1449.29 81.8689 1446.66 83.2965 1444.95 83.1632C1440.29 82.7635 1435.43 83.011 1431 81.6214C1424.64 79.6038 1422.94 74.274 1425.7 68.202C1426.12 67.4295 1426.49 66.6353 1426.83 65.8226C1428.06 62.1109 1425.97 59.6364 1422.24 60.3788C1418.32 61.256 1414.24 61.1521 1410.37 60.0764C1406.49 59.0006 1402.95 56.986 1400.04 54.2115C1396.12 50.633 1396.04 46.1027 1397.47 41.4964C1398.9 36.89 1402.99 35.3101 1407.33 34.7962C1411.04 34.3393 1414.79 34.3013 1418.53 34.149C1420.43 34.149 1421.82 33.616 1421.8 31.1606C1421.96 29.5598 1422.28 27.9788 1422.75 26.4399C1423.3 24.0723 1424.72 22.0024 1426.75 20.654C1428.77 19.3057 1431.23 18.7811 1433.62 19.1877C1439.73 20.0443 1443.88 23.8703 1448.26 27.582C1449.7 28.5894 1451.23 29.4564 1452.83 30.1708V30.1708Z" fill="#EF8C69" fill-opacity="0.2"/>
<path d="M-2.53976 890.171C-2.99668 889.2 -3.22521 888.953 -3.20618 888.762C-1.49272 879.245 12.5957 870.013 21.7341 872.373C27.6741 873.915 31.6531 877.399 32.7573 883.68C32.957 884.55 33.2049 885.408 33.4998 886.25C40.9819 885.755 47.8738 886.25 54.442 891.065C62.4762 897.08 61.4292 912.403 56.1555 918.171C49.6825 925.252 42.048 929.078 31.9196 927.802C31.9196 930.6 32.5098 933.513 31.8054 936.082C29.6921 943.696 24.0758 950.244 14.6709 949.578C11.2039 949.56 7.74502 949.242 4.33306 948.626C3.47883 948.309 2.71683 947.785 2.11536 947.1C1.5139 946.416 1.09182 945.593 0.887119 944.705C1.00135 941.869 3.62869 943.296 5.34215 943.163C10.0065 942.764 14.8612 943.011 19.2972 941.621C25.656 939.604 27.3505 934.274 24.5899 928.202C24.1732 927.43 23.7981 926.635 23.4666 925.823C22.2291 922.111 24.3234 919.636 28.0549 920.379C31.977 921.256 36.0549 921.152 39.9272 920.076C43.7995 919.001 47.3465 916.986 50.2536 914.211C54.1755 910.633 54.2517 906.103 52.8238 901.496C51.396 896.89 47.3026 895.31 42.9619 894.796C39.2494 894.339 35.4988 894.301 31.7673 894.149C29.8635 894.149 28.4737 893.616 28.4927 891.161C28.3297 889.56 28.0109 887.979 27.5408 886.44C26.9968 884.072 25.5679 882.002 23.5468 880.654C21.5257 879.306 19.0653 878.781 16.6699 879.188C10.5586 880.044 6.4082 883.87 2.02937 887.582C0.592861 888.589 -0.937187 889.456 -2.53976 890.171V890.171Z" fill="#EF8C69" fill-opacity="0.2"/>
</g>
</g>
<defs>
<clipPath id="clip0_595:6074">
<rect width="1440" height="1024" fill="white"/>
</clipPath>
<clipPath id="clip1_595:6074">
<rect width="1469" height="1082" fill="white" transform="translate(-16 -58)"/>
</clipPath>
</defs>
</svg>