<svg viewBox="0 0 38 32" fill="none" xmlns="http://www.w3.org/2000/svg">
<path d="M36.7199 27.207C36.7154 27.5571 36.5962 27.8961 36.3804 28.1722C36.1646 28.4482 35.8642 28.646 35.5251 28.7353C34.764 28.9063 32.6287 29.1017 32.6287 29.1017C32.6287 29.5727 32.3216 31.4091 30.1822 31.4091C27.419 31.4091 27.4122 29.3881 27.4122 29.3881H11.5099C11.5099 30.3138 10.8466 31.4837 8.93563 31.4837C5.88156 31.4837 6.11941 29.2171 6.11941 29.2171C4.11191 29.1737 3.97056 27.511 3.97056 27.511C3.97056 27.511 3.82377 27.4974 3.60358 27.4812C3.15777 27.4472 2.41703 27.3929 2.02151 27.3807C1.43163 27.3644 1.04154 26.4741 1.37182 25.9366C1.67628 25.4412 3.40107 25.5891 3.66611 25.6149H3.70009C3.70009 25.6149 3.70689 25.0503 3.71232 24.2672C3.72456 22.9289 3.74086 20.9622 3.74494 20.0976C3.74494 19.9891 3.74494 19.8981 3.74494 19.8262C3.74494 19.1978 3.74494 17.2895 3.98959 15.7761C3.98959 15.7761 3.98959 15.7652 3.98959 15.7598C4.11464 14.9835 4.30492 14.313 4.59306 13.9723C5.44255 12.9666 6.60057 12.782 7.84013 12.782C9.0797 12.782 25.6453 12.9381 26.7449 12.9381C27.8445 12.9381 30.7762 13.0507 31.3443 13.3928C32.4602 14.0714 33.2472 15.0975 33.852 16.243L33.8724 16.2837C34.2415 17.0086 34.5665 17.7551 34.8456 18.5191C35.0446 19.0816 35.2134 19.6543 35.3512 20.2347C35.5007 20.8346 35.6529 21.5051 35.7997 22.1865C35.9152 22.7294 36.0253 23.2723 36.1286 23.7948C36.2129 24.2386 36.2944 24.6675 36.3665 25.0612C36.5758 26.1728 36.7117 27.0129 36.7199 27.207Z" fill="#83C3C0"/>
<path d="M14.8425 12.729H8.07114C8.07114 12.729 7.88086 10.3768 8.3321 9.05348C8.41282 8.81969 8.52047 8.59605 8.65286 8.38707C9.28624 7.36369 10.466 6.57104 11.3875 6.57104C12.0747 6.58069 12.7426 6.79893 13.3026 7.19675C13.3026 7.19675 13.2605 8.41828 13.236 9.28693C13.2265 9.62218 13.2211 9.90449 13.2211 10.0456C13.2211 10.5546 13.4467 10.7786 13.8354 10.7786C14.2241 10.7786 14.7868 10.8383 14.7868 10.8383L14.8425 12.729Z" fill="#DC771A"/>
<path d="M15.4067 10.9334C15.0832 10.9334 14.8426 10.8737 14.8426 11.1343V12.3762C14.8426 12.5852 14.954 12.6327 15.3401 12.6327C15.7261 12.6327 16.0115 12.687 16.0115 12.3612V11.1343C16.0115 10.9483 15.8878 10.9334 15.4067 10.9334Z" fill="#83C3C0"/>
<path d="M18.8032 10.9334C18.3615 10.9334 18.0339 10.8737 18.0339 11.1343V12.3762C18.0339 12.5852 18.1862 12.6327 18.7135 12.6327C19.2409 12.6327 19.6296 12.687 19.6296 12.3612V11.1343C19.6296 10.9483 19.4624 10.9334 18.8032 10.9334Z" fill="#83C3C0"/>
<path d="M22.3384 11.023C21.8967 11.023 21.5677 10.9633 21.5677 11.2239V12.4658C21.5677 12.6761 21.72 12.7236 22.2473 12.7236C22.7747 12.7236 23.1634 12.7766 23.1634 12.4522V11.2293C23.1634 11.0379 22.9962 11.023 22.3384 11.023Z" fill="#83C3C0"/>
<path d="M24.8977 11.023C24.6069 11.023 24.3907 10.9633 24.3907 11.2239V12.4658C24.3907 12.6761 24.4913 12.7236 24.8379 12.7236C25.1845 12.7236 25.4414 12.7766 25.4414 12.4522V11.2293C25.4414 11.0379 25.3313 11.023 24.8977 11.023Z" fill="#83C3C0"/>
<path d="M13.3026 7.19675C13.3026 7.19675 13.2605 8.41828 13.236 9.28693C12.637 9.70196 11.9263 9.92624 11.1973 9.93027C9.95225 9.93027 9.12043 9.07655 8.65424 8.38706C9.28761 7.36369 10.4674 6.57104 11.3889 6.57104C12.0756 6.58097 12.743 6.79919 13.3026 7.19675V7.19675Z" fill="#83C3C0"/>
<path d="M26.6538 10.1258C26.6538 10.6429 26.579 10.9334 25.648 10.9334C24.717 10.9334 14.5191 10.6891 13.8232 10.6891C13.1436 10.6891 13.304 9.77834 13.3135 9.06034C13.3135 9.03591 13.3135 9.01148 13.3135 8.98841C13.3135 8.98841 13.2904 8.07497 13.3135 7.5565C13.3366 7.03802 13.8572 6.5752 14.6306 6.5752C15.4039 6.5752 24.4492 6.76657 25.3137 6.76657C26.1781 6.76657 26.4921 7.29862 26.4921 7.86731C26.4921 8.19441 26.5478 8.72374 26.5953 9.211C26.6185 9.56796 26.6538 9.90456 26.6538 10.1258Z" fill="white"/>
<path d="M13.3013 9.05766C13.3013 9.03323 13.3013 9.0088 13.3013 8.98572C13.3013 8.98572 13.2782 8.07229 13.3013 7.55381C13.3244 7.03534 13.8449 6.57251 14.6183 6.57251C15.3917 6.57251 24.437 6.76388 25.3014 6.76388C26.1659 6.76388 26.4798 7.29593 26.4798 7.86462C26.4798 8.19172 26.5356 8.72106 26.5831 9.20831L13.3013 9.05766Z" fill="#FFCB68"/>
<path d="M18.0788 3.52798C17.6221 3.55784 17.4101 3.72478 17.4101 4.18353V6.03756C17.4101 6.34701 17.3109 6.54789 17.894 6.57096C18.477 6.59403 25.0758 6.77998 25.5053 6.77998C25.9348 6.77998 26.2352 6.51939 26.2352 5.9887C26.2352 5.45801 26.1863 4.1496 25.542 3.91887C24.8978 3.68813 22.1686 3.25517 18.0788 3.52798Z" fill="#DC771A"/>
<path d="M33.8574 16.2511C29.383 16.1859 21.0282 16.0651 18.9718 16.0299C16.6014 15.9891 7.09258 15.8331 3.99231 15.7815C3.99231 15.7815 3.99231 15.7706 3.99231 15.7652C4.04435 15.4185 4.12156 15.076 4.22336 14.7405C4.29778 14.4649 4.42418 14.206 4.59578 13.9777C5.44527 12.9719 6.60328 12.7874 7.84284 12.7874C9.08241 12.7874 25.648 12.9434 26.7476 12.9434C27.8472 12.9434 30.7789 13.0561 31.347 13.3981C32.0864 13.8581 32.7205 14.4686 33.2077 15.1897C33.4462 15.5296 33.6632 15.8841 33.8574 16.2511Z" fill="#FFCB68"/>
<path d="M33.2131 15.1912C30.5967 15.1681 22.0149 15.0867 20.5171 15.0134C19.0193 14.9401 7.71368 14.7881 4.22876 14.7419C4.30317 14.4663 4.42957 14.2074 4.60117 13.9791C5.45066 12.9734 6.60867 12.7888 7.84824 12.7888C9.08781 12.7888 25.6534 12.9449 26.753 12.9449C27.8526 12.9449 30.7843 13.0576 31.3524 13.3996C32.0918 13.8596 32.7259 14.4701 33.2131 15.1912V15.1912Z" fill="white"/>
<path d="M31.8187 10.1963C31.8255 10.6121 31.7991 11.0278 31.7398 11.4395C31.6039 12.2647 31.2845 12.6298 30.6851 13.0343H26.1862C25.5447 13.0343 25.4468 12.414 25.4468 11.8128C25.4468 11.2115 25.648 10.9305 25.648 10.9305C25.648 10.9305 26.5029 11.0283 26.545 10.1162C26.5654 9.709 26.575 9.39005 26.5817 9.11181C26.5899 8.76028 26.5899 8.48475 26.5899 8.22416C26.5899 7.7559 27.7669 6.71217 29.4537 7.289L29.4945 7.30258C31.1499 7.87534 31.8187 8.42639 31.8187 10.1963Z" fill="white"/>
<path d="M31.8187 10.1964C31.8255 10.6122 31.7991 11.0279 31.7398 11.4396L29.8954 10.2792C29.8601 9.32907 28.7687 8.83503 28.7687 8.83503L29.489 7.30811C31.1499 7.87544 31.8187 8.42649 31.8187 10.1964Z" fill="#DC771A"/>
<path d="M28.3487 11.0188L26.7014 13.0343H26.1808C25.5393 13.0343 25.4414 12.414 25.4414 11.8128C25.4414 11.2115 25.6426 10.9306 25.6426 10.9306C25.6426 10.9306 26.4975 11.0283 26.5396 10.1162C26.56 9.70901 26.5695 9.39006 26.5763 9.11182L27.6501 9.68187C27.6501 9.68187 27.3239 10.5383 28.3487 11.0188Z" fill="#DC771A"/>
<path d="M36.7198 27.2069C36.7154 27.557 36.5961 27.896 36.3803 28.1721C36.1646 28.4481 35.8641 28.6459 35.5251 28.7352C34.7639 28.9062 32.6287 29.1016 32.6287 29.1016C32.6287 29.5726 32.3215 31.409 30.1822 31.409C27.419 31.409 27.4122 29.388 27.4122 29.388H11.5098C11.5098 30.3137 10.8466 31.4836 8.93557 31.4836C5.8815 31.4836 6.11936 29.217 6.11936 29.217C5.74429 29.2185 5.37335 29.1388 5.03202 28.9835C4.74871 28.8444 4.50405 28.6378 4.31963 28.382C4.13521 28.1261 4.01671 27.8288 3.97458 27.5163C3.97458 27.5163 3.82779 27.5028 3.6076 27.4865L3.67013 25.6162L3.71634 24.2711L3.74896 23.321L36.1367 23.8015C36.221 24.2453 36.3025 24.6742 36.3746 25.0678C36.5757 26.1727 36.7117 27.0128 36.7198 27.2069Z" fill="#DC771A"/>
<path d="M29.9049 26.6179C28.2998 26.6179 27.4897 27.6902 27.4897 29.1967C27.4897 30.7033 27.8037 31.4824 29.9049 31.4824C32.0062 31.4824 32.558 30.159 32.558 29.0488C32.558 27.9385 32.1394 26.6179 29.9049 26.6179Z" fill="#83C3C0"/>
<path d="M29.8451 28.1366C29.1655 28.1284 29.1791 28.5763 29.1655 28.8749C29.1519 29.1735 29.3137 29.6146 29.9063 29.6431C30.4989 29.6717 30.5858 29.2699 30.6321 28.8749C30.6783 28.48 30.4268 28.1434 29.8451 28.1366Z" fill="white"/>
<path d="M13.0267 29.3908H11.514C11.514 30.3165 10.8507 31.4865 8.93968 31.4865C5.88561 31.4865 6.12347 29.2198 6.12347 29.2198C5.7484 29.2213 5.37746 29.1416 5.03613 28.9864C5.3569 27.0631 6.35453 24.9919 9.15171 24.9919C11.9489 24.9919 12.831 27.2789 13.0267 29.3908Z" fill="#FFCB68"/>
<path d="M8.9492 27.1526H7.09664C6.70112 27.1526 6.10309 27.9086 6.10309 29.5957C6.10309 31.2827 7.81429 31.5515 8.8595 31.5515C9.9047 31.5515 11.514 30.7778 11.514 29.3907C11.5076 28.9772 11.4133 28.5698 11.2373 28.1954C11.0613 27.821 10.8077 27.4882 10.4932 27.2191L8.9492 27.1526Z" fill="#83C3C0"/>
<path d="M8.92747 28.3213C8.18672 28.3213 8.09429 28.8018 8.09429 29.0501C8.09251 29.15 8.11125 29.2491 8.14936 29.3414C8.18747 29.4338 8.24414 29.5173 8.31586 29.5869C8.38757 29.6565 8.47282 29.7106 8.56633 29.746C8.65984 29.7814 8.75962 29.7972 8.85951 29.7926C9.46298 29.7926 9.71443 29.5917 9.71443 29.0501C9.71443 28.5086 9.35017 28.3213 8.92747 28.3213Z" fill="white"/>
<path d="M35.3593 20.2442C33.7568 20.2944 29.996 20.4098 29.8437 20.4383C29.6521 20.4736 28.6205 20.5197 28.3826 20.0094C28.1448 19.4991 27.771 16.2932 27.771 16.2932H33.8873C34.2564 17.0181 34.5814 17.7646 34.8605 18.5286C35.0572 19.0912 35.2237 19.6639 35.3593 20.2442V20.2442Z" fill="white"/>
<path d="M30.9121 18.7091C30.3331 18.7458 30.155 19.5669 30.2189 20.3379C30.2828 21.1088 30.45 21.7576 31.1934 21.7576C31.9369 21.7576 31.9763 20.9256 31.9505 20.2985C31.9247 19.6714 31.9111 18.6453 30.9121 18.7091Z" fill="#DC771A"/>
<path d="M9.448 16.0312C9.448 16.0312 9.29985 19.3633 9.28354 19.6144C9.26723 19.8655 9.31616 20.2238 9.90469 20.2564C10.4932 20.289 23.8756 20.4532 24.3989 20.4369C24.9222 20.4206 25.0241 19.9673 25.0703 19.6144C25.1166 19.2615 25.0187 16.2932 25.0187 16.2932L9.448 16.0312Z" fill="white"/>
<path d="M7.42689 15.7666V19.347C7.42689 19.9646 7.11156 20.103 6.63041 20.103H3.74896C3.74896 19.9944 3.74896 19.9035 3.74896 19.8316C3.74896 19.2004 3.74896 17.2826 3.99633 15.7598L7.42689 15.7666Z" fill="white"/>
<path d="M36.3746 25.0734C35.6121 25.1128 34.5153 24.9608 34.5153 23.7894C34.5153 22.7036 35.2397 22.3236 35.8078 22.1987C36.0199 23.1922 36.2183 24.2116 36.3746 25.0734Z" fill="white"/>
<path d="M36.993 26.3708C36.8864 25.032 36.6589 23.7056 36.3134 22.4076C35.9342 21.0585 35.6882 19.6727 35.0902 18.3887C34.7191 17.5934 34.3929 16.7736 34.0028 15.9864C33.5774 15.1259 33.0514 14.3414 32.2359 13.7863C31.8934 13.5542 31.5563 13.3112 31.2165 13.0669C31.3299 12.953 31.4374 12.8334 31.5386 12.7086C32.4085 11.5278 32.4901 10.2492 31.9817 8.90826C31.6229 7.97446 31.0303 7.30262 30.0218 6.98909C29.1207 6.7095 28.2658 6.70542 27.4176 7.09496C27.1795 7.22183 26.9522 7.368 26.7381 7.532C26.5709 7.27276 26.4051 7.01759 26.2827 6.82622C26.386 6.48283 26.5274 6.18152 26.5546 5.87613C26.5696 5.52949 26.5431 5.18228 26.4757 4.8419C26.3507 4.0574 26.053 3.60136 25.1927 3.41134C24.8474 3.33398 24.4954 3.27562 24.1529 3.21726C24.0958 2.86165 24.0428 2.50333 23.9789 2.14366C23.8783 1.55054 23.4842 1.09721 22.8916 1.04156C22.2698 0.989524 21.645 0.986346 21.0227 1.03206C20.2276 1.08499 19.7125 1.87899 19.9204 2.67571C19.9337 2.76062 19.9415 2.84631 19.9435 2.93223C19.7152 2.94444 19.5073 2.95259 19.302 2.96888C18.8875 3.00281 18.4702 3.03267 18.057 3.07881C17.4046 3.15075 17.0403 3.63529 17.0295 4.26235C17.0186 4.8894 17.1083 5.55446 17.1504 6.15166C16.5674 6.15166 15.915 6.12316 15.2612 6.12994C14.5449 6.13673 13.8313 6.18016 13.285 6.75157C12.4341 6.03494 11.5044 6.03493 10.5258 6.39732C9.74294 6.68913 9.16665 7.24019 8.66648 7.87946C8.07706 8.60728 7.73608 9.5042 7.69331 10.4393C7.66477 11.0853 7.70963 11.7341 7.72186 12.3924C4.9872 12.3924 4.40411 13.2176 4.06432 14.0564C3.6225 15.2023 3.40116 16.4212 3.41192 17.649C3.39832 19.4841 3.41192 21.3218 3.41192 23.1568C3.41192 23.8694 3.39289 24.5806 3.38473 25.2755C2.88456 25.3013 2.42108 25.3203 1.96032 25.3542C1.82188 25.369 1.68865 25.4152 1.57085 25.4893C1.45305 25.5634 1.35382 25.6634 1.28073 25.7818C1.16604 25.9506 1.09001 26.1426 1.05806 26.3441C1.02611 26.5456 1.03903 26.7517 1.09589 26.9477C1.2318 27.5245 1.41529 27.6629 2.00381 27.6765C2.40205 27.686 2.79893 27.7077 3.19853 27.6996C3.51113 27.6928 3.67016 27.8095 3.79793 28.1149C4.15539 28.9754 4.7806 29.5102 5.77959 29.5061C5.88425 30.049 6.15609 31.8257 8.46668 31.8569C11.3699 31.8949 11.6512 30.8077 11.764 29.6853C13.1137 29.7355 15.4202 29.7735 16.5877 29.8033C17.2034 29.8169 17.8192 29.8101 18.4349 29.8033C19.1471 29.7898 19.8634 29.7545 20.5769 29.7395C21.1029 29.726 21.6289 29.7314 22.1563 29.726C23.7447 29.7052 25.334 29.6834 26.9243 29.6608C27.0969 29.6608 27.1621 29.7233 27.1961 29.8929C27.3143 30.5042 27.6682 31.0447 28.1815 31.3981C28.7687 31.8148 29.4564 31.8895 30.1373 31.8854C31.1594 31.8745 32.0239 31.4958 32.5322 30.558C32.7388 30.1752 32.853 29.7436 33.0147 29.3215C33.7161 29.2713 34.4663 29.2116 35.2179 29.1709C36.1231 29.1233 36.6804 28.5859 36.9441 27.8054C37.0936 27.367 37.0365 26.8445 36.993 26.3708ZM1.82984 27.082C1.81014 27.0843 1.79021 27.0806 1.77275 27.0712C1.51995 26.8662 1.5648 26.5812 1.56616 26.3084C1.56292 26.2635 1.56913 26.2184 1.58437 26.176C1.5996 26.1337 1.62353 26.095 1.65463 26.0624C1.68573 26.0298 1.7233 26.004 1.76494 25.9868C1.80658 25.9696 1.85137 25.9612 1.89643 25.9623C2.37622 25.927 2.86145 25.9039 3.36027 25.8754C3.40512 26.2989 3.44318 26.6586 3.49618 27.097L1.82984 27.082ZM36.0715 24.6661C35.1201 24.7041 34.8754 24.4679 34.7354 23.8124C34.6267 23.3007 35.0874 22.5311 35.6175 22.546L36.0715 24.6661ZM33.8003 16.9826C34.1822 17.9327 34.571 18.8828 34.942 19.8044C34.9012 19.8736 34.8931 19.9007 34.8836 19.9021C34.0681 19.9523 33.243 19.9917 32.4248 20.0514C32.1843 20.069 32.1122 19.9713 32.085 19.7555C32.0551 19.5408 32.0097 19.3285 31.9491 19.1203C31.8377 18.7254 31.6365 18.4105 31.1812 18.3616C30.996 18.3415 30.8092 18.3802 30.6473 18.472C30.4853 18.5638 30.3563 18.7042 30.2787 18.8733C30.0911 19.2411 30.049 19.5302 30.0069 20.0948C29.7812 20.0948 29.3735 20.0853 29.0976 20.0704C28.8217 20.0555 28.6259 19.9482 28.5716 19.6727C28.4588 19.1135 28.3514 18.5516 28.2617 17.987C28.1856 17.5215 28.1353 17.0532 28.0687 16.5456H28.3799C29.9036 16.5646 32.7374 16.5972 33.1466 16.5985C33.5856 16.6053 33.678 16.6772 33.8003 16.9813V16.9826ZM31.6256 20.764C31.6066 21.0571 31.5998 21.4127 31.3538 21.5525C31.2349 21.6094 31.0999 21.6233 30.9719 21.5919C30.7734 21.4996 30.6022 21.2526 30.5859 20.8603C31.0031 20.821 31.2981 20.7952 31.6311 20.7626L31.6256 20.764ZM30.522 20.0975C30.5682 19.7772 30.5709 19.48 30.6674 19.214C30.7115 19.1417 30.7725 19.0812 30.8452 19.0377C30.9179 18.9942 31.0001 18.969 31.0847 18.9642C31.1948 18.9642 31.3497 19.142 31.4068 19.2764C31.4884 19.5152 31.552 19.7597 31.5971 20.008L30.522 20.0975ZM31.2315 11.8739C31.1092 12.2526 30.9175 12.5959 30.5057 12.7072C30.3144 12.7359 30.1196 12.7327 29.9294 12.6977C29.1655 12.6394 28.1285 12.6787 27.4231 12.619C27.68 12.2919 28.1108 11.7816 28.4588 11.3798C28.5009 11.331 29.4279 11.916 30.2257 10.6808C30.5437 10.9957 30.8808 11.3242 31.207 11.6594C31.2272 11.6907 31.2403 11.7259 31.2454 11.7627C31.2506 11.7995 31.2477 11.837 31.2369 11.8725L31.2315 11.8739ZM27.9532 9.61132C28.0739 9.46247 28.2424 9.35986 28.4302 9.32087C28.6408 9.28672 28.8568 9.32024 29.0471 9.41659C29.2374 9.51295 29.3922 9.66716 29.489 9.85699C29.7513 10.3578 29.0283 10.8668 28.4248 10.6388C27.8213 10.4108 27.7601 9.952 27.9586 9.60997L27.9532 9.61132ZM29.7201 7.75187C30.889 8.08712 31.695 9.4851 31.4462 10.6808C31.0548 10.4393 30.6756 10.2112 30.2991 9.97507C30.2425 9.94053 30.1986 9.88863 30.174 9.82713C30.0191 9.31951 29.6494 9.00191 29.1859 8.7101C29.3721 8.38843 29.5502 8.06676 29.7255 7.75052L29.7201 7.75187ZM27.0112 8.14412C27.4897 7.71387 28.384 7.46549 29.0609 7.58086C28.9413 7.87403 28.789 8.29478 28.6694 8.56351C28.6694 8.56351 27.8716 8.56352 27.6025 9.30323C27.4176 9.20279 27.226 9.1105 27.0452 8.9992C26.806 8.8499 26.7897 8.345 27.0167 8.14277L27.0112 8.14412ZM26.3154 11.164C26.4487 11.1446 26.572 11.0822 26.6667 10.9865C26.7614 10.8907 26.8222 10.7667 26.84 10.6333C26.8669 10.4965 26.8864 10.3583 26.8984 10.2194C26.9148 10.0837 26.9202 9.94793 26.9297 9.8122C27.1173 9.82849 27.3198 9.8407 27.3252 9.97643C27.3388 10.2397 27.1078 10.6713 28.0184 11.2143C27.7303 11.4966 27.0316 12.2051 26.9555 12.2919C26.6837 12.5946 26.6837 12.6665 26.1291 12.5946C25.8437 12.5566 25.8464 12.3231 25.807 12.1277C25.7616 11.9041 25.7352 11.6771 25.7282 11.4491C25.7334 11.4115 25.7478 11.3757 25.7701 11.3449C25.7923 11.3142 25.8218 11.2893 25.8559 11.2726C26.0071 11.2216 26.1628 11.1848 26.3208 11.1627L26.3154 11.164ZM26.1631 10.1122C26.1509 10.2791 25.7893 10.499 25.5474 10.4976C24.1882 10.4868 22.8291 10.4637 21.4631 10.4637C19.0383 10.4637 16.6122 10.484 14.1874 10.4868C13.6275 10.4868 13.5514 10.3727 13.5364 9.88685C13.5364 9.7199 13.5364 9.5516 13.5364 9.36566L26.1686 9.53396C26.1781 9.73619 26.1835 9.92621 26.1686 10.1108L26.1631 10.1122ZM23.4122 11.2957C23.4122 11.2441 23.9382 11.2224 24.2086 11.2156V12.5607H23.4162C23.4271 12.2227 23.3918 11.6255 23.4176 11.2943L23.4122 11.2957ZM24.668 12.5634L24.5756 11.2061H24.6531C24.789 11.2061 25.0608 11.1898 25.0907 11.2889C25.1872 11.6119 25.2348 12.1806 25.2973 12.5607L24.668 12.5634ZM22.9011 12.5335L21.9225 12.5104C21.8899 12.0585 21.8613 11.6404 21.8314 11.2129L22.8563 11.2346C22.8712 11.6757 22.8862 12.0965 22.9011 12.5322V12.5335ZM21.2878 11.2048L21.2715 12.4426L20.1692 12.4331C20.1107 12.0096 20.0577 11.6187 20.0006 11.1925L21.2878 11.2048ZM19.4542 12.4399L18.3927 12.4181C18.3628 12.0137 18.3298 11.5861 18.2935 11.1355C18.8249 11.1423 18.7475 11.1464 19.2449 11.1559C19.2906 11.1597 19.336 11.1665 19.3808 11.1762C19.4121 11.5916 19.4325 11.9906 19.4502 12.4385L19.4542 12.4399ZM16.4083 11.0636L17.7213 11.0826L17.7036 12.4249C17.3421 12.4249 16.9792 12.4317 16.6163 12.4317C16.4015 12.4317 16.4138 12.3041 16.4002 12.2213C16.3404 11.8427 16.4518 11.4613 16.4083 11.0622V11.0636ZM15.7804 12.4209H14.9907C15.0152 12.0137 15.0369 11.4708 15.0614 11.0636C15.2721 11.1084 15.741 11.0012 15.7804 11.103C15.8905 11.3934 15.7396 12.106 15.7804 12.4249V12.4209ZM20.6557 2.30925C20.6394 2.08665 20.7387 1.94957 20.9453 1.94686C21.5773 1.94686 22.2079 1.94686 22.8359 1.97672C22.9109 1.99797 22.9799 2.03657 23.0373 2.08938C23.0947 2.1422 23.1388 2.20775 23.1661 2.28074C23.2439 2.57129 23.3006 2.86703 23.336 3.16568L20.6517 3.00959C20.6544 2.74357 20.6734 2.52776 20.6557 2.31332V2.30925ZM18.0271 3.97054C19.4601 3.89261 20.8963 3.89623 22.3289 3.9814C22.9722 4.02392 23.6142 4.07595 24.2548 4.13748C24.519 4.1706 24.7808 4.21955 25.0391 4.28406C25.2129 4.30897 25.3727 4.39335 25.4912 4.52281C25.6097 4.65226 25.6795 4.81877 25.6888 4.99391C25.7241 5.36696 25.7377 5.74175 25.7295 6.11637C25.7214 6.38104 25.6181 6.48419 25.2892 6.41768C23.957 6.14833 22.5991 6.02725 21.2402 6.05665C20.3391 6.07294 19.4366 6.11094 18.5354 6.16252C18.0529 6.19238 17.8735 5.95757 17.83 5.55582C17.7865 5.15407 17.7825 4.70753 17.7594 4.28406C17.7485 4.09405 17.83 3.98547 18.0271 3.97461V3.97054ZM13.6778 7.4397C13.7199 7.2809 13.9496 7.12889 14.1209 7.06238C14.7352 6.82622 15.0505 6.90223 20.8732 6.90223C21.565 6.90223 24.6042 7.02167 25.455 7.12482C26.3602 7.23476 26.1536 8.45629 26.0965 8.82818L13.4902 8.65852C13.5273 8.24967 13.5922 7.84381 13.6845 7.44377L13.6778 7.4397ZM12.0739 7.04474C12.3539 7.07732 12.6176 7.29719 12.8758 7.45192C12.9261 7.48314 12.9506 7.60529 12.9479 7.68401C12.9479 8.05997 12.9316 8.43594 12.9071 8.81326C12.9017 8.91372 12.8625 9.0094 12.7957 9.08471C12.2234 9.60183 10.7827 9.74298 10.1575 9.29644C9.81091 9.04942 9.54858 8.68839 9.22238 8.3545C9.99711 7.41527 10.9064 6.90901 12.0807 7.04881L12.0739 7.04474ZM8.84861 8.88654C9.25636 9.62082 9.78644 10.2099 10.6155 10.3415C11.3835 10.461 12.1582 10.4365 12.8962 10.0402C12.9261 10.1922 12.956 10.3252 12.9778 10.4596C12.9883 10.6099 13.0573 10.7501 13.1702 10.85C13.283 10.95 13.4306 11.0018 13.5812 10.9944C13.868 11.0052 14.1521 11.0039 14.4403 11.0066L14.4212 12.4249L8.41912 12.3449C8.2832 11.1722 8.23019 10.0076 8.84861 8.88654ZM5.77823 13.4252C6.52589 13.1928 7.30589 13.081 8.08883 13.0941C10.1276 13.0873 12.1663 13.1212 14.1956 13.1361C16.6299 13.1551 19.0655 13.1592 21.4998 13.1918C23.0492 13.2121 24.5974 13.2895 26.1482 13.3153C27.0194 13.3316 27.8947 13.2651 28.7673 13.2936C29.4673 13.3167 30.1904 13.3587 30.8169 13.7008C31.3905 14.0156 31.9165 14.4188 32.4642 14.7866L32.399 14.8639L4.67867 14.4934C4.91788 13.9356 5.26039 13.6003 5.77823 13.4252ZM4.87167 15.1286C13.9577 15.2508 23.4774 15.4923 32.5635 15.4923C32.7018 15.4817 32.8397 15.5191 32.9536 15.5983C33.0675 15.6774 33.1506 15.7934 33.1887 15.9267L4.38916 15.5412C4.45168 15.1232 4.45168 15.1218 4.87167 15.1286ZM24.2684 20.103L21.0812 20.0514H20.7332L20.7794 16.4682C20.8379 16.4682 20.9249 16.4546 21.0132 16.4546C22.1454 16.4696 23.2762 16.494 24.4111 16.4954C24.664 16.4954 24.7278 16.5809 24.7278 16.8198C24.7278 17.7413 24.7577 18.6643 24.7808 19.5845C24.789 20.0595 24.7509 20.1098 24.2684 20.103ZM20.2371 16.4546L20.1895 20.0093L14.9798 19.9387L15.0288 16.3841L20.2371 16.4546ZM14.3818 16.3719L14.3329 19.932C14.2092 19.932 14.1032 19.9442 13.9972 19.9415C12.6856 19.9225 11.374 19.898 10.0556 19.875C9.67907 19.8682 9.55538 19.7474 9.56897 19.3714C9.60975 18.4322 9.66275 17.4916 9.70489 16.551C9.7144 16.3746 9.76742 16.2891 9.97673 16.2931C11.3889 16.3189 12.8011 16.3325 14.2119 16.3542C14.2608 16.3542 14.3098 16.3637 14.3818 16.3719ZM4.08063 18.4363C4.10645 17.8119 4.14315 17.1876 4.17305 16.5646C4.19208 16.1764 4.22742 16.1574 4.61478 16.1696C5.33786 16.2049 6.06366 16.2293 6.78946 16.2565C6.89412 16.2565 7.00421 16.2565 7.14964 16.2565C7.14964 16.4899 7.14964 16.6949 7.14149 16.9012C7.14149 17.6735 7.13333 18.4471 7.1211 19.2221C7.1211 19.5804 7.06538 19.6157 6.72558 19.6103C6.23084 19.5994 5.73339 19.5994 5.23865 19.5967L4.06432 19.5818C4.0684 19.1461 4.06568 18.7905 4.08063 18.4363ZM4.08878 22.6763C4.08878 21.9977 4.10373 21.3069 4.08878 20.6214C4.08878 20.4002 4.15402 20.369 4.36062 20.3744C5.17612 20.3894 6.00658 20.3839 6.82888 20.3744C7.46361 20.3663 7.70147 19.8587 7.70419 19.3809C7.71234 18.4186 7.69603 17.4563 7.69059 16.494C7.69059 16.4356 7.69059 16.3773 7.69059 16.2918L9.14084 16.3108C9.08239 16.8333 9.00491 17.3491 8.97365 17.8703C8.93469 18.4727 8.93242 19.0769 8.96686 19.6795C9.01035 20.2808 9.33927 20.5332 9.95498 20.5414C11.586 20.5586 13.217 20.5753 14.848 20.5916C17.9741 20.6187 21.0907 20.6255 24.2114 20.6825C25.0636 20.6975 25.4346 20.2468 25.4346 19.4786C25.4468 18.5964 25.4196 17.7142 25.4074 16.832C25.4074 16.7356 25.4074 16.6392 25.4074 16.5252L27.6215 16.5537C27.631 16.6175 27.9368 19.8709 28.1149 20.293C28.2671 20.6554 28.6151 20.787 28.9929 20.806C29.33 20.825 29.7214 20.8237 30.0504 20.8278C30.1197 21.2349 30.4037 22.0927 31.2981 22.0384C31.8418 22.0045 31.9953 21.3992 32.1421 20.9214C32.168 20.8386 32.2604 20.7246 32.3324 20.7178C33.1479 20.6377 33.9498 20.5821 34.7572 20.5074C35.0005 20.4871 35.1174 20.5726 35.1649 20.8115C35.2478 21.1874 35.3661 21.5552 35.4694 21.9366C35.1746 22.0578 34.9119 22.2452 34.7016 22.4844C34.4913 22.7236 34.3391 23.0081 34.257 23.3156C34.2339 23.3889 34.1116 23.4418 34.0246 23.4812C33.9668 23.4935 33.907 23.4935 33.8492 23.4812C27.144 23.3862 20.4442 23.2903 13.7498 23.1935C10.7062 23.1455 7.66431 23.093 4.6243 23.036L4.0915 23.0374C4.0915 22.9247 4.0915 22.8012 4.0915 22.6763H4.08878ZM11.0328 30.1101C10.7501 30.8661 9.68178 31.1959 8.98181 31.1959C8.44452 31.2025 7.91308 31.084 7.42963 30.8498C7.17334 30.7382 6.9503 30.5623 6.78217 30.3393C6.61403 30.1162 6.50652 29.8535 6.47006 29.5767C6.40602 29.2103 6.41805 28.8347 6.5054 28.4732C6.74869 27.5584 7.13877 27.401 8.1364 27.3955C8.72085 27.3955 9.27267 27.3711 9.86527 27.3833C10.4579 27.3956 10.7678 27.7457 10.9811 28.1977C11.1205 28.4959 11.1971 28.8195 11.2059 29.1485C11.2148 29.4775 11.1559 29.8048 11.0328 30.1101ZM12.5958 28.9768C12.3512 28.9618 12.0821 28.9768 11.8728 28.9768C11.6635 28.9768 11.5139 26.8974 9.98488 26.8974C9.61111 26.8974 9.18569 26.8689 8.65289 26.8689C6.65898 26.8689 6.33278 27.2381 5.88697 28.4529C5.84212 28.5723 5.82173 28.7012 5.78911 28.8234C5.36369 28.8763 5.33379 28.8546 5.3501 28.4501C5.39631 27.177 6.08541 26.3274 7.19314 25.8035C7.94618 25.4634 8.76744 25.3009 9.59343 25.3284C11.1239 25.3488 12.3879 26.7332 12.5279 28.0308C12.5619 28.3348 12.6094 28.6374 12.6502 28.9469C12.6149 28.9673 12.6054 28.9781 12.5958 28.9768ZM32.119 29.1817C32.119 30.4738 31.3959 30.9679 30.3331 31.0099C29.8576 31.012 29.3838 30.9555 28.9222 30.8416C28.2834 30.7059 27.9491 30.2349 27.8349 29.6391C27.6446 28.6741 27.8988 27.6955 28.8883 27.196C29.8492 26.7169 30.927 26.9694 31.3348 27.306C31.8377 27.7254 32.0551 28.3103 32.1245 28.9496C32.1281 29.027 32.1263 29.1046 32.119 29.1817ZM35.2709 28.3538C34.4908 28.4135 33.7133 28.4977 32.9005 28.5737C32.7643 27.928 32.4702 27.326 32.0443 26.8214C31.4884 26.1564 29.3735 25.7451 27.9803 27.1607C27.5663 27.5647 27.2949 28.092 27.207 28.6632C27.1811 28.8505 27.1173 28.9347 26.9052 28.9347C25.2742 28.9469 23.6432 28.97 22.0122 28.9944C21.1383 29.0066 20.2657 29.0311 19.3917 29.0446C17.7607 29.0691 16.1161 29.0948 14.4756 29.1057C14.1222 29.1057 13.7675 29.0473 13.4127 29.0175C13.3624 28.5967 13.3162 28.1909 13.2646 27.7824C13.2042 27.3279 13.0507 26.8907 12.8136 26.4982C12.5764 26.1056 12.2608 25.7661 11.8864 25.5008C10.1317 24.1856 7.57506 24.3661 5.9427 25.8415C5.24136 26.4767 4.92604 27.2788 4.84177 28.1963C4.84177 28.2506 4.84177 28.3063 4.84177 28.4067C4.36878 28.0674 4.21383 27.5924 4.18801 27.1227C4.13228 26.0057 4.1418 24.8873 4.12956 23.7676C4.12956 23.7499 4.14451 23.7337 4.17305 23.6794H4.44489C14.2255 23.8069 24.0075 23.9336 33.7908 24.0594C34.0626 24.0594 34.1986 24.1191 34.3005 24.4001C34.5275 25.057 35.0331 25.3502 35.7195 25.3705C36.1558 25.3787 36.1503 25.38 36.2006 25.8021C36.2468 26.1957 36.3026 26.5866 36.3651 26.9775C36.3884 27.1403 36.3783 27.3062 36.3352 27.465C36.2922 27.6237 36.2172 27.7721 36.1148 27.9009C36.0123 28.0297 35.8847 28.1363 35.7396 28.2142C35.5945 28.2921 35.435 28.3396 35.2709 28.3538Z" fill="#4B707D"/>
<path d="M14.7257 26.8553C14.7705 26.5296 15.5086 26.5336 15.8864 26.5309C17.2374 26.5228 18.5885 26.5526 19.9395 26.5703C21.1818 26.5866 22.1549 26.5988 23.3972 26.6232C23.5576 26.6232 24.6205 26.6504 24.6463 26.9327C24.6721 27.215 24.2684 27.2652 23.423 27.2652C20.8596 27.2136 18.2962 27.1607 15.7328 27.1064C15.4814 27.101 14.6808 27.1811 14.7257 26.8553Z" fill="#4B707D"/>
<path d="M19.8008 25.9624C18.2813 25.9416 16.7613 25.9203 15.2408 25.8986C15.0724 25.8975 14.9049 25.8728 14.7433 25.8253C14.5802 25.7737 14.5 25.6299 14.6808 25.5254C14.8588 25.4121 15.0628 25.3463 15.2734 25.334C16.8827 25.3448 18.4919 25.3788 20.1012 25.4059C21.4921 25.4303 22.8821 25.4557 24.2711 25.4819C24.4699 25.4841 24.6681 25.5027 24.8637 25.5376C24.9439 25.5525 25.0758 25.6475 25.0703 25.6896C25.0641 25.7404 25.0464 25.7891 25.0187 25.8321C24.9909 25.8751 24.9537 25.9113 24.91 25.938C24.735 25.9981 24.5513 26.0288 24.3663 26.0289C22.8454 26.0153 21.3258 25.9923 19.8063 25.9719L19.8008 25.9624Z" fill="#4B707D"/>
<path d="M9.03209 27.9737C9.5377 27.9737 9.99439 28.4691 9.98351 28.997C9.97264 29.5793 9.46295 30.129 8.94103 30.1249C8.38377 30.1249 7.81292 29.6349 7.82107 29.1748C7.83058 28.56 8.42862 27.9696 9.03209 27.9737ZM9.42625 29.1083C9.42625 28.7541 9.23869 28.5654 8.87443 28.5654C8.51017 28.5654 8.28862 28.7405 8.2927 29.0445C8.2927 29.3078 8.60532 29.5386 8.96278 29.5426C9.26723 29.5522 9.4249 29.3988 9.42625 29.1083Z" fill="#4B707D"/>
<path d="M30.98 28.9293C30.9678 29.4193 30.6742 29.8061 30.1713 29.988C29.7486 30.1427 29.3898 30.0422 29.084 29.6853C28.7374 29.2781 28.7564 28.4746 29.084 28.1366C29.4482 27.7553 30.1197 27.6888 30.4513 27.8991C30.6218 28.0098 30.7603 28.1631 30.8531 28.3439C30.9459 28.5246 30.9896 28.7264 30.98 28.9293ZM29.8573 29.3365C30.2012 29.3365 30.3154 29.2537 30.3154 28.9931C30.3165 28.844 30.2588 28.7005 30.1548 28.5936C30.0507 28.4866 29.9087 28.4249 29.7595 28.4217C29.5638 28.4217 29.3748 28.6592 29.3735 28.9062C29.3721 29.175 29.5461 29.3297 29.8573 29.3324V29.3365Z" fill="#4B707D"/>
</svg>
