<svg viewBox="0 0 24 24" fill="none" xmlns="http://www.w3.org/2000/svg">
<path fill-rule="evenodd" clip-rule="evenodd" d="M12 24C18.6274 24 24 18.6274 24 12C24 5.37258 18.6274 0 12 0C5.37258 0 0 5.37258 0 12C0 18.6274 5.37258 24 12 24ZM7.21999 6.88078C7.61051 6.49026 8.24368 6.49026 8.6342 6.88078L12.1698 10.4164L15.5357 7.05038C15.9263 6.65986 16.5594 6.65986 16.95 7.05038C17.3405 7.44091 17.3405 8.07407 16.95 8.46459L13.584 11.8306L17.1195 15.3661C17.51 15.7566 17.51 16.3898 17.1195 16.7803C16.729 17.1708 16.0958 17.1708 15.7053 16.7803L12.1698 13.2448L8.46467 16.9499C8.07415 17.3404 7.44099 17.3404 7.05046 16.9499C6.65994 16.5594 6.65994 15.9262 7.05046 15.5357L10.7556 11.8306L7.21999 8.295C6.82946 7.90447 6.82946 7.27131 7.21999 6.88078Z" fill="currentColor"/>
</svg>