<svg viewBox="0 0 552 238" fill="none" xmlns="http://www.w3.org/2000/svg">
<path d="M420.909 190.879C418.322 205.303 393.874 204.96 383.071 205.202C366.448 205.575 349.767 205.516 333.133 205.61C295.988 205.823 258.836 205.681 221.691 205.723C212.877 205.723 204.063 205.681 195.254 205.788C188.423 205.864 177.738 208.022 171.973 203.423C156.327 191.009 196.332 190.064 193.721 182.846C192.478 179.418 175.424 182.367 172.588 182.621C164.153 183.378 155.522 184.578 147.063 183.508C128.594 181.173 135.697 160.809 149.496 156.771C154.113 155.424 195.189 156.044 192.295 147.118C191.111 143.53 179.094 145.54 173.074 146.096C164.786 146.858 158.683 139.256 156.552 133.044C151.745 119.034 174.477 106.189 184.599 101.365C200.351 93.8521 217.328 88.662 234.418 85.0325C265.608 78.4 302.493 71.1646 334.376 77.1232C339.597 78.0986 349.767 80.1438 350.359 86.6994C351.17 95.2826 336.963 94.8451 333.098 100.372C328.013 107.625 342.983 106.159 346.428 106.136C354.87 106.077 363.299 105.787 371.741 105.645C386.107 105.397 412.739 102.808 418.221 120.926C423.703 139.044 396.597 144.181 384.651 147.662C379.022 149.306 368.029 151.771 367.313 159.148C366.46 168.015 384.817 165.828 390.109 165.757C398.195 165.65 407.276 165.012 414.711 168.683C423.134 172.844 422.359 182.852 420.909 190.879Z" fill="#FFCB68"/>
<path d="M434.926 173.737C434.616 173.755 434.306 173.755 433.997 173.737C432.387 173.559 431.706 172.956 431.925 171.414C432.298 168.836 432.819 166.277 433.422 163.729C433.742 162.417 434.565 162.068 435.702 162.83C437.641 164.159 439.511 165.587 441.301 167.11C441.7 167.486 441.946 167.996 441.991 168.542C442.035 169.087 441.876 169.63 441.544 170.066C439.881 172.253 437.803 173.737 434.926 173.737ZM439.816 168.854L435.127 165.077C434.677 167.317 434.293 169.215 433.902 171.159C436.27 171.49 438.046 170.391 439.822 168.854H439.816Z" fill="#83C3C0"/>
<path d="M181.006 114.878C180.794 114.65 180.596 114.409 180.414 114.157C179.538 112.792 179.579 111.887 180.917 111.089C183.155 109.753 185.475 108.541 187.831 107.418C189.051 106.827 189.838 107.259 189.962 108.6C190.152 110.94 190.217 113.288 190.158 115.635C190.121 116.185 189.879 116.702 189.481 117.084C189.082 117.465 188.555 117.684 188.003 117.698C185.28 117.787 182.817 117.113 181.006 114.878ZM187.884 115.599C187.884 113.59 187.884 111.68 187.884 109.582L182.385 112.461C183.616 114.524 185.57 115.186 187.884 115.599Z" fill="#83C3C0"/>
<path d="M125.433 125.046C124.912 123.816 122.751 121.694 123.521 120.908C124.29 120.122 126.197 122.681 127.215 123.574C128.138 122.669 129.127 121.712 130.098 120.736C130.518 120.317 130.897 119.826 131.566 120.317C131.706 120.408 131.824 120.531 131.91 120.675C131.996 120.819 132.048 120.981 132.062 121.148C132.075 121.315 132.051 121.483 131.989 121.639C131.928 121.795 131.832 121.935 131.708 122.049C130.802 123.154 129.796 124.165 128.748 125.312L130.903 127.357C131.228 127.632 131.536 127.926 131.826 128.238C132.282 128.793 132.507 129.509 131.868 129.97C131.636 130.088 131.379 130.149 131.119 130.149C130.858 130.149 130.602 130.088 130.37 129.97C129.595 129.394 128.872 128.751 128.209 128.049C127.848 127.7 127.534 127.304 127.144 126.866C126.333 127.635 123.852 130.141 123.142 129.544C122.432 128.947 124.74 126.051 125.433 125.046Z" fill="#FFCB68"/>
<path d="M165.597 83.1526C162.152 83.1526 161.359 80.3448 161.388 79.5172C161.442 77.6906 163.987 74.7882 166.124 74.9655C168.261 75.1429 169.925 77.1172 169.818 79.7714C169.723 81.7694 168.379 83.1526 165.597 83.1526ZM165.929 77.4542C164.473 77.4542 163.786 78.0808 163.78 79.4226C163.78 80.5694 164.407 81.0423 165.929 81.0364C167.113 81.0364 167.782 80.5517 167.764 79.7477C167.728 78.264 167.095 77.4601 165.929 77.4542Z" fill="#FFCB68"/>
<path d="M402.067 211.486C399.924 211.486 398.29 210.061 398.296 208.211C398.296 205.722 400.155 203.417 402.173 203.411C403.949 203.411 405.725 205.569 405.683 207.78C405.705 208.264 405.628 208.748 405.455 209.201C405.282 209.655 405.018 210.068 404.679 210.415C404.34 210.763 403.933 211.037 403.484 211.221C403.035 211.405 402.552 211.495 402.067 211.486ZM402.611 205.776C400.048 205.267 400.024 208.063 400.616 208.631C400.984 208.874 401.415 209.003 401.856 209.003C402.297 209.003 402.729 208.874 403.097 208.631C403.801 208.04 403.919 206.042 402.611 205.776Z" fill="#DC771A"/>
<path d="M363.737 131.873C361.594 131.873 359.966 130.455 359.966 128.604C359.966 126.11 361.825 123.81 363.844 123.798C365.62 123.798 367.396 125.962 367.354 128.173C367.375 128.657 367.297 129.14 367.124 129.593C366.951 130.045 366.686 130.458 366.348 130.804C366.009 131.151 365.602 131.425 365.153 131.609C364.704 131.793 364.222 131.883 363.737 131.873ZM364.282 126.169C361.725 125.655 361.701 128.457 362.293 129.024C362.658 129.271 363.088 129.406 363.529 129.411C363.97 129.416 364.402 129.292 364.773 129.054C365.472 128.427 365.596 126.429 364.282 126.145V126.169Z" fill="#83C3C0"/>
<path d="M152.912 198.676C152.912 200.852 151.136 202.867 149.236 202.856C147.152 202.856 145.323 201.271 145.329 199.492C145.329 196.726 146.98 194.45 148.94 194.444C149.483 194.449 150.019 194.563 150.516 194.781C151.014 194.999 151.462 195.315 151.833 195.711C152.204 196.107 152.491 196.573 152.677 197.083C152.862 197.593 152.942 198.135 152.912 198.676V198.676ZM148.922 196.802C147.892 196.802 147.27 197.571 147.264 198.836C147.257 199.066 147.298 199.296 147.386 199.509C147.474 199.722 147.606 199.914 147.774 200.072C147.942 200.231 148.142 200.351 148.36 200.427C148.578 200.502 148.81 200.53 149.04 200.509C149.881 200.509 150.97 199.587 151 198.848C150.976 198.308 150.749 197.797 150.363 197.417C149.978 197.038 149.463 196.818 148.922 196.802V196.802Z" fill="#DC771A"/>
<path d="M412.775 141.059C412.28 140.506 411.83 139.913 411.431 139.286C411.236 138.937 411.372 138.399 411.36 137.944C411.769 137.985 412.272 137.897 412.544 138.104C413.228 138.634 413.881 139.205 414.498 139.812C415.137 139.31 415.806 138.801 416.451 138.263C416.996 137.802 417.635 137.773 417.913 138.358C418.013 138.62 418.052 138.902 418.026 139.182C418.001 139.462 417.911 139.732 417.765 139.972C417.164 140.568 416.494 141.092 415.77 141.532C416.273 142.088 416.735 142.584 417.179 143.093C417.434 143.382 417.83 143.684 417.854 144.003C417.835 144.571 417.75 145.134 417.599 145.682C417.084 145.57 416.416 145.611 416.084 145.31C415.349 144.615 414.662 143.87 414.03 143.081C413.333 143.641 412.602 144.156 411.84 144.624C411.39 144.75 410.919 144.788 410.455 144.736C410.52 144.281 410.455 143.725 410.685 143.4C411.34 142.584 412.038 141.802 412.775 141.059Z" fill="#DC771A"/>
<path d="M383.816 83.2649C383.25 83.6741 382.657 84.0454 382.041 84.3762C381.865 84.4618 381.673 84.5107 381.478 84.5198C381.282 84.529 381.087 84.4982 380.904 84.4294C380.732 84.3467 380.65 83.6787 380.798 83.4245C381.305 82.6085 381.854 81.8193 382.443 81.06C382.138 80.6417 381.869 80.1988 381.638 79.7359C381.265 78.9793 381.088 78.329 381.603 77.9034C382.118 77.4778 382.751 78.1812 383.094 78.4354C383.564 78.8492 384.001 79.2977 384.403 79.7773C385.066 79.2748 385.8 78.7842 386.451 78.2049C387.007 77.7143 387.635 77.4955 388.002 78.1694C388.127 78.4177 388.193 78.6921 388.193 78.9704C388.193 79.2487 388.127 79.5231 388.002 79.7714C387.304 80.5516 386.537 81.2677 385.711 81.9113L387.06 83.5428C387.564 84.1339 387.688 84.8019 387.06 85.393C386.433 85.9841 385.876 85.5703 385.438 85.1329C384.882 84.5831 384.385 83.9329 383.816 83.2649Z" fill="#FFCB68"/>
<path d="M355.799 198.097C355.78 199.622 355.26 201.099 354.321 202.301C353.381 203.503 352.072 204.364 350.596 204.753C347.281 205.498 337.981 206.349 337.981 206.349C337.981 208.4 336.643 216.398 327.326 216.398C315.291 216.398 315.262 207.596 315.262 207.596H246.003C246.003 211.628 243.114 216.723 234.791 216.723C221.49 216.723 222.526 206.852 222.526 206.852C213.783 206.662 213.167 199.421 213.167 199.421C213.167 199.421 212.528 199.362 211.569 199.291C209.627 199.143 206.401 198.907 204.678 198.854C202.109 198.783 200.41 194.905 201.849 192.564C203.175 190.407 210.687 191.051 211.841 191.163H211.989C211.989 191.163 212.019 188.704 212.042 185.293C212.095 179.465 212.167 170.899 212.184 167.134C212.184 166.661 212.184 166.265 212.184 165.952C212.184 163.215 212.184 154.904 213.25 148.312C213.25 148.312 213.25 148.265 213.25 148.242C213.794 144.86 214.623 141.94 215.878 140.456C219.578 136.076 224.621 135.272 230.02 135.272C235.419 135.272 307.566 135.952 312.355 135.952C317.144 135.952 329.913 136.443 332.387 137.932C337.247 140.888 340.675 145.357 343.309 150.346L343.398 150.523C345.005 153.68 346.421 156.932 347.636 160.259C348.503 162.709 349.238 165.203 349.838 167.731C350.489 170.344 351.152 173.264 351.792 176.231C352.295 178.596 352.774 180.96 353.224 183.236C353.591 185.169 353.946 187.037 354.26 188.751C355.172 193.593 355.764 197.252 355.799 198.097Z" fill="#83C3C0"/>
<path d="M260.518 135.042H231.026C231.026 135.042 230.198 124.797 232.163 119.034C232.515 118.016 232.983 117.042 233.56 116.132C236.318 111.674 241.457 108.222 245.47 108.222C248.463 108.264 251.372 109.215 253.811 110.947C253.811 110.947 253.627 116.268 253.521 120.051C253.479 121.511 253.456 122.74 253.456 123.355C253.456 125.572 254.438 126.547 256.131 126.547C257.824 126.547 260.275 126.807 260.275 126.807L260.518 135.042Z" fill="#DC771A"/>
<path d="M262.974 127.221C261.565 127.221 260.518 126.961 260.518 128.096V133.505C260.518 134.415 261.003 134.622 262.684 134.622C264.365 134.622 265.608 134.858 265.608 133.44V128.096C265.608 127.286 265.07 127.221 262.974 127.221Z" fill="#83C3C0"/>
<path d="M277.767 127.221C275.843 127.221 274.417 126.961 274.417 128.096V133.505C274.417 134.415 275.08 134.622 277.377 134.622C279.673 134.622 281.366 134.858 281.366 133.44V128.096C281.366 127.286 280.638 127.221 277.767 127.221Z" fill="#83C3C0"/>
<path d="M293.164 127.611C291.24 127.611 289.808 127.351 289.808 128.486V133.895C289.808 134.811 290.471 135.018 292.767 135.018C295.064 135.018 296.757 135.249 296.757 133.836V128.51C296.757 127.676 296.029 127.611 293.164 127.611Z" fill="#83C3C0"/>
<path d="M304.311 127.611C303.044 127.611 302.103 127.351 302.103 128.486V133.895C302.103 134.811 302.541 135.018 304.05 135.018C305.56 135.018 306.678 135.249 306.678 133.836V128.51C306.678 127.676 306.199 127.611 304.311 127.611Z" fill="#83C3C0"/>
<path d="M253.811 110.947C253.811 110.947 253.627 116.268 253.521 120.051C250.912 121.858 247.816 122.835 244.641 122.853C239.219 122.853 235.596 119.134 233.566 116.132C236.324 111.674 241.462 108.222 245.476 108.222C248.467 108.265 251.374 109.216 253.811 110.947V110.947Z" fill="#83C3C0"/>
<path d="M311.959 123.704C311.959 125.956 311.633 127.221 307.578 127.221C303.523 127.221 259.109 126.157 256.078 126.157C253.118 126.157 253.817 122.191 253.858 119.064C253.858 118.957 253.858 118.851 253.858 118.75C253.858 118.75 253.757 114.772 253.858 112.514C253.959 110.256 256.226 108.24 259.594 108.24C262.962 108.24 302.357 109.074 306.122 109.074C309.887 109.074 311.254 111.391 311.254 113.868C311.254 115.292 311.497 117.598 311.704 119.72C311.805 121.274 311.959 122.74 311.959 123.704Z" fill="white"/>
<path d="M253.805 119.052C253.805 118.945 253.805 118.839 253.805 118.738C253.805 118.738 253.704 114.76 253.805 112.502C253.905 110.244 256.173 108.228 259.541 108.228C262.909 108.228 302.304 109.062 306.069 109.062C309.834 109.062 311.201 111.379 311.201 113.856C311.201 115.28 311.444 117.586 311.651 119.708L253.805 119.052Z" fill="#FFCB68"/>
<path d="M274.612 94.9692C272.623 95.0993 271.7 95.8263 271.7 97.8244V105.899C271.7 107.247 271.268 108.122 273.807 108.222C276.347 108.323 305.086 109.133 306.957 109.133C308.827 109.133 310.136 107.998 310.136 105.686C310.136 103.375 309.922 97.6766 307.117 96.6717C304.311 95.6667 292.424 93.781 274.612 94.9692Z" fill="#DC771A"/>
<path d="M343.333 150.381C323.845 150.098 287.458 149.571 278.501 149.418C268.178 149.24 226.764 148.561 213.262 148.336C213.262 148.336 213.262 148.289 213.262 148.265C213.488 146.755 213.825 145.263 214.268 143.802C214.592 142.602 215.143 141.474 215.89 140.48C219.59 136.1 224.633 135.296 230.032 135.296C235.43 135.296 307.578 135.976 312.367 135.976C317.156 135.976 329.925 136.466 332.399 137.956C335.619 139.959 338.381 142.618 340.503 145.759C341.542 147.239 342.487 148.783 343.333 150.381Z" fill="#FFCB68"/>
<path d="M340.527 145.765C329.132 145.664 291.755 145.31 285.232 144.99C278.709 144.671 229.47 144.009 214.292 143.808C214.616 142.608 215.166 141.48 215.914 140.486C219.613 136.106 224.657 135.302 230.056 135.302C235.454 135.302 307.602 135.982 312.391 135.982C317.18 135.982 329.948 136.472 332.423 137.962C335.643 139.965 338.404 142.624 340.527 145.765V145.765Z" fill="white"/>
<path d="M334.453 124.011C334.483 125.822 334.368 127.633 334.11 129.426C333.518 133.02 332.127 134.61 329.516 136.372H309.922C307.128 136.372 306.702 133.67 306.702 131.051C306.702 128.433 307.578 127.209 307.578 127.209C307.578 127.209 311.302 127.635 311.485 123.662C311.574 121.889 311.615 120.5 311.645 119.288C311.681 117.757 311.681 116.557 311.681 115.422C311.681 113.383 316.807 108.837 324.153 111.349L324.331 111.408C331.541 113.903 334.453 116.303 334.453 124.011Z" fill="white"/>
<path d="M334.453 124.011C334.483 125.822 334.368 127.633 334.11 129.426L326.077 124.372C325.923 120.234 321.17 118.082 321.17 118.082L324.307 111.432C331.541 113.903 334.453 116.303 334.453 124.011Z" fill="#DC771A"/>
<path d="M319.34 127.593L312.166 136.372H309.899C307.105 136.372 306.678 133.67 306.678 131.051C306.678 128.433 307.555 127.209 307.555 127.209C307.555 127.209 311.278 127.635 311.462 123.662C311.55 121.889 311.592 120.5 311.621 119.288L316.298 121.771C316.298 121.771 314.877 125.501 319.34 127.593Z" fill="#DC771A"/>
<path d="M355.799 198.097C355.78 199.622 355.26 201.098 354.321 202.301C353.381 203.503 352.073 204.364 350.596 204.753C347.281 205.498 337.981 206.349 337.981 206.349C337.981 208.4 336.643 216.398 327.326 216.398C315.291 216.398 315.262 207.596 315.262 207.596H246.003C246.003 211.628 243.114 216.723 234.791 216.723C221.49 216.723 222.526 206.852 222.526 206.852C220.892 206.858 219.277 206.511 217.79 205.835C216.556 205.229 215.491 204.329 214.687 203.215C213.884 202.1 213.368 200.806 213.185 199.445C213.185 199.445 212.545 199.386 211.586 199.315L211.859 191.169L212.06 185.311L212.202 181.173L353.26 183.266C353.627 185.199 353.982 187.067 354.296 188.781C355.172 193.593 355.764 197.252 355.799 198.097Z" fill="#DC771A"/>
<path d="M326.118 195.531C319.127 195.531 315.599 200.201 315.599 206.763C315.599 213.324 316.967 216.717 326.118 216.717C335.27 216.717 337.673 210.954 337.673 206.119C337.673 201.283 335.85 195.531 326.118 195.531Z" fill="#83C3C0"/>
<path d="M325.858 202.146C322.898 202.111 322.957 204.062 322.898 205.362C322.839 206.662 323.543 208.584 326.124 208.708C328.705 208.832 329.084 207.082 329.285 205.362C329.487 203.642 328.392 202.176 325.858 202.146Z" fill="white"/>
<path d="M252.609 207.608H246.021C246.021 211.64 243.132 216.735 234.809 216.735C221.508 216.735 222.544 206.863 222.544 206.863C220.91 206.87 219.295 206.523 217.808 205.847C219.205 197.47 223.55 188.45 235.732 188.45C247.915 188.45 251.757 198.41 252.609 207.608Z" fill="#FFCB68"/>
<path d="M234.85 197.861H226.782C225.059 197.861 222.455 201.153 222.455 208.501C222.455 215.849 229.908 217.019 234.46 217.019C239.012 217.019 246.021 213.65 246.021 207.608C245.993 205.807 245.582 204.033 244.816 202.402C244.049 200.772 242.945 199.322 241.575 198.15L234.85 197.861Z" fill="#83C3C0"/>
<path d="M234.756 202.95C231.53 202.95 231.127 205.043 231.127 206.124C231.119 206.559 231.201 206.991 231.367 207.393C231.533 207.795 231.78 208.159 232.092 208.462C232.404 208.765 232.776 209.001 233.183 209.155C233.59 209.309 234.025 209.378 234.46 209.358C237.088 209.358 238.183 208.483 238.183 206.124C238.183 203.766 236.597 202.95 234.756 202.95Z" fill="white"/>
<path d="M349.874 167.772C342.894 167.991 326.515 168.493 325.852 168.618C325.017 168.771 320.524 168.972 319.488 166.75C318.452 164.527 316.825 150.565 316.825 150.565H343.463C345.07 153.722 346.486 156.973 347.701 160.3C348.558 162.751 349.283 165.245 349.874 167.772V167.772Z" fill="white"/>
<path d="M330.505 161.087C327.983 161.246 327.208 164.822 327.486 168.18C327.764 171.538 328.492 174.363 331.73 174.363C334.968 174.363 335.14 170.74 335.027 168.009C334.915 165.278 334.856 160.809 330.505 161.087Z" fill="#DC771A"/>
<path d="M237.023 149.424C237.023 149.424 236.378 163.936 236.307 165.029C236.236 166.123 236.449 167.684 239.012 167.825C241.575 167.967 299.859 168.683 302.138 168.612C304.417 168.541 304.861 166.566 305.062 165.029C305.264 163.492 304.837 150.565 304.837 150.565L237.023 149.424Z" fill="white"/>
<path d="M228.22 148.271V163.865C228.22 166.555 226.847 167.157 224.752 167.157H212.202C212.202 166.685 212.202 166.289 212.202 165.975C212.202 163.226 212.202 154.874 213.279 148.241L228.22 148.271Z" fill="white"/>
<path d="M354.296 188.805C350.975 188.976 346.198 188.314 346.198 183.213C346.198 178.484 349.353 176.828 351.827 176.285C352.751 180.612 353.615 185.051 354.296 188.805Z" fill="white"/>
<path d="M356.989 194.456C356.524 188.625 355.534 182.848 354.029 177.195C352.378 171.319 351.306 165.284 348.702 159.692C347.085 156.228 345.665 152.657 343.966 149.229C342.113 145.481 339.822 142.064 336.27 139.646C334.779 138.636 333.311 137.578 331.831 136.513C332.325 136.017 332.793 135.497 333.234 134.953C337.022 129.81 337.377 124.242 335.163 118.401C333.601 114.334 331.02 111.408 326.627 110.043C322.703 108.825 318.979 108.807 315.286 110.504C314.248 111.057 313.259 111.693 312.326 112.407C311.598 111.278 310.875 110.167 310.343 109.334C310.793 107.838 311.408 106.526 311.527 105.196C311.592 103.686 311.477 102.174 311.183 100.691C310.639 97.2746 309.342 95.2884 305.595 94.4608C304.092 94.1239 302.558 93.8697 301.067 93.6155C300.818 92.0667 300.587 90.5062 300.309 88.9397C299.871 86.3565 298.154 84.3821 295.573 84.1398C292.865 83.9131 290.144 83.8993 287.434 84.0984C283.971 84.3289 281.727 87.787 282.633 91.2569C282.691 91.6267 282.725 91.9999 282.734 92.3741C281.739 92.4273 280.834 92.4628 279.94 92.5337C278.134 92.6815 276.317 92.8116 274.517 93.0125C271.676 93.3258 270.09 95.4362 270.042 98.1672C269.995 100.898 270.386 103.795 270.569 106.396C268.03 106.396 265.188 106.271 262.341 106.301C259.221 106.331 256.113 106.52 253.734 109.008C250.028 105.887 245.979 105.887 241.717 107.466C238.307 108.736 235.797 111.136 233.619 113.921C231.052 117.091 229.567 120.997 229.381 125.069C229.256 127.883 229.452 130.709 229.505 133.576C217.595 133.576 215.055 137.17 213.575 140.823C211.651 145.814 210.687 151.122 210.734 156.47C210.675 164.462 210.734 172.466 210.734 180.458C210.734 183.561 210.651 186.659 210.616 189.685C208.437 189.798 206.419 189.88 204.412 190.028C203.809 190.092 203.229 190.293 202.716 190.616C202.203 190.939 201.77 191.375 201.452 191.89C200.953 192.625 200.621 193.462 200.482 194.339C200.343 195.217 200.399 196.114 200.647 196.968C201.239 199.48 202.038 200.083 204.601 200.142C206.336 200.184 208.064 200.278 209.805 200.243C211.166 200.213 211.859 200.722 212.415 202.052C213.972 205.799 216.695 208.128 221.046 208.111C221.502 210.475 222.686 218.213 232.749 218.349C245.393 218.514 246.618 213.78 247.11 208.891C252.988 209.11 263.033 209.275 268.118 209.405C270.8 209.464 273.482 209.435 276.163 209.405C279.265 209.346 282.385 209.192 285.492 209.127C287.783 209.068 290.074 209.092 292.371 209.068C299.289 208.978 306.211 208.883 313.137 208.785C313.889 208.785 314.173 209.056 314.321 209.795C314.836 212.458 316.377 214.812 318.612 216.351C321.17 218.166 324.165 218.491 327.131 218.473C331.582 218.426 335.347 216.777 337.561 212.692C338.461 211.025 338.958 209.145 339.662 207.307C342.717 207.088 345.984 206.828 349.258 206.651C353.2 206.444 355.627 204.103 356.776 200.704C357.427 198.794 357.178 196.519 356.989 194.456ZM203.844 197.553C203.758 197.563 203.671 197.547 203.595 197.506C202.494 196.613 202.689 195.372 202.695 194.184C202.681 193.988 202.708 193.792 202.775 193.607C202.841 193.423 202.945 193.254 203.081 193.112C203.216 192.97 203.38 192.858 203.561 192.783C203.742 192.708 203.937 192.672 204.134 192.676C206.223 192.523 208.337 192.422 210.509 192.298C210.704 194.142 210.87 195.709 211.101 197.618L203.844 197.553ZM352.976 187.031C348.832 187.197 347.766 186.168 347.157 183.313C346.683 181.084 348.69 177.733 350.998 177.798L352.976 187.031ZM343.084 153.567C344.747 157.705 346.44 161.843 348.056 165.857C347.879 166.158 347.843 166.277 347.802 166.283C344.25 166.501 340.657 166.673 337.093 166.933C336.045 167.01 335.732 166.584 335.613 165.644C335.483 164.709 335.285 163.784 335.021 162.878C334.536 161.158 333.66 159.786 331.677 159.573C330.87 159.486 330.057 159.654 329.351 160.054C328.646 160.454 328.084 161.066 327.746 161.802C326.929 163.404 326.746 164.663 326.562 167.122C325.58 167.122 323.804 167.081 322.602 167.016C321.4 166.951 320.548 166.484 320.311 165.284C319.82 162.848 319.352 160.401 318.962 157.942C318.63 155.914 318.411 153.875 318.121 151.664H319.477C326.112 151.747 338.455 151.889 340.237 151.895C342.149 151.924 342.551 152.237 343.084 153.562V153.567ZM333.613 170.036C333.53 171.313 333.5 172.862 332.429 173.471C331.911 173.718 331.323 173.779 330.765 173.642C329.901 173.24 329.155 172.164 329.084 170.456C330.901 170.284 332.186 170.172 333.636 170.03L333.613 170.036ZM328.806 167.134C329.007 165.739 329.019 164.444 329.439 163.286C329.631 162.971 329.897 162.707 330.214 162.518C330.53 162.329 330.888 162.219 331.257 162.198C331.736 162.198 332.411 162.972 332.659 163.557C333.015 164.597 333.292 165.662 333.488 166.744L328.806 167.134ZM331.896 131.317C331.363 132.967 330.528 134.462 328.735 134.947C327.902 135.072 327.054 135.058 326.225 134.906C322.898 134.651 318.382 134.823 315.309 134.563C316.428 133.138 318.305 130.916 319.82 129.166C320.003 128.953 324.041 131.501 327.515 126.121C328.901 127.493 330.369 128.923 331.789 130.384C331.877 130.52 331.934 130.673 331.957 130.833C331.979 130.993 331.966 131.157 331.92 131.312L331.896 131.317ZM317.618 121.463C318.144 120.815 318.878 120.368 319.696 120.198C320.613 120.05 321.554 120.196 322.382 120.615C323.211 121.035 323.885 121.707 324.307 122.533C325.449 124.715 322.3 126.931 319.672 125.938C317.044 124.945 316.777 122.947 317.642 121.458L317.618 121.463ZM325.313 113.365C330.404 114.825 333.914 120.914 332.831 126.121C331.126 125.069 329.475 124.076 327.835 123.048C327.589 122.897 327.398 122.671 327.29 122.403C326.616 120.193 325.005 118.809 322.987 117.538C323.798 116.137 324.573 114.736 325.337 113.359L325.313 113.365ZM313.516 115.073C315.599 113.199 319.494 112.118 322.442 112.62C321.921 113.897 321.258 115.73 320.737 116.9C320.737 116.9 317.263 116.9 316.091 120.122C315.286 119.684 314.451 119.282 313.664 118.797C312.622 118.147 312.551 115.948 313.539 115.067L313.516 115.073ZM310.485 128.226C311.065 128.141 311.603 127.87 312.015 127.452C312.427 127.035 312.692 126.496 312.77 125.915C312.887 125.319 312.972 124.717 313.024 124.112C313.095 123.521 313.119 122.929 313.16 122.338C313.977 122.409 314.859 122.462 314.883 123.054C314.942 124.2 313.936 126.08 317.902 128.445C316.647 129.674 313.604 132.76 313.273 133.138C312.089 134.456 312.089 134.77 309.674 134.456C308.431 134.291 308.443 133.274 308.271 132.423C308.073 131.449 307.958 130.46 307.927 129.467C307.95 129.304 308.013 129.148 308.11 129.014C308.207 128.88 308.335 128.772 308.484 128.699C309.142 128.477 309.82 128.316 310.508 128.22L310.485 128.226ZM309.822 123.645C309.769 124.372 308.194 125.329 307.14 125.323C301.221 125.276 295.301 125.176 289.352 125.176C278.791 125.176 268.225 125.264 257.664 125.276C255.226 125.276 254.894 124.78 254.829 122.663C254.829 121.936 254.829 121.203 254.829 120.393L309.845 121.126C309.887 122.007 309.911 122.835 309.845 123.639L309.822 123.645ZM297.841 128.799C297.841 128.575 300.131 128.48 301.309 128.451V134.309H297.858C297.906 132.837 297.752 130.236 297.864 128.793L297.841 128.799ZM303.31 134.32L302.908 128.409H303.245C303.837 128.409 305.021 128.338 305.151 128.77C305.572 130.177 305.779 132.653 306.051 134.309L303.31 134.32ZM295.615 134.19L291.353 134.09C291.211 132.121 291.086 130.301 290.956 128.439L295.419 128.533C295.485 130.454 295.55 132.287 295.615 134.184V134.19ZM288.588 128.403L288.517 133.794L283.716 133.753C283.462 131.909 283.231 130.206 282.982 128.35L288.588 128.403ZM280.603 133.782L275.98 133.688C275.849 131.926 275.705 130.064 275.547 128.102C277.862 128.131 277.525 128.149 279.691 128.19C279.89 128.207 280.088 128.237 280.283 128.279C280.419 130.088 280.508 131.826 280.585 133.777L280.603 133.782ZM267.337 127.788L273.055 127.871L272.978 133.717C271.404 133.717 269.823 133.747 268.243 133.747C267.307 133.747 267.361 133.191 267.302 132.831C267.041 131.182 267.526 129.52 267.337 127.783V127.788ZM264.602 133.7H261.163C261.269 131.926 261.364 129.562 261.471 127.788C262.388 127.984 264.43 127.517 264.602 127.96C265.082 129.225 264.425 132.328 264.602 133.717V133.7ZM285.836 89.6609C285.765 88.6914 286.197 88.0944 287.097 88.0826C289.849 88.0826 292.596 88.0826 295.331 88.2126C295.658 88.3052 295.958 88.4733 296.208 88.7033C296.458 88.9333 296.65 89.2188 296.769 89.5367C297.108 90.8022 297.355 92.0902 297.509 93.3909L285.818 92.7111C285.83 91.5525 285.913 90.6126 285.836 89.6786V89.6609ZM274.387 96.8962C280.628 96.5568 286.884 96.5726 293.123 96.9435C295.925 97.1288 298.721 97.3554 301.511 97.6233C302.661 97.7676 303.802 97.9808 304.926 98.2617C305.683 98.3702 306.379 98.7377 306.896 99.3015C307.412 99.8654 307.716 100.591 307.756 101.353C307.91 102.978 307.969 104.61 307.933 106.242C307.898 107.395 307.448 107.844 306.015 107.554C300.214 106.381 294.299 105.854 288.381 105.982C284.456 106.053 280.526 106.218 276.601 106.443C274.5 106.573 273.718 105.55 273.529 103.801C273.339 102.051 273.322 100.106 273.221 98.2617C273.174 97.4342 273.529 96.9613 274.387 96.914V96.8962ZM255.445 112.005C255.628 111.314 256.629 110.652 257.374 110.362C260.05 109.334 261.423 109.665 286.783 109.665C289.796 109.665 303.032 110.185 306.738 110.634C310.68 111.113 309.78 116.433 309.532 118.053L254.628 117.314C254.789 115.533 255.072 113.765 255.474 112.023L255.445 112.005ZM248.459 110.285C249.679 110.427 250.827 111.385 251.952 112.059C252.171 112.195 252.278 112.727 252.266 113.069C252.266 114.707 252.195 116.344 252.088 117.988C252.065 118.425 251.894 118.842 251.603 119.17C249.111 121.422 242.836 122.037 240.113 120.092C238.603 119.016 237.461 117.444 236.04 115.99C239.414 111.899 243.375 109.694 248.489 110.303L248.459 110.285ZM234.412 118.307C236.188 121.505 238.497 124.07 242.108 124.644C245.452 125.164 248.827 125.057 252.041 123.331C252.171 123.993 252.301 124.573 252.396 125.158C252.442 125.812 252.743 126.423 253.234 126.858C253.725 127.294 254.368 127.52 255.024 127.487C256.273 127.534 257.511 127.528 258.765 127.54L258.683 133.717L232.542 133.369C231.95 128.261 231.719 123.19 234.412 118.307ZM221.04 138.074C224.296 137.062 227.693 136.575 231.103 136.632C239.983 136.602 248.862 136.75 257.7 136.815C268.302 136.898 278.91 136.915 289.512 137.057C296.26 137.146 303.002 137.483 309.757 137.595C313.551 137.666 317.363 137.377 321.164 137.501C324.212 137.601 327.361 137.784 330.09 139.274C332.588 140.645 334.879 142.401 337.265 144.003L336.981 144.34L216.251 142.726C217.293 140.297 218.785 138.837 221.04 138.074ZM217.092 145.493C256.664 146.025 298.125 147.077 337.697 147.077C338.3 147.031 338.9 147.193 339.396 147.538C339.892 147.883 340.254 148.388 340.42 148.968L214.99 147.29C215.263 145.469 215.262 145.463 217.092 145.493ZM301.57 167.157L287.688 166.933H286.173L286.374 151.327C286.629 151.327 287.008 151.268 287.393 151.268C292.324 151.333 297.249 151.439 302.191 151.445C303.292 151.445 303.571 151.818 303.571 152.858C303.571 156.872 303.701 160.892 303.802 164.899C303.837 166.968 303.671 167.187 301.57 167.157ZM284.012 151.268L283.805 166.75L261.116 166.442L261.329 150.961L284.012 151.268ZM258.511 150.907L258.298 166.413C257.759 166.413 257.297 166.466 256.836 166.454C251.123 166.371 245.411 166.265 239.669 166.164C238.029 166.135 237.49 165.609 237.55 163.971C237.727 159.881 237.958 155.784 238.142 151.688C238.183 150.919 238.414 150.547 239.326 150.565C245.476 150.677 251.626 150.736 257.771 150.831C257.984 150.831 258.197 150.872 258.511 150.907ZM213.646 159.898C213.759 157.179 213.919 154.46 214.049 151.747C214.132 150.056 214.286 149.973 215.973 150.027C219.122 150.18 222.283 150.287 225.444 150.405C225.9 150.405 226.379 150.405 227.013 150.405C227.013 151.422 227.013 152.314 226.977 153.213C226.977 156.576 226.942 159.946 226.889 163.321C226.889 164.882 226.646 165.035 225.166 165.012C223.011 164.964 220.845 164.964 218.69 164.953L213.575 164.888C213.593 162.99 213.581 161.441 213.646 159.898ZM213.682 178.365C213.682 175.41 213.747 172.401 213.682 169.416C213.682 168.452 213.966 168.316 214.866 168.34C218.418 168.405 222.035 168.381 225.616 168.34C228.38 168.304 229.416 166.093 229.428 164.013C229.464 159.822 229.393 155.63 229.369 151.439C229.369 151.185 229.369 150.931 229.369 150.559L235.685 150.641C235.431 152.917 235.093 155.164 234.957 157.433C234.787 160.057 234.777 162.688 234.927 165.313C235.117 167.932 236.549 169.031 239.231 169.067C246.334 169.142 253.438 169.215 260.541 169.286C274.156 169.404 287.73 169.433 301.321 169.682C305.033 169.747 306.649 167.784 306.649 164.438C306.702 160.596 306.584 156.754 306.53 152.911C306.53 152.492 306.53 152.072 306.53 151.575L316.173 151.7C316.215 151.977 317.547 166.147 318.322 167.985C318.985 169.563 320.501 170.137 322.146 170.219C323.614 170.302 325.319 170.296 326.752 170.314C327.054 172.087 328.291 175.823 332.186 175.587C334.554 175.439 335.223 172.803 335.862 170.722C335.974 170.361 336.377 169.865 336.691 169.835C340.242 169.486 343.735 169.244 347.251 168.919C348.311 168.83 348.82 169.203 349.027 170.243C349.388 171.881 349.903 173.482 350.353 175.144C349.069 175.671 347.925 176.488 347.009 177.529C346.093 178.571 345.43 179.81 345.073 181.149C344.972 181.469 344.439 181.699 344.061 181.871C343.809 181.924 343.549 181.924 343.297 181.871C314.094 181.457 284.914 181.039 255.758 180.617C242.502 180.409 229.254 180.18 216.014 179.932L213.694 179.938C213.694 179.447 213.694 178.909 213.694 178.365H213.682ZM243.925 210.741C242.694 214.034 238.041 215.47 234.992 215.47C232.652 215.499 230.338 214.983 228.232 213.963C227.116 213.477 226.145 212.711 225.412 211.739C224.68 210.768 224.212 209.624 224.053 208.418C223.774 206.822 223.827 205.187 224.207 203.612C225.267 199.628 226.966 198.942 231.31 198.919C233.856 198.919 236.259 198.812 238.84 198.865C241.421 198.919 242.771 200.444 243.7 202.412C244.307 203.711 244.64 205.121 244.679 206.553C244.718 207.986 244.461 209.412 243.925 210.741ZM250.733 205.805C249.667 205.74 248.495 205.805 247.583 205.805C246.672 205.805 246.021 196.749 239.361 196.749C237.733 196.749 235.88 196.625 233.56 196.625C224.876 196.625 223.455 198.233 221.514 203.523C221.318 204.044 221.229 204.605 221.087 205.137C219.235 205.368 219.104 205.273 219.175 203.512C219.377 197.967 222.378 194.266 227.202 191.985C230.482 190.504 234.059 189.796 237.656 189.916C244.322 190.004 249.827 196.034 250.437 201.685C250.585 203.009 250.792 204.327 250.969 205.675C250.815 205.764 250.774 205.811 250.733 205.805ZM335.761 206.698C335.761 212.325 332.612 214.477 327.983 214.66C325.912 214.669 323.849 214.423 321.838 213.927C319.056 213.336 317.6 211.285 317.103 208.69C316.274 204.487 317.381 200.225 321.69 198.05C325.876 195.963 330.57 197.063 332.346 198.528C334.536 200.355 335.483 202.903 335.785 205.687C335.801 206.024 335.793 206.362 335.761 206.698ZM349.489 203.092C346.091 203.352 342.705 203.719 339.165 204.05C338.572 201.237 337.291 198.616 335.436 196.418C333.015 193.522 323.804 191.731 317.736 197.896C315.933 199.655 314.751 201.952 314.368 204.44C314.256 205.256 313.977 205.622 313.054 205.622C305.95 205.675 298.847 205.776 291.743 205.882C287.937 205.935 284.137 206.042 280.33 206.101C273.227 206.207 266.064 206.32 258.919 206.367C257.38 206.367 255.835 206.113 254.29 205.983C254.071 204.15 253.87 202.383 253.645 200.603C253.382 198.624 252.714 196.72 251.681 195.01C250.648 193.301 249.273 191.822 247.643 190.667C240 184.939 228.866 185.725 221.756 192.15C218.702 194.917 217.328 198.41 216.961 202.406C216.961 202.643 216.961 202.885 216.961 203.323C214.901 201.845 214.227 199.776 214.114 197.73C213.871 192.866 213.913 187.995 213.86 183.118C213.86 183.041 213.925 182.97 214.049 182.734H215.233C257.83 183.289 300.433 183.841 343.042 184.389C344.226 184.389 344.818 184.649 345.262 185.872C346.251 188.734 348.453 190.01 351.442 190.099C353.342 190.135 353.319 190.14 353.538 191.979C353.739 193.693 353.982 195.396 354.254 197.098C354.356 197.807 354.312 198.529 354.124 199.221C353.937 199.912 353.61 200.559 353.164 201.12C352.718 201.681 352.162 202.145 351.53 202.484C350.898 202.823 350.204 203.03 349.489 203.092Z" fill="#4B707D"/>
<path d="M260.009 196.566C260.204 195.147 263.418 195.165 265.064 195.153C270.948 195.118 276.832 195.248 282.716 195.325C288.127 195.396 292.365 195.449 297.776 195.555C298.474 195.555 303.103 195.673 303.216 196.903C303.328 198.132 301.57 198.351 297.888 198.351C286.724 198.127 275.559 197.896 264.395 197.66C263.3 197.636 259.813 197.985 260.009 196.566Z" fill="#4B707D"/>
<path d="M282.112 192.676C275.494 192.586 268.874 192.493 262.252 192.399C261.519 192.394 260.789 192.286 260.086 192.079C259.375 191.855 259.026 191.228 259.813 190.773C260.588 190.28 261.477 189.993 262.394 189.939C269.403 189.987 276.412 190.135 283.421 190.253C289.478 190.359 295.532 190.469 301.582 190.584C302.447 190.593 303.311 190.674 304.163 190.826C304.512 190.891 305.086 191.305 305.062 191.488C305.035 191.709 304.958 191.922 304.837 192.109C304.716 192.296 304.555 192.454 304.364 192.57C303.602 192.832 302.802 192.966 301.996 192.966C295.372 192.907 288.754 192.806 282.136 192.718L282.112 192.676Z" fill="#4B707D"/>
<path d="M235.211 201.437C237.414 201.437 239.403 203.594 239.355 205.894C239.308 208.43 237.088 210.824 234.815 210.806C232.388 210.806 229.902 208.672 229.937 206.668C229.979 203.991 232.583 201.419 235.211 201.437ZM236.928 206.379C236.928 204.836 236.111 204.014 234.525 204.014C232.938 204.014 231.973 204.777 231.991 206.101C231.991 207.248 233.353 208.253 234.91 208.27C236.236 208.312 236.922 207.644 236.928 206.379Z" fill="#4B707D"/>
<path d="M330.801 205.598C330.747 207.732 329.469 209.417 327.279 210.209C325.438 210.883 323.875 210.446 322.543 208.891C321.033 207.118 321.116 203.618 322.543 202.146C324.129 200.485 327.054 200.196 328.498 201.112C329.241 201.594 329.844 202.262 330.248 203.049C330.652 203.836 330.842 204.715 330.801 205.598ZM325.911 207.372C327.409 207.372 327.906 207.011 327.906 205.876C327.911 205.227 327.66 204.602 327.207 204.136C326.753 203.67 326.135 203.402 325.485 203.388C324.633 203.388 323.81 204.422 323.804 205.498C323.798 206.668 324.556 207.342 325.911 207.354V207.372Z" fill="#4B707D"/>
<path d="M236.455 230.183C235.217 230.183 233.986 230.107 232.749 230.077C231.926 230.077 231.121 229.988 230.914 229.007C230.795 228.416 232.027 227.517 232.897 227.494C235.265 227.429 237.597 227.346 239.941 227.346C267.171 227.293 354.591 227.24 371.119 227.269C372.392 227.269 373.67 227.37 374.937 227.5C375.328 227.535 376.008 227.813 376.014 228.002C376.079 228.584 375.932 229.169 375.6 229.651C375.134 230.04 374.544 230.25 373.937 230.242C366.438 230.29 358.94 230.311 351.442 230.307C335.406 230.272 258.754 230.183 236.455 230.183Z" fill="#4B707D"/>
<path d="M220.087 226.796C221.188 226.796 221.727 227.245 221.863 228.209C221.999 229.172 221.271 229.876 220.14 229.894C217.63 229.941 215.118 229.951 212.605 229.923C202.837 229.821 193.072 229.706 183.309 229.58C182.598 229.58 181.592 229.722 181.61 228.682C181.61 227.742 182.202 227.098 183.386 227.08C189.518 226.997 213.99 226.849 220.087 226.796Z" fill="#4B707D"/>
<path d="M291.921 233.606H331.097C332.559 233.606 333.465 234.026 333.465 234.705C333.465 235.385 332.642 235.793 331.049 235.793H279.756H253.065H252.325C250.898 235.793 249.845 235.432 249.892 234.977C249.969 234.238 251.04 233.677 252.396 233.677C258.316 233.677 264.249 233.677 270.196 233.677H291.945L291.921 233.606Z" fill="#4B707D"/>
<path d="M232.808 233.766C234.785 233.766 236.757 233.795 238.728 233.766C239.983 233.766 240.379 234.244 240.581 234.794C240.782 235.344 239.989 235.864 238.994 235.976C238.87 235.985 238.745 235.985 238.621 235.976C234.513 235.976 230.399 235.976 226.291 235.976C225.35 235.976 224.42 235.781 224.207 235.166C224.018 234.64 225.178 233.801 226.16 233.771C228.374 233.718 230.594 233.771 232.808 233.771V233.766Z" fill="#4B707D"/>
<path d="M414.823 221.795C414.823 222.871 409.685 223.244 407.637 223.244C330.221 223.275 252.806 223.265 175.394 223.214C165.42 223.214 155.439 223.054 145.471 222.918C144.92 222.918 144.382 222.434 143.837 222.174C144.358 221.671 144.796 220.962 145.423 220.725C146.051 220.489 146.962 220.607 147.75 220.607C178.307 220.578 217.103 220.53 249.188 220.507H258.748H258.795C258.937 220.507 259.073 220.507 259.215 220.507C308.885 220.507 358.558 220.52 408.235 220.548C410.082 220.56 414.823 220.725 414.823 221.795Z" fill="#4B707D"/>
<path d="M459.145 108.222C458.136 104.182 458.726 99.9126 460.792 96.2905C465.184 88.5103 473.561 87.6495 479.458 94.3182L480.764 95.7892C481.813 93.2189 483.042 90.7247 484.442 88.325C487.945 83.1056 492.809 80.0218 499.364 80C502.329 80 504.547 81.471 506.644 83.269C509.239 85.5461 511.275 88.3827 512.595 91.5614C512.903 92.2696 513.254 92.967 513.77 94.0458C514.126 93.4952 514.526 92.9741 514.967 92.4876C518.964 88.7718 523.18 88.8154 527.188 92.4876C530.317 95.3861 531.821 99.1236 532.941 103.079C533.139 103.744 533.249 104.441 533.424 105.258C535.379 105.062 537.212 104.779 539.057 104.714C542.636 104.524 546.159 105.662 548.939 107.906C553.726 111.786 552.76 118.389 547.007 120.699C542.902 122.376 538.634 123.629 534.27 124.437C521.928 126.616 486.408 127.411 474.495 126.801C462.581 126.191 454.511 124.851 451.491 123.848C450.081 123.473 448.854 122.605 448.037 121.404C447.22 120.202 446.868 118.749 447.045 117.31C447.341 114.248 447.923 111.219 452.062 110.271C454.368 109.672 456.63 108.931 459.145 108.222ZM503.822 122.388C522.829 122.388 536.257 120.644 545.634 116.852C548.039 115.883 548.17 112.842 546.458 111.971C542.142 108.473 534.72 110.413 532.458 110.718C530.833 110.936 529.614 110.434 529.439 108.538C529.373 107.754 529.274 106.969 529.142 106.196C528.644 102.279 526.893 98.6234 524.146 95.7675C523.679 95.2263 523.046 94.8514 522.345 94.6999C521.643 94.5485 520.911 94.6287 520.259 94.9284C518.072 95.7086 516.251 97.2601 515.143 99.2871C514.879 99.6669 514.529 99.9794 514.121 100.199C513.712 100.419 513.257 100.539 512.793 100.551C512.09 100.453 511.343 99.4614 510.959 98.6224C509.609 95.811 508.763 92.6837 507.05 90.1012C503.163 84.2061 499.485 82.8767 492.436 86.5925C486.726 89.5999 484.75 94.8739 483.773 100.758C483.608 101.739 483.487 103.046 482.345 103.559C481.203 104.071 480.018 102.545 479.205 101.706C477.964 100.442 477.141 98.7967 475.911 97.4564C472.551 93.6317 467.742 94.7867 465.107 97.9686C462.471 101.15 462.362 104.561 464.25 108.135C466.04 111.513 464.503 113.104 461.45 112.875C458.398 112.646 451.766 112.875 451.766 117.125C451.879 117.541 452.076 117.93 452.346 118.267C452.616 118.605 452.953 118.883 453.336 119.086C457.465 120.721 484.816 122.388 503.822 122.388Z" fill="#83C3C0" fill-opacity="0.2"/>
<path d="M20.5779 86.2362C19.2678 76.6752 23.2481 73.0663 33.9786 74.1941C34.5026 71.1491 34.827 68.0666 35.6131 65.1093C36.2176 62.9891 37.1479 60.9767 38.3706 59.1447C42.251 53.2302 49.2134 52.3405 54.7159 56.8641C58.9495 60.5101 62.3536 65.027 64.6977 70.1091C65.1345 70.9737 65.5213 71.8634 66.0328 72.941C67.7074 71.5906 69.7078 70.7089 71.8312 70.3854C73.9545 70.0619 76.1253 70.3081 78.1234 71.099C82.3033 72.6654 84.9984 75.9609 87.3815 79.8705C90.8253 77.1639 93.6202 76.3995 98.7484 77.1263C103.877 77.8531 106.235 80.8855 108.019 84.745C110.718 83.7446 113.648 83.552 116.454 84.1903C119.26 84.8286 121.821 86.2705 123.828 88.3413C128.669 92.9401 127.945 98.2782 121.819 100.747C117.468 102.353 112.932 103.398 108.318 103.854C98.7733 105.107 89.1907 106.06 79.6206 106.724C73.382 107.162 67.031 106.975 60.73 106.862C53.4557 106.736 46.1939 106.298 38.9196 106.147C34.7646 106.072 30.5847 106.448 26.4423 106.361C21.6923 106.487 17.0185 105.144 13.0541 102.514C7.40186 98.5163 7.66388 91.9627 13.8152 88.83C16.0196 87.8397 18.2774 86.9737 20.5779 86.2362V86.2362ZM13.6655 95.96C13.6655 97.7519 14.7136 100.546 26.0056 100.546C34.6648 100.546 43.3283 100.575 51.9958 100.634C60.2558 100.634 68.5408 101.135 76.7758 100.722C86.8824 100.208 96.9641 99.0802 107.033 97.99C111.388 97.5138 115.767 96.5364 120.01 95.6467C122.118 95.2082 121.881 93.9801 120.596 92.6895C117.839 89.8951 111.974 89.0305 108.269 90.8725C105.773 92.1256 103.852 91.3487 103.515 88.5543C103.178 85.76 102.117 83.542 98.8731 82.6398C93.8822 81.5246 91.3867 82.6398 88.0303 85.8477C86.271 87.5519 84.6116 86.7249 83.6009 84.4067C82.7647 82.4523 81.6919 80.609 80.4067 78.9182C77.5619 75.2342 70.063 74.5951 67.5551 79.244C66.507 81.1988 64.4981 81.0234 63.2254 79.1062C62.7263 78.3668 62.5392 77.4396 62.0775 76.6752C59.32 72.0513 56.7497 67.2897 53.6678 62.8914C52.8751 61.7816 51.7914 60.9145 50.5373 60.3865C49.2831 59.8586 47.9076 59.6904 46.5639 59.9008C45.2203 60.1112 43.9611 60.6919 42.9265 61.5783C41.8919 62.4647 41.1225 63.6219 40.7038 64.9214C39.8979 67.4735 39.4527 70.1267 39.3813 72.8032C39.4559 74.762 39.635 76.7155 39.9178 78.6551C39.9926 80.9732 38.5702 82.2013 36.4865 81.274C34.4028 80.3467 29.7238 76.0737 25.8683 80.9858C24.1963 82.8779 25.7186 84.8703 26.4173 86.7123C27.9021 90.6971 26.854 92.3386 22.487 92.5892C19.3177 92.7647 13.6655 94.1806 13.6655 95.96Z" fill="#83C3C0" fill-opacity="0.2"/>
<path d="M259.275 34.4347C256.926 29.3754 255.987 23.8735 260.672 19.5984C264.697 15.9305 269.242 18.1565 273.432 20.5723C275.146 14.2483 277.24 8.02539 285.023 8.00009C292.806 7.9748 296.386 13.1226 297.504 20.3826C302.214 16.955 307.178 14.7668 312.143 18.4348C317.78 22.596 316.751 28.49 314.682 34.3588C318.338 33.9695 322.016 34.8642 325.08 36.8884C325.586 37.1751 326.044 37.5377 326.439 37.9635C330.108 42.4283 330.146 46.8172 324.509 49.195C321.156 50.6107 317.591 51.4654 313.958 51.7246C307.851 52.142 301.694 51.8385 295.561 51.9776C288.921 52.1294 263.516 51.4843 258.742 50.8266C257.191 50.6458 255.658 50.337 254.159 49.9033C251.734 49.1697 249.334 48.2464 249.08 45.1982C248.674 40.7461 249.778 38.4062 253.219 36.7746C255.111 35.8765 257.18 35.2568 259.275 34.4347ZM323.811 44.8693C325.004 44.7808 324.814 40.7461 320.548 40.5058C317.026 40.2781 313.493 40.2781 309.972 40.5058C307.813 40.6575 307.064 39.848 307.648 37.9761C308.176 36.2576 309.001 34.6439 310.086 33.2078C311.076 32.0842 311.733 30.7086 311.984 29.2346C312.235 27.7606 312.07 26.2461 311.508 24.86C311.279 23.93 310.725 23.1115 309.946 22.5507C309.167 21.99 308.213 21.7236 307.255 21.7992C302.366 21.9257 299.357 24.5944 296.971 28.4774C296.31 29.5525 295.053 30.8552 293.695 30.4884C292.336 30.1216 293.301 20.7873 292.425 18.3968C291.628 16.3491 290.13 14.6472 288.197 13.5906C283.957 11.5289 279.45 14.2609 278.04 19.396C277.571 21.1288 277.824 23.0387 277.393 24.7841C277.131 26.0339 276.451 27.1578 275.463 27.9715C274.993 28.2877 273.457 27.3138 272.556 26.7067C271.442 25.7262 270.276 24.8058 269.064 23.9494C268.136 23.3714 267.048 23.1005 265.955 23.1755C264.863 23.2505 263.823 23.6674 262.982 24.3668C261.281 25.8972 261.561 28.1612 262.538 29.8813C263.694 31.943 265.407 33.6758 266.69 35.6742C267.16 36.4078 268.023 38.3429 267.21 38.3556C258.323 38.6085 253.498 41.4291 253.067 43.6425C252.635 45.8559 257.79 45.2488 259.948 45.3373C266.855 45.6029 273.762 45.6915 280.656 45.7547C290.813 45.8432 300.97 46.033 311.127 45.7547C315.369 45.7412 319.606 45.4539 323.811 44.8946V44.8693Z" fill="#83C3C0" fill-opacity="0.2"/>
</svg>
