<svg viewBox="0 0 34 34" fill="none" xmlns="http://www.w3.org/2000/svg">
<path fill-rule="evenodd" clip-rule="evenodd" d="M0.333298 17C0.333298 7.79504 7.79497 0.333374 17 0.333374C26.205 0.333374 33.6666 7.79504 33.6666 17C33.6666 26.205 26.205 33.6667 17 33.6667C7.79497 33.6667 0.333298 26.205 0.333298 17ZM18.6666 10.3334C18.6666 9.89135 18.491 9.46742 18.1785 9.15486C17.8659 8.8423 17.442 8.66671 17 8.66671C16.5579 8.66671 16.134 8.8423 15.8215 9.15486C15.5089 9.46742 15.3333 9.89135 15.3333 10.3334C15.3333 10.7754 15.5089 11.1993 15.8215 11.5119C16.134 11.8244 16.5579 12 17 12C17.442 12 17.8659 11.8244 18.1785 11.5119C18.491 11.1993 18.6666 10.7754 18.6666 10.3334ZM17 25.3334C17.442 25.3334 17.8659 25.1578 18.1785 24.8452C18.491 24.5327 18.6666 24.1087 18.6666 23.6667V17C18.6666 16.558 18.491 16.1341 18.1785 15.8215C17.8659 15.509 17.442 15.3334 17 15.3334C16.5579 15.3334 16.134 15.509 15.8215 15.8215C15.5089 16.1341 15.3333 16.558 15.3333 17V23.6667C15.3333 24.1087 15.5089 24.5327 15.8215 24.8452C16.134 25.1578 16.5579 25.3334 17 25.3334Z" fill="currentColor"/>
</svg>