<svg viewBox="0 0 20 20" fill="none" xmlns="http://www.w3.org/2000/svg">
<path d="M17.7106 5.35815C18.1838 5.07331 18.3403 4.4552 18.0096 4.01284C17.1365 2.84473 16.0157 1.87834 14.7232 1.18571C13.1359 0.335176 11.3484 -0.0709726 9.5495 0.0101528C7.75055 0.0912782 6.00689 0.656667 4.50263 1.64662C2.99838 2.63657 1.78935 4.01435 1.00322 5.63447C0.217082 7.25458 -0.116985 9.05692 0.0362895 10.8512C0.189564 12.6454 0.824493 14.365 1.87403 15.8283C2.92357 17.2916 4.34877 18.4443 5.99914 19.1648C7.3431 19.7515 8.79577 20.0338 10.2537 19.9968C10.8058 19.9828 11.1945 19.4773 11.1254 18.9294V18.9294C11.0563 18.3814 10.5552 17.9998 10.003 18C8.90402 18.0004 7.81301 17.7743 6.79931 17.3318C5.47902 16.7554 4.33886 15.8333 3.49923 14.6626C2.65959 13.492 2.15165 12.1163 2.02903 10.6809C1.90641 9.24554 2.17367 7.80367 2.80257 6.50757C3.43148 5.21148 4.3987 4.10926 5.60211 3.3173C6.80551 2.52533 8.20044 2.07302 9.6396 2.00812C11.0788 1.94322 12.5087 2.26814 13.7785 2.94857C14.7535 3.47099 15.6062 4.1881 16.286 5.05159C16.6276 5.48554 17.2374 5.643 17.7106 5.35815V5.35815Z" fill="currentColor"/>
<path d="M13.5 5H16.5C17.0523 5 17.5 4.55228 17.5 4V1" stroke="currentColor" stroke-width="2" stroke-linecap="round"/>
<path d="M10 4.5V9.58579C10 9.851 10.1054 10.1054 10.2929 10.2929L13 13" stroke="currentColor" stroke-width="2" stroke-linecap="round"/>
<circle cx="18" cy="9" r="1" fill="currentColor"/>
<circle cx="18" cy="13" r="1" fill="currentColor"/>
<circle cx="16" cy="16" r="1" fill="currentColor"/>
<circle cx="13" cy="18" r="1" fill="currentColor"/>
</svg>
