<svg viewBox="0 0 60 60" fill="none" xmlns="http://www.w3.org/2000/svg">
<path d="M31 40.2713C36.0518 40.2713 40.8966 38.2713 44.4687 34.7113C48.0408 31.1513 50.0476 26.3228 50.0476 21.2882C50.0476 16.2536 48.0408 11.4252 44.4687 7.86518C40.8966 4.30517 36.0518 2.30518 31 2.30518C25.9483 2.30518 21.1034 4.30517 17.5313 7.86518C13.9592 11.4252 11.9524 16.2536 11.9524 21.2882C11.9524 26.3228 13.9592 31.1513 17.5313 34.7113C21.1034 38.2713 25.9483 40.2713 31 40.2713Z" fill="#DC771A"/>
<path d="M31 28.4069C32.8944 28.4069 34.7113 27.6569 36.0508 26.3219C37.3903 24.9869 38.1429 23.1762 38.1429 21.2882C38.1429 19.4002 37.3903 17.5896 36.0508 16.2546C34.7113 14.9196 32.8944 14.1696 31 14.1696C29.1056 14.1696 27.2888 14.9196 25.9493 16.2546C24.6097 17.5896 23.8572 19.4002 23.8572 21.2882C23.8572 23.1762 24.6097 24.9869 25.9493 26.3219C27.2888 27.6569 29.1056 28.4069 31 28.4069Z" fill="white"/>
<rect x="28.6191" y="31.9662" width="4.76191" height="24.9153" rx="2.38095" fill="#DC771A"/>
</svg>
