<svg width="40" height="40" viewBox="0 0 40 40" fill="none" xmlns="http://www.w3.org/2000/svg">
<path d="M20 25C22.6522 25 25.1957 23.9464 27.0711 22.0711C28.9464 20.1957 30 17.6522 30 15C30 12.3478 28.9464 9.8043 27.0711 7.92893C25.1957 6.05357 22.6522 5 20 5C17.3478 5 14.8043 6.05357 12.9289 7.92893C11.0536 9.8043 10 12.3478 10 15C10 17.6522 11.0536 20.1957 12.9289 22.0711C14.8043 23.9464 17.3478 25 20 25Z" fill="#4B707D"/>
<path d="M20 18.3332C20.884 18.3332 21.7319 17.982 22.357 17.3569C22.9821 16.7317 23.3333 15.8839 23.3333 14.9998C23.3333 14.1158 22.9821 13.2679 22.357 12.6428C21.7319 12.0177 20.884 11.6665 20 11.6665C19.1159 11.6665 18.2681 12.0177 17.6429 12.6428C17.0178 13.2679 16.6666 14.1158 16.6666 14.9998C16.6666 15.8839 17.0178 16.7317 17.6429 17.3569C18.2681 17.982 19.1159 18.3332 20 18.3332Z" fill="white"/>
<path fill-rule="evenodd" clip-rule="evenodd" d="M29.9986 15C29.9983 17.3633 29.1613 19.6501 27.636 21.4553C26.1106 23.2604 23.9954 24.4671 21.6653 24.8617V33.3333C21.6653 33.7754 21.4897 34.1993 21.1771 34.5118C20.8646 34.8244 20.4407 35 19.9986 35C19.5566 35 19.1327 34.8244 18.8201 34.5118C18.5076 34.1993 18.332 33.7754 18.332 33.3333V24.8617C15.8652 24.4371 13.6472 23.1032 12.1159 21.1232C10.5845 19.1432 9.85114 16.6611 10.0604 14.1668C10.2697 11.6725 11.4066 9.34734 13.2464 7.65026C15.0863 5.95318 17.4956 5.00753 19.9986 5C22.6508 5 25.1943 6.05357 27.0697 7.92893C28.9451 9.8043 29.9986 12.3478 29.9986 15ZM19.9986 21.6667C21.7667 21.6667 23.4624 20.9643 24.7127 19.714C25.9629 18.4638 26.6653 16.7681 26.6653 15C26.6653 13.2319 25.9629 11.5362 24.7127 10.286C23.4624 9.03571 21.7667 8.33333 19.9986 8.33333C18.2305 8.33333 16.5348 9.03571 15.2846 10.286C14.0343 11.5362 13.332 13.2319 13.332 15C13.332 16.7681 14.0343 18.4638 15.2846 19.714C16.5348 20.9643 18.2305 21.6667 19.9986 21.6667V21.6667Z" fill="#4B707D"/>
</svg>
