<svg viewBox="0 0 40 36" fill="none" xmlns="http://www.w3.org/2000/svg">
<path d="M20 0C15.1674 0 11.25 3.9476 11.25 8.81754C11.25 12.7546 16.9688 19.9304 19.1597 22.5351C19.6035 23.0628 20.3972 23.0628 20.8403 22.5351C23.0313 19.9304 28.75 12.7546 28.75 8.81754C28.75 3.9476 24.8326 0 20 0ZM20 11.7567C18.3889 11.7567 17.0833 10.4411 17.0833 8.81754C17.0833 7.19399 18.3889 5.87836 20 5.87836C21.6111 5.87836 22.9167 7.19399 22.9167 8.81754C22.9167 10.4411 21.6111 11.7567 20 11.7567ZM1.39722 15.1123C0.984846 15.2785 0.631341 15.5654 0.382298 15.936C0.133256 16.3066 9.87644e-05 16.7438 0 17.1914L0 34.7089C0 35.5011 0.79375 36.0427 1.52361 35.7488L11.1111 31.3513V15.0402C10.4972 13.9219 9.99514 12.833 9.63542 11.7917L1.39722 15.1123ZM20 25.1699C19.0229 25.1699 18.0986 24.7374 17.4646 23.983C16.0993 22.3595 14.6472 20.5106 13.3333 18.6141V31.3506L26.6667 35.8293V18.6148C25.3528 20.5106 23.9014 22.3602 22.5354 23.9837C21.9014 24.7374 20.9771 25.1699 20 25.1699ZM38.4764 11.2781L28.8889 15.6756V35.83L38.6028 31.9146C39.0152 31.7485 39.3688 31.4616 39.6178 31.091C39.8669 30.7204 40 30.2831 40 29.8355V12.318C40 11.5258 39.2063 10.9841 38.4764 11.2781Z" fill="currentColor"/>
</svg>