<svg viewBox="0 0 319 162" fill="none" xmlns="http://www.w3.org/2000/svg">
<path d="M297.909 116.879C295.322 131.303 270.874 130.96 260.071 131.202C243.448 131.575 226.767 131.516 210.133 131.61C172.988 131.823 135.836 131.681 98.6911 131.723C89.8769 131.723 81.0626 131.681 72.2543 131.788C65.4231 131.864 54.7383 134.022 48.9726 129.423C33.3272 117.009 73.3317 116.064 70.7212 108.846C69.4781 105.417 52.4237 108.367 49.5883 108.621C41.1529 109.378 32.5221 110.578 24.0631 109.508C5.59399 107.173 12.6975 86.8088 26.496 82.7714C31.1133 81.4237 72.1892 82.0443 69.2945 73.1183C68.1106 69.5302 56.0939 71.54 50.0737 72.0957C41.7863 72.8582 35.6832 65.2564 33.5521 59.0436C28.7454 45.034 51.4766 32.1888 61.5991 27.3652C77.3511 19.852 94.3284 14.6619 111.418 11.0324C142.608 4.39996 179.493 -2.83541 211.376 3.12314C216.597 4.09849 226.767 6.14379 227.359 12.6994C228.17 21.2825 213.963 20.8451 210.098 26.3721C205.013 33.6252 219.983 32.1592 223.428 32.1356C231.87 32.0765 240.299 31.7868 248.741 31.645C263.107 31.3967 289.74 28.8076 295.221 46.9256C300.703 65.0436 273.597 70.1804 261.651 73.6622C256.022 75.3055 245.029 77.7705 244.313 85.1477C243.46 94.0146 261.817 91.8275 267.109 91.7565C275.195 91.6501 284.276 91.0117 291.711 94.6826C300.134 98.8441 299.359 108.852 297.909 116.879Z" fill="#D8EEED"/>
<path d="M311.926 99.7368C311.616 99.7545 311.306 99.7545 310.997 99.7368C309.387 99.5594 308.706 98.9565 308.925 97.4136C309.298 94.8363 309.819 92.2767 310.422 89.729C310.742 88.4167 311.565 88.0679 312.702 88.8305C314.641 90.1589 316.511 91.5874 318.301 93.1102C318.7 93.486 318.946 93.9958 318.991 94.5416C319.035 95.0873 318.876 95.6303 318.544 96.0659C316.881 98.253 314.803 99.7368 311.926 99.7368ZM316.816 94.8541L312.127 91.0768C311.677 93.3171 311.293 95.2146 310.902 97.1594C313.27 97.4905 315.046 96.391 316.822 94.8541H316.816Z" fill="#9CA3AF"/>
<path d="M58.0059 40.8782C57.7939 40.6503 57.5962 40.4094 57.414 40.1571C56.5379 38.7916 56.5793 37.8871 57.9171 37.0891C60.1547 35.7532 62.4752 34.5414 64.8312 33.4182C66.0506 32.8271 66.8379 33.2586 66.9622 34.6005C67.1516 36.9402 67.2168 39.2883 67.1576 41.6349C67.1208 42.1852 66.8794 42.7019 66.4808 43.0836C66.0821 43.4653 65.555 43.6844 65.0028 43.6979C62.2798 43.7866 59.8173 43.1127 58.0059 40.8782ZM64.8845 41.5994C64.8845 39.5896 64.8845 37.6803 64.8845 35.5818L59.3852 38.4605C60.6164 40.5236 62.5699 41.1856 64.8845 41.5994Z" fill="#9CA3AF"/>
<path d="M2.43297 51.0457C1.91205 49.8161 -0.248623 47.694 0.520921 46.9078C1.29047 46.1216 3.19656 48.6812 4.21473 49.5738C5.13818 48.6693 6.12679 47.7117 7.0976 46.7364C7.51789 46.3167 7.89673 45.826 8.56564 46.3167C8.70632 46.4083 8.82414 46.5308 8.9101 46.6749C8.99607 46.8189 9.04792 46.9808 9.06164 47.1479C9.07535 47.3151 9.05057 47.4831 8.98923 47.6393C8.92789 47.7954 8.83158 47.9354 8.7077 48.0487C7.80201 49.1541 6.79568 50.1649 5.74792 51.3117L7.90265 53.357C8.22754 53.6322 8.5359 53.9263 8.8261 54.2378C9.28191 54.7934 9.50686 55.5087 8.86754 55.9697C8.63557 56.0876 8.37898 56.149 8.11871 56.149C7.85844 56.149 7.60185 56.0876 7.36987 55.9697C6.59483 55.3936 5.87187 54.7508 5.20925 54.0486C4.84816 53.6998 4.53439 53.3038 4.1437 52.8663C3.33272 53.6348 0.852445 56.1412 0.142096 55.5441C-0.568253 54.9471 1.74038 52.0506 2.43297 51.0457Z" fill="#D8EEED"/>
<path d="M42.5972 9.15259C39.152 9.15259 38.3588 6.34474 38.3884 5.51716C38.4417 3.69058 40.9871 0.788156 43.1241 0.965494C45.261 1.14283 46.9244 3.11719 46.8179 5.77135C46.7232 7.76936 45.3794 9.15259 42.5972 9.15259ZM42.9287 3.45414C41.4725 3.45414 40.7858 4.08073 40.7799 5.42259C40.7799 6.56937 41.4074 7.04227 42.9287 7.03636C44.1126 7.03636 44.7815 6.55163 44.7638 5.7477C44.7283 4.26397 44.0949 3.46005 42.9287 3.45414Z" fill="#D8EEED"/>
<path d="M279.067 137.486C276.924 137.486 275.29 136.061 275.296 134.211C275.296 131.722 277.155 129.417 279.173 129.411C280.949 129.411 282.725 131.569 282.683 133.78C282.705 134.264 282.628 134.748 282.455 135.201C282.282 135.655 282.018 136.068 281.679 136.415C281.34 136.763 280.933 137.037 280.484 137.221C280.035 137.405 279.552 137.495 279.067 137.486ZM279.611 131.776C277.048 131.267 277.024 134.063 277.616 134.631C277.984 134.874 278.415 135.003 278.856 135.003C279.297 135.003 279.729 134.874 280.097 134.631C280.801 134.04 280.919 132.042 279.611 131.776Z" fill="#FFCB68"/>
<path d="M240.737 57.8732C238.594 57.8732 236.966 56.4545 236.966 54.6043C236.966 52.1098 238.825 49.8103 240.844 49.7985C242.62 49.7985 244.396 51.962 244.354 54.1728C244.375 54.6568 244.297 55.1401 244.124 55.5927C243.951 56.0454 243.686 56.4577 243.348 56.8045C243.009 57.1512 242.602 57.4249 242.153 57.6088C241.704 57.7926 241.222 57.8826 240.737 57.8732ZM241.282 52.1689C238.725 51.6546 238.701 54.4565 239.293 55.024C239.658 55.2712 240.088 55.4058 240.529 55.411C240.97 55.4163 241.402 55.292 241.773 55.0536C242.472 54.427 242.596 52.429 241.282 52.1452V52.1689Z" fill="#9CA3AF"/>
<path d="M29.9117 124.676C29.9117 126.852 28.1358 128.867 26.2356 128.856C24.1519 128.856 22.3228 127.271 22.3287 125.492C22.3287 122.726 23.9802 120.45 25.9396 120.444C26.4827 120.449 27.0191 120.563 27.5164 120.781C28.0137 120.999 28.4616 121.315 28.833 121.711C29.2043 122.107 29.4914 122.573 29.6768 123.083C29.8622 123.593 29.9421 124.135 29.9117 124.676ZM25.9219 122.802C24.8919 122.802 24.2703 123.571 24.2644 124.836C24.2567 125.066 24.2982 125.296 24.3861 125.509C24.474 125.722 24.6063 125.914 24.7743 126.072C24.9423 126.231 25.142 126.351 25.3603 126.427C25.5785 126.502 25.8103 126.53 26.0403 126.509C26.8809 126.509 27.9701 125.587 27.9997 124.848C27.976 124.308 27.7486 123.797 27.3631 123.417C26.9777 123.038 26.4628 122.818 25.9219 122.802Z" fill="#FFCB68"/>
<path d="M289.775 67.0593C289.28 66.5057 288.83 65.9126 288.431 65.286C288.236 64.9372 288.372 64.3993 288.36 63.9441C288.769 63.9855 289.272 63.8968 289.544 64.1037C290.228 64.6344 290.881 65.2048 291.498 65.8121C292.137 65.3096 292.806 64.8012 293.451 64.2633C293.996 63.8022 294.635 63.7727 294.913 64.3579C295.013 64.6204 295.052 64.9022 295.026 65.1819C295.001 65.4615 294.911 65.7317 294.765 65.9717C294.164 66.568 293.494 67.0918 292.77 67.5322C293.273 68.0879 293.735 68.5844 294.179 69.0928C294.434 69.3825 294.83 69.6839 294.854 70.0031C294.835 70.5707 294.75 71.1342 294.599 71.6819C294.084 71.5696 293.416 71.611 293.084 71.3095C292.349 70.615 291.662 69.8703 291.03 69.081C290.333 69.6406 289.602 70.156 288.84 70.6238C288.39 70.75 287.919 70.7882 287.455 70.7361C287.52 70.281 287.455 69.7253 287.685 69.4002C288.34 68.5838 289.038 67.8024 289.775 67.0593Z" fill="#FFCB68"/>
<path d="M260.816 9.26494C260.25 9.67415 259.657 10.0454 259.041 10.3762C258.865 10.4618 258.673 10.5107 258.478 10.5198C258.282 10.529 258.087 10.4982 257.904 10.4294C257.732 10.3467 257.65 9.67872 257.798 9.42453C258.305 8.60852 258.854 7.8193 259.443 7.06003C259.138 6.6417 258.869 6.1988 258.638 5.73592C258.265 4.97927 258.088 4.32903 258.603 3.90342C259.118 3.47781 259.751 4.18125 260.094 4.43543C260.564 4.84918 261.001 5.29775 261.403 5.77729C262.066 5.27483 262.8 4.7842 263.451 4.20489C264.007 3.71426 264.635 3.49554 265.002 4.16943C265.127 4.41772 265.193 4.69211 265.193 4.97041C265.193 5.2487 265.127 5.52309 265.002 5.77138C264.304 6.55159 263.537 7.26774 262.711 7.91125L264.06 9.54276C264.564 10.1339 264.688 10.8019 264.06 11.393C263.433 11.9841 262.876 11.5703 262.438 11.1329C261.882 10.5831 261.385 9.93291 260.816 9.26494Z" fill="#D8EEED"/>
<path d="M232.799 124.097C232.78 125.622 232.26 127.099 231.321 128.301C230.381 129.503 229.073 130.364 227.596 130.753C224.281 131.498 214.981 132.349 214.981 132.349C214.981 134.4 213.643 142.398 204.326 142.398C192.291 142.398 192.262 133.596 192.262 133.596H123.003C123.003 137.628 120.114 142.723 111.791 142.723C98.4899 142.723 99.5258 132.852 99.5258 132.852C90.7826 132.662 90.167 125.421 90.167 125.421C90.167 125.421 89.5276 125.362 88.5687 125.291C86.6271 125.143 83.4009 124.907 81.6783 124.854C79.1092 124.783 77.4103 120.905 78.8487 118.564C80.1747 116.407 87.6867 117.051 88.841 117.163H88.989C88.989 117.163 89.0186 114.704 89.0423 111.293C89.0955 105.465 89.1666 96.8994 89.1843 93.1339C89.1843 92.661 89.1843 92.2649 89.1843 91.9516C89.1843 89.2147 89.1843 80.9035 90.2498 74.3125C90.2498 74.3125 90.2498 74.2652 90.2498 74.2415C90.7944 70.8603 91.6232 67.9401 92.8781 66.4564C96.5779 62.0761 101.621 61.2722 107.02 61.2722C112.419 61.2722 184.566 61.952 189.355 61.952C194.144 61.952 206.913 62.4426 209.387 63.9323C214.247 66.8879 217.675 71.3568 220.309 76.3459L220.398 76.5233C222.005 79.6805 223.421 82.9317 224.636 86.2591C225.503 88.7087 226.238 91.2029 226.838 93.7309C227.489 96.3437 228.152 99.2639 228.792 102.231C229.295 104.596 229.774 106.96 230.224 109.236C230.591 111.169 230.946 113.037 231.26 114.751C232.172 119.593 232.764 123.252 232.799 124.097Z" fill="#E5E7EB"/>
<path d="M137.518 61.0416H108.026C108.026 61.0416 107.198 50.7974 109.163 45.0339C109.514 44.0157 109.983 43.0417 110.56 42.1315C113.318 37.6744 118.457 34.2222 122.47 34.2222C125.463 34.2642 128.372 35.2147 130.811 36.9473C130.811 36.9473 130.627 42.2675 130.521 46.0507C130.479 47.5107 130.456 48.7403 130.456 49.3551C130.456 51.5718 131.438 52.5471 133.131 52.5471C134.824 52.5471 137.275 52.8072 137.275 52.8072L137.518 61.0416Z" fill="#FFCB68"/>
<path d="M139.974 53.221C138.565 53.221 137.518 52.9609 137.518 54.0959V59.5047C137.518 60.415 138.003 60.6219 139.684 60.6219C141.365 60.6219 142.608 60.8584 142.608 59.4397V54.0959C142.608 53.286 142.07 53.221 139.974 53.221Z" fill="#FFCB68"/>
<path d="M154.767 53.221C152.843 53.221 151.417 52.9609 151.417 54.0959V59.5047C151.417 60.415 152.08 60.6219 154.377 60.6219C156.673 60.6219 158.366 60.8584 158.366 59.4397V54.0959C158.366 53.286 157.638 53.221 154.767 53.221Z" fill="#FFCB68"/>
<path d="M170.164 53.6112C168.24 53.6112 166.808 53.3511 166.808 54.4861V59.8949C166.808 60.8111 167.471 61.0181 169.767 61.0181C172.064 61.0181 173.757 61.2486 173.757 59.8358V54.5098C173.757 53.6763 173.029 53.6112 170.164 53.6112Z" fill="#FFCB68"/>
<path d="M181.311 53.6112C180.044 53.6112 179.103 53.3511 179.103 54.4861V59.8949C179.103 60.8111 179.541 61.0181 181.05 61.0181C182.56 61.0181 183.678 61.2486 183.678 59.8358V54.5098C183.678 53.6763 183.199 53.6112 181.311 53.6112Z" fill="#FFCB68"/>
<path d="M130.811 36.9473C130.811 36.9473 130.627 42.2675 130.521 46.0507C127.912 47.8582 124.817 48.835 121.641 48.8526C116.219 48.8526 112.596 45.1344 110.566 42.1315C113.324 37.6744 118.463 34.2222 122.476 34.2222C125.467 34.2654 128.374 35.2159 130.811 36.9473Z" fill="#D8EEED"/>
<path d="M188.959 49.7039C188.959 51.9561 188.633 53.2211 184.578 53.2211C180.523 53.2211 136.109 52.1571 133.078 52.1571C130.118 52.1571 130.817 48.1906 130.858 45.0636C130.858 44.9571 130.858 44.8507 130.858 44.7503C130.858 44.7503 130.757 40.772 130.858 38.5139C130.959 36.2558 133.226 34.2401 136.594 34.2401C139.962 34.2401 179.357 35.0735 183.122 35.0735C186.887 35.0735 188.254 37.3908 188.254 39.8676C188.254 41.2922 188.497 43.5976 188.704 45.7197C188.805 47.2744 188.959 48.7404 188.959 49.7039Z" fill="white"/>
<path d="M130.805 45.0516C130.805 44.9452 130.805 44.8388 130.805 44.7383C130.805 44.7383 130.704 40.76 130.805 38.5019C130.905 36.2438 133.173 34.2281 136.541 34.2281C139.909 34.2281 179.304 35.0616 183.069 35.0616C186.834 35.0616 188.201 37.3788 188.201 39.8556C188.201 41.2802 188.444 43.5856 188.651 45.7077L130.805 45.0516Z" fill="#FFCB68"/>
<path d="M151.612 20.9692C149.623 21.0992 148.7 21.8263 148.7 23.8243V31.8991C148.7 33.2469 148.268 34.1217 150.807 34.2222C153.347 34.3227 182.086 35.1325 183.957 35.1325C185.827 35.1325 187.136 33.9976 187.136 31.6863C187.136 29.375 186.922 23.6765 184.117 22.6716C181.311 21.6667 169.424 19.781 151.612 20.9692Z" fill="#FFCB68"/>
<path d="M220.333 76.3813C200.845 76.0976 164.458 75.5715 155.501 75.4178C145.178 75.2404 103.764 74.5606 90.2617 74.336C90.2617 74.336 90.2617 74.2887 90.2617 74.2651C90.4884 72.755 90.8247 71.2634 91.268 69.8021C91.5921 68.6017 92.1426 67.4742 92.89 66.4799C96.5897 62.0997 101.633 61.2958 107.032 61.2958C112.431 61.2958 184.578 61.9756 189.367 61.9756C194.156 61.9756 206.925 62.4662 209.399 63.9558C212.619 65.9593 215.381 68.618 217.503 71.7587C218.542 73.2392 219.487 74.7831 220.333 76.3813Z" fill="#FFCB68"/>
<path d="M217.527 71.7647C206.131 71.6642 168.755 71.3095 162.232 70.9903C155.708 70.6711 106.469 70.009 91.2917 69.8081C91.6158 68.6077 92.1663 67.4802 92.9136 66.4859C96.6134 62.1057 101.657 61.3018 107.056 61.3018C112.454 61.3018 184.602 61.9816 189.391 61.9816C194.18 61.9816 206.948 62.4722 209.423 63.9618C212.643 65.9653 215.404 68.624 217.527 71.7647Z" fill="white"/>
<path d="M211.453 50.0112C211.483 51.8224 211.368 53.633 211.11 55.4259C210.518 59.02 209.127 60.6101 206.516 62.3716H186.922C184.128 62.3716 183.702 59.6702 183.702 57.0515C183.702 54.4328 184.578 53.2092 184.578 53.2092C184.578 53.2092 188.302 53.6348 188.485 49.6624C188.574 47.889 188.615 46.4999 188.645 45.2881C188.681 43.7571 188.681 42.5571 188.681 41.4221C188.681 39.3827 193.807 34.837 201.153 37.3493L201.331 37.4084C208.541 39.9029 211.453 42.3029 211.453 50.0112Z" fill="white"/>
<path d="M211.453 50.0112C211.483 51.8224 211.368 53.633 211.11 55.4259L203.077 50.3718C202.923 46.2339 198.17 44.0822 198.17 44.0822L201.307 37.4321C208.541 39.903 211.453 42.3029 211.453 50.0112Z" fill="#FFCB68"/>
<path d="M196.34 53.5934L189.166 62.3716H186.899C184.105 62.3716 183.678 59.6701 183.678 57.0515C183.678 54.4328 184.555 53.2091 184.555 53.2091C184.555 53.2091 188.278 53.6348 188.462 49.6624C188.55 47.889 188.592 46.4999 188.621 45.2881L193.298 47.7708C193.298 47.7708 191.877 51.5008 196.34 53.5934Z" fill="#FFCB68"/>
<path d="M232.799 124.097C232.78 125.622 232.26 127.098 231.321 128.301C230.381 129.503 229.073 130.364 227.596 130.753C224.281 131.498 214.981 132.349 214.981 132.349C214.981 134.4 213.643 142.398 204.326 142.398C192.291 142.398 192.262 133.596 192.262 133.596H123.003C123.003 137.628 120.114 142.723 111.791 142.723C98.4899 142.723 99.5258 132.852 99.5258 132.852C97.8923 132.858 96.2767 132.511 94.7901 131.835C93.5562 131.229 92.4907 130.329 91.6875 129.215C90.8843 128.1 90.3682 126.806 90.1847 125.445C90.1847 125.445 89.5454 125.386 88.5864 125.315L88.8587 117.169L89.06 111.311L89.202 107.173L230.26 109.266C230.627 111.199 230.982 113.067 231.296 114.781C232.172 119.593 232.764 123.252 232.799 124.097Z" fill="#FFCB68"/>
<path d="M203.118 121.531C196.127 121.531 192.599 126.201 192.599 132.763C192.599 139.324 193.967 142.717 203.118 142.717C212.27 142.717 214.673 136.954 214.673 132.119C214.673 127.283 212.85 121.531 203.118 121.531Z" fill="#E5E7EB"/>
<path d="M202.858 128.146C199.898 128.111 199.957 130.062 199.898 131.362C199.839 132.662 200.543 134.584 203.124 134.708C205.705 134.832 206.084 133.082 206.285 131.362C206.487 129.642 205.391 128.176 202.858 128.146Z" fill="white"/>
<path d="M129.609 133.608H123.021C123.021 137.64 120.132 142.735 111.809 142.735C98.5076 142.735 99.5436 132.863 99.5436 132.863C97.91 132.87 96.2945 132.523 94.8079 131.847C96.2049 123.47 100.55 114.45 112.732 114.45C124.915 114.45 128.757 124.41 129.609 133.608Z" fill="#D8EEED"/>
<path d="M111.85 123.861H103.782C102.059 123.861 99.4548 127.153 99.4548 134.501C99.4548 141.849 106.908 143.019 111.46 143.019C116.012 143.019 123.021 139.65 123.021 133.608C122.993 131.807 122.582 130.033 121.816 128.402C121.049 126.772 119.945 125.322 118.575 124.15L111.85 123.861Z" fill="#E5E7EB"/>
<path d="M111.756 128.95C108.53 128.95 108.127 131.043 108.127 132.124C108.119 132.559 108.201 132.991 108.367 133.393C108.533 133.795 108.78 134.159 109.092 134.462C109.404 134.765 109.776 135.001 110.183 135.155C110.59 135.309 111.025 135.378 111.46 135.358C114.088 135.358 115.183 134.483 115.183 132.124C115.183 129.766 113.597 128.95 111.756 128.95Z" fill="white"/>
<path d="M226.874 93.7722C219.895 93.991 203.515 94.4934 202.852 94.6176C202.017 94.7712 197.524 94.9722 196.488 92.7496C195.453 90.527 193.825 76.5646 193.825 76.5646H220.463C222.07 79.7218 223.486 82.973 224.701 86.3004C225.558 88.7506 226.283 91.2448 226.874 93.7722Z" fill="white"/>
<path d="M207.505 87.0866C204.983 87.2462 204.208 90.8225 204.486 94.1801C204.764 97.5377 205.492 100.363 208.73 100.363C211.968 100.363 212.14 96.7397 212.027 94.0087C211.915 91.2777 211.856 86.8088 207.505 87.0866Z" fill="#FFCB68"/>
<path d="M114.023 75.4237C114.023 75.4237 113.378 89.9358 113.307 91.0294C113.236 92.123 113.449 93.6836 116.012 93.8254C118.575 93.9673 176.859 94.6825 179.138 94.6116C181.417 94.5407 181.861 92.5663 182.062 91.0294C182.264 89.4925 181.838 76.5645 181.838 76.5645L114.023 75.4237Z" fill="white"/>
<path d="M105.22 74.271V89.8649C105.22 92.5545 103.847 93.1574 101.752 93.1574H89.2021C89.2021 92.6845 89.2021 92.2885 89.2021 91.9752C89.2021 89.2265 89.2021 80.8739 90.2795 74.2414L105.22 74.271Z" fill="white"/>
<path d="M231.296 114.805C227.975 114.976 223.198 114.314 223.198 109.213C223.198 104.484 226.353 102.828 228.827 102.285C229.751 106.612 230.615 111.051 231.296 114.805Z" fill="white"/>
<path d="M233.989 120.456C233.524 114.625 232.534 108.848 231.029 103.195C229.378 97.319 228.306 91.2836 225.702 85.6915C224.085 82.2275 222.665 78.6571 220.966 75.2286C219.113 71.4809 216.822 68.0642 213.27 65.6465C211.779 64.6356 210.311 63.5775 208.831 62.5135C209.325 62.0175 209.793 61.4966 210.234 60.9529C214.022 55.8101 214.377 50.2417 212.163 44.4014C210.601 40.3345 208.02 37.4084 203.627 36.0429C199.703 34.8252 195.979 34.8074 192.286 36.504C191.248 37.0565 190.259 37.6932 189.326 38.4074C188.598 37.2784 187.875 36.167 187.343 35.3335C187.793 33.838 188.408 32.5257 188.527 31.1957C188.592 29.6859 188.477 28.1738 188.183 26.6913C187.639 23.2746 186.342 21.2884 182.595 20.4608C181.092 20.1239 179.558 19.8697 178.067 19.6155C177.818 18.0668 177.587 16.5062 177.309 14.9397C176.871 12.3565 175.154 10.3821 172.573 10.1398C169.865 9.91313 167.144 9.89929 164.434 10.0984C160.971 10.3289 158.727 13.787 159.633 17.2569C159.691 17.6267 159.725 17.9999 159.734 18.3741C158.739 18.4273 157.834 18.4628 156.94 18.5338C155.134 18.6815 153.317 18.8116 151.517 19.0126C148.676 19.3259 147.09 21.4362 147.042 24.1672C146.995 26.8982 147.386 29.7947 147.569 32.3956C145.03 32.3956 142.188 32.2715 139.341 32.3011C136.221 32.3306 133.113 32.5198 130.734 35.0084C127.028 31.8873 122.979 31.8873 118.717 33.4656C115.307 34.7365 112.797 37.1365 110.619 39.9207C108.052 43.0906 106.567 46.9969 106.381 51.0693C106.256 53.8831 106.452 56.7087 106.505 59.5756C94.5948 59.5756 92.0553 63.1696 90.5754 66.8228C88.6512 71.8136 87.6872 77.1222 87.734 82.4699C87.6748 90.4619 87.734 98.4658 87.734 106.458C87.734 109.561 87.6511 112.659 87.6156 115.685C85.4372 115.798 83.4187 115.88 81.4119 116.028C80.809 116.092 80.2287 116.293 79.7157 116.616C79.2026 116.939 78.7704 117.375 78.4521 117.89C77.9526 118.625 77.6215 119.462 77.4823 120.339C77.3432 121.217 77.3995 122.114 77.6471 122.968C78.239 125.48 79.0382 126.083 81.6014 126.142C83.3358 126.184 85.0643 126.278 86.8046 126.243C88.1662 126.213 88.8588 126.722 89.4152 128.052C90.9721 131.799 93.695 134.128 98.0459 134.111C98.5017 136.475 99.6856 144.213 109.749 144.349C122.393 144.514 123.618 139.78 124.11 134.891C129.988 135.11 140.033 135.275 145.118 135.405C147.8 135.464 150.482 135.435 153.163 135.405C156.265 135.346 159.385 135.192 162.492 135.127C164.783 135.068 167.074 135.092 169.371 135.068C176.289 134.978 183.211 134.883 190.137 134.785C190.889 134.785 191.173 135.056 191.321 135.795C191.836 138.458 193.377 140.812 195.612 142.351C198.17 144.166 201.165 144.491 204.131 144.473C208.582 144.426 212.347 142.777 214.561 138.692C215.461 137.025 215.958 135.145 216.662 133.307C219.717 133.088 222.984 132.828 226.258 132.651C230.2 132.444 232.627 130.103 233.776 126.704C234.427 124.795 234.178 122.519 233.989 120.456ZM80.8436 123.553C80.7579 123.563 80.6711 123.547 80.595 123.506C79.494 122.613 79.6893 121.372 79.6952 120.184C79.6812 119.988 79.7082 119.792 79.7745 119.607C79.8409 119.423 79.9451 119.254 80.0806 119.112C80.216 118.97 80.3796 118.858 80.561 118.783C80.7423 118.708 80.9374 118.672 81.1337 118.676C83.2233 118.523 85.3366 118.422 87.5091 118.298C87.7044 120.142 87.8702 121.709 88.101 123.618L80.8436 123.553ZM229.976 113.031C225.832 113.197 224.766 112.168 224.157 109.313C223.683 107.084 225.69 103.733 227.998 103.798L229.976 113.031ZM220.084 79.5675C221.747 83.7054 223.44 87.8432 225.056 91.857C224.879 92.1585 224.843 92.2767 224.802 92.2826C221.25 92.5013 217.657 92.6727 214.093 92.9328C213.045 93.0097 212.732 92.5841 212.613 91.6442C212.483 90.709 212.285 89.7844 212.021 88.8777C211.536 87.1575 210.66 85.7861 208.677 85.5733C207.87 85.4859 207.057 85.6541 206.351 86.0541C205.646 86.4541 205.084 87.0655 204.746 87.8019C203.929 89.4038 203.746 90.6629 203.562 93.122C202.58 93.122 200.804 93.0806 199.602 93.0156C198.4 92.9506 197.548 92.4836 197.311 91.2836C196.82 88.8481 196.352 86.4009 195.962 83.9418C195.63 81.9143 195.411 79.8749 195.121 77.6641H196.477C203.112 77.7468 215.455 77.8887 217.237 77.8946C219.149 77.9241 219.551 78.2374 220.084 79.5616V79.5675ZM210.613 96.0362C210.53 97.3131 210.5 98.8618 209.429 99.4707C208.911 99.7184 208.323 99.779 207.765 99.6421C206.901 99.2402 206.155 98.1643 206.084 96.4559C207.901 96.2845 209.186 96.1722 210.636 96.0303L210.613 96.0362ZM205.806 93.1338C206.007 91.7388 206.019 90.4442 206.439 89.2856C206.631 88.9709 206.897 88.7075 207.214 88.518C207.53 88.3286 207.888 88.2187 208.257 88.1979C208.736 88.1979 209.411 88.9723 209.659 89.5575C210.015 90.5975 210.292 91.6625 210.488 92.7437L205.806 93.1338ZM208.896 57.3175C208.363 58.9668 207.528 60.4623 205.735 60.947C204.902 61.0717 204.054 61.0577 203.225 60.9056C199.898 60.6515 195.382 60.8229 192.309 60.5628C193.428 59.1382 195.305 56.9155 196.82 55.1658C197.003 54.953 201.041 57.5008 204.515 52.1215C205.901 53.4929 207.369 54.9235 208.789 56.3835C208.877 56.5196 208.934 56.673 208.957 56.8333C208.979 56.9935 208.966 57.1567 208.92 57.3116L208.896 57.3175ZM194.618 47.4634C195.144 46.8151 195.878 46.3683 196.696 46.1984C197.613 46.0497 198.554 46.1957 199.382 46.6153C200.211 47.035 200.885 47.7066 201.307 48.5334C202.449 50.7146 199.3 52.9314 196.672 51.9383C194.044 50.9452 193.777 48.9472 194.642 47.4575L194.618 47.4634ZM202.313 39.365C207.404 40.8251 210.914 46.9137 209.831 52.1215C208.126 51.0693 206.475 50.0762 204.835 49.0477C204.589 48.8972 204.398 48.6712 204.29 48.4033C203.616 46.1925 202.005 44.8093 199.987 43.5384C200.798 42.1374 201.573 40.7364 202.337 39.3591L202.313 39.365ZM190.516 41.0734C192.599 39.1995 196.494 38.1177 199.442 38.6202C198.921 39.897 198.258 41.7295 197.737 42.8999C197.737 42.8999 194.263 42.9 193.091 46.1216C192.286 45.6842 191.451 45.2822 190.664 44.7975C189.622 44.1472 189.551 41.9482 190.539 41.0675L190.516 41.0734ZM187.485 54.2259C188.065 54.1411 188.603 53.8696 189.015 53.4525C189.427 53.0354 189.692 52.4955 189.77 51.9146C189.887 51.3186 189.972 50.7168 190.024 50.1117C190.095 49.5206 190.119 48.9294 190.16 48.3383C190.977 48.4092 191.859 48.4624 191.883 49.0536C191.942 50.2004 190.936 52.0801 194.902 54.4446C193.647 55.6742 190.604 58.7598 190.273 59.1382C189.089 60.4564 189.089 60.7697 186.674 60.4564C185.431 60.2909 185.443 59.2741 185.271 58.4229C185.073 57.4491 184.958 56.4604 184.927 55.4673C184.95 55.3035 185.013 55.1478 185.11 55.0139C185.207 54.8799 185.335 54.7717 185.484 54.6988C186.142 54.4767 186.82 54.3164 187.508 54.22L187.485 54.2259ZM186.822 49.6447C186.769 50.3718 185.194 51.3294 184.14 51.3235C178.221 51.2762 172.301 51.1757 166.352 51.1757C155.791 51.1757 145.225 51.2644 134.664 51.2762C132.226 51.2762 131.894 50.7796 131.829 48.6634C131.829 47.9363 131.829 47.2033 131.829 46.3935L186.845 47.1265C186.887 48.0073 186.911 48.8349 186.845 49.6388L186.822 49.6447ZM174.841 54.7993C174.841 54.5747 177.131 54.4801 178.309 54.4505V60.3086H174.858C174.906 58.8367 174.752 56.2358 174.864 54.7934L174.841 54.7993ZM180.31 60.3204L179.908 54.4092H180.245C180.837 54.4092 182.021 54.3382 182.151 54.7698C182.572 56.1766 182.779 58.6535 183.051 60.3086L180.31 60.3204ZM172.615 60.1904L168.353 60.0899C168.211 58.1214 168.086 56.3008 167.956 54.4387L172.419 54.5333C172.485 56.4545 172.55 58.287 172.615 60.1845V60.1904ZM165.588 54.4033L165.517 59.7943L160.716 59.7529C160.462 57.9086 160.231 56.2062 159.982 54.3501L165.588 54.4033ZM157.603 59.7825L152.98 59.6879C152.849 57.9264 152.705 56.0643 152.547 54.1018C154.862 54.1313 154.525 54.1491 156.691 54.1904C156.89 54.2072 157.088 54.2368 157.283 54.2791C157.419 56.088 157.508 57.8259 157.585 59.7766L157.603 59.7825ZM144.337 53.7885L150.055 53.8713L149.978 59.7175C148.404 59.7175 146.823 59.747 145.243 59.747C144.307 59.747 144.361 59.1914 144.302 58.8308C144.041 57.1815 144.526 55.5205 144.337 53.7826V53.7885ZM141.602 59.6997H138.163C138.269 57.9264 138.364 55.5619 138.471 53.7885C139.388 53.9836 141.43 53.5166 141.602 53.9599C142.082 55.2249 141.425 58.3283 141.602 59.7175V59.6997ZM162.836 15.6609C162.765 14.6914 163.197 14.0944 164.097 14.0826C166.849 14.0826 169.596 14.0826 172.331 14.2126C172.658 14.3052 172.958 14.4733 173.208 14.7033C173.458 14.9333 173.65 15.2188 173.769 15.5367C174.108 16.8022 174.355 18.0902 174.509 19.3909L162.818 18.7111C162.83 17.5525 162.913 16.6126 162.836 15.6786V15.6609ZM151.387 22.8963C157.628 22.5568 163.884 22.5726 170.123 22.9436C172.925 23.1288 175.721 23.3554 178.511 23.6233C179.661 23.7676 180.802 23.9808 181.926 24.2618C182.683 24.3702 183.379 24.7377 183.896 25.3015C184.412 25.8654 184.716 26.5906 184.756 27.3533C184.91 28.9781 184.969 30.6104 184.933 32.242C184.898 33.3947 184.448 33.8439 183.015 33.5543C177.214 32.3812 171.299 31.8538 165.381 31.9819C161.456 32.0528 157.526 32.2183 153.601 32.4429C151.5 32.573 150.718 31.5503 150.529 29.8006C150.339 28.0509 150.322 26.1061 150.221 24.2618C150.174 23.4342 150.529 22.9613 151.387 22.914V22.8963ZM132.445 38.0054C132.628 37.3138 133.629 36.6517 134.374 36.3621C137.05 35.3335 138.423 35.6646 163.783 35.6646C166.796 35.6646 180.032 36.1848 183.738 36.634C187.68 37.1128 186.78 42.433 186.532 44.0526L131.628 43.3137C131.789 41.5331 132.072 39.7654 132.474 38.0232L132.445 38.0054ZM125.459 36.2853C126.679 36.4271 127.827 37.3848 128.952 38.0586C129.171 38.1946 129.278 38.7266 129.266 39.0695C129.266 40.7069 129.195 42.3443 129.088 43.9876C129.065 44.4252 128.894 44.8419 128.603 45.1699C126.111 47.4221 119.836 48.0368 117.113 46.092C115.603 45.0162 114.461 43.4438 113.04 41.9896C116.414 37.899 120.375 35.6941 125.489 36.303L125.459 36.2853ZM111.412 44.3068C113.188 47.5048 115.497 50.0703 119.108 50.6437C122.452 51.1639 125.827 51.0575 129.041 49.3314C129.171 49.9935 129.301 50.5728 129.396 51.158C129.442 51.8124 129.743 52.423 130.234 52.8584C130.725 53.2939 131.368 53.5195 132.024 53.487C133.273 53.5343 134.511 53.5284 135.765 53.5402L135.683 59.7175L109.542 59.3687C108.95 54.2614 108.719 49.1895 111.412 44.3068ZM98.04 64.0741C101.296 63.0618 104.693 62.5749 108.103 62.6317C116.983 62.6022 125.862 62.7499 134.7 62.815C145.302 62.8977 155.91 62.9155 166.512 63.0573C173.26 63.146 180.002 63.4829 186.757 63.5953C190.551 63.6662 194.363 63.3765 198.164 63.5007C201.212 63.6012 204.361 63.7844 207.09 65.2741C209.588 66.6455 211.879 68.4011 214.265 70.0031L213.981 70.34L93.2511 68.7262C94.2929 66.2967 95.7846 64.8366 98.04 64.0741ZM94.0916 71.4927C133.664 72.0247 175.125 73.0769 214.697 73.0769C215.3 73.0305 215.9 73.1935 216.396 73.5382C216.892 73.8829 217.254 74.3881 217.42 74.9685L91.9902 73.2897C92.2625 71.4691 92.2625 71.4632 94.0916 71.4927ZM178.57 93.1575L164.688 92.9328H163.173L163.374 77.3271C163.629 77.3271 164.008 77.268 164.393 77.268C169.324 77.333 174.249 77.4394 179.191 77.4453C180.292 77.4453 180.571 77.8177 180.571 78.8581C180.571 82.8719 180.701 86.8915 180.802 90.8994C180.837 92.9683 180.671 93.187 178.57 93.1575ZM161.012 77.268L160.805 92.7496L138.116 92.4422L138.329 76.9606L161.012 77.268ZM135.511 76.9074L135.298 92.4126C134.759 92.4126 134.297 92.4659 133.836 92.454C128.123 92.3713 122.411 92.2649 116.669 92.1644C115.029 92.1348 114.49 91.6087 114.55 89.9713C114.727 85.8807 114.958 81.7842 115.142 77.6877C115.183 76.9192 115.414 76.5468 116.326 76.5646C122.476 76.6769 128.626 76.736 134.771 76.8306C134.984 76.8306 135.197 76.872 135.511 76.9074ZM90.6464 85.8984C90.7589 83.1793 90.9187 80.4601 91.049 77.7468C91.1318 76.0562 91.2858 75.9734 92.9728 76.0266C96.1221 76.1803 99.2831 76.2867 102.444 76.405C102.9 76.405 103.379 76.405 104.013 76.405C104.013 77.4217 104.013 78.3143 103.977 79.2128C103.977 82.5763 103.942 85.9457 103.889 89.3211C103.889 90.8816 103.646 91.0353 102.166 91.0117C100.011 90.9644 97.8447 90.9644 95.6899 90.9526L90.5754 90.8875C90.5932 88.99 90.5813 87.4413 90.6464 85.8984ZM90.682 104.365C90.682 101.41 90.7471 98.4007 90.682 95.4156C90.682 94.452 90.9661 94.3161 91.8659 94.3397C95.4176 94.4047 99.0345 94.3811 102.616 94.3397C105.38 94.3042 106.416 92.0934 106.428 90.0127C106.464 85.8216 106.393 81.6305 106.369 77.4394C106.369 77.1852 106.369 76.9311 106.369 76.5586L112.685 76.6414C112.431 78.9172 112.093 81.1635 111.957 83.4334C111.787 86.057 111.777 88.6884 111.927 91.3132C112.117 93.9318 113.549 95.0313 116.231 95.0668C123.334 95.1417 130.438 95.2146 137.541 95.2855C151.156 95.4037 164.73 95.4333 178.321 95.6816C182.033 95.7466 183.649 93.7841 183.649 90.4383C183.702 86.596 183.584 82.7536 183.53 78.9113C183.53 78.4916 183.53 78.0719 183.53 77.5754L193.173 77.6995C193.215 77.9774 194.547 92.1466 195.322 93.985C195.985 95.5633 197.501 96.1367 199.146 96.2195C200.614 96.3022 202.319 96.2963 203.752 96.3141C204.054 98.0874 205.291 101.823 209.186 101.587C211.554 101.439 212.223 98.8027 212.862 96.722C212.974 96.3614 213.377 95.8648 213.691 95.8353C217.242 95.4865 220.735 95.2441 224.251 94.919C225.311 94.8303 225.82 95.2028 226.027 96.2431C226.388 97.8806 226.903 99.4825 227.353 101.144C226.069 101.671 224.925 102.488 224.009 103.529C223.093 104.571 222.43 105.81 222.073 107.149C221.972 107.469 221.439 107.699 221.061 107.871C220.809 107.924 220.549 107.924 220.297 107.871C191.094 107.457 161.914 107.039 132.758 106.617C119.502 106.409 106.254 106.18 93.0143 105.932L90.6938 105.938C90.6938 105.447 90.6938 104.909 90.6938 104.365H90.682ZM120.925 136.741C119.694 140.034 115.041 141.47 111.992 141.47C109.652 141.499 107.338 140.983 105.232 139.963C104.116 139.477 103.145 138.711 102.412 137.739C101.68 136.768 101.212 135.624 101.053 134.418C100.774 132.822 100.827 131.187 101.207 129.612C102.267 125.628 103.966 124.942 108.31 124.919C110.856 124.919 113.259 124.812 115.84 124.865C118.421 124.919 119.771 126.444 120.7 128.412C121.307 129.711 121.64 131.121 121.679 132.553C121.718 133.986 121.461 135.412 120.925 136.741ZM127.733 131.805C126.667 131.74 125.495 131.805 124.583 131.805C123.672 131.805 123.021 122.749 116.361 122.749C114.733 122.749 112.88 122.625 110.56 122.625C101.876 122.625 100.455 124.233 98.5136 129.524C98.3182 130.044 98.2294 130.605 98.0874 131.137C96.2345 131.368 96.1043 131.273 96.1753 129.512C96.3766 123.967 99.3778 120.266 104.202 117.985C107.482 116.504 111.059 115.796 114.656 115.916C121.322 116.004 126.827 122.034 127.437 127.685C127.585 129.009 127.792 130.327 127.969 131.675C127.815 131.764 127.774 131.811 127.733 131.805ZM212.761 132.698C212.761 138.325 209.612 140.477 204.983 140.66C202.912 140.669 200.849 140.423 198.838 139.927C196.056 139.336 194.6 137.285 194.103 134.69C193.274 130.487 194.381 126.225 198.69 124.05C202.876 121.963 207.57 123.063 209.346 124.529C211.536 126.355 212.483 128.903 212.785 131.687C212.801 132.024 212.793 132.362 212.761 132.698ZM226.489 129.092C223.091 129.352 219.705 129.719 216.165 130.05C215.572 127.237 214.291 124.616 212.436 122.418C210.015 119.522 200.804 117.731 194.736 123.896C192.933 125.655 191.751 127.952 191.368 130.44C191.256 131.256 190.977 131.622 190.054 131.622C182.95 131.675 175.847 131.776 168.743 131.882C164.937 131.935 161.137 132.042 157.33 132.101C150.227 132.207 143.064 132.32 135.919 132.367C134.38 132.367 132.835 132.113 131.29 131.983C131.071 130.15 130.87 128.383 130.645 126.603C130.382 124.624 129.714 122.72 128.681 121.01C127.648 119.301 126.273 117.822 124.643 116.667C117 110.939 105.866 111.725 98.7563 118.15C95.7018 120.917 94.3284 124.41 93.9614 128.406C93.9614 128.643 93.9614 128.885 93.9614 129.323C91.9014 127.845 91.2266 125.776 91.1141 123.73C90.8714 118.866 90.9129 113.995 90.8596 109.118C90.8596 109.041 90.9247 108.97 91.049 108.734H92.2329C134.83 109.289 177.433 109.841 220.042 110.389C221.226 110.389 221.818 110.649 222.262 111.873C223.251 114.734 225.453 116.01 228.442 116.099C230.342 116.135 230.319 116.14 230.538 117.979C230.739 119.693 230.982 121.396 231.254 123.098C231.356 123.807 231.312 124.53 231.124 125.221C230.937 125.912 230.61 126.559 230.164 127.12C229.718 127.681 229.162 128.145 228.53 128.484C227.898 128.823 227.204 129.03 226.489 129.092Z" fill="#9CA3AF"/>
<path d="M137.009 122.566C137.204 121.147 140.418 121.165 142.064 121.153C147.948 121.118 153.832 121.248 159.716 121.325C165.127 121.396 169.365 121.449 174.776 121.555C175.474 121.555 180.103 121.673 180.216 122.903C180.328 124.132 178.57 124.351 174.888 124.351C163.724 124.127 152.559 123.896 141.395 123.66C140.3 123.636 136.813 123.985 137.009 122.566Z" fill="#9CA3AF"/>
<path d="M159.112 118.676C152.494 118.586 145.874 118.493 139.252 118.399C138.519 118.394 137.789 118.286 137.086 118.079C136.375 117.855 136.026 117.228 136.813 116.773C137.588 116.28 138.477 115.993 139.394 115.939C146.403 115.987 153.412 116.135 160.421 116.253C166.478 116.359 172.532 116.469 178.582 116.584C179.447 116.593 180.311 116.674 181.163 116.826C181.512 116.891 182.086 117.305 182.062 117.488C182.035 117.709 181.958 117.922 181.837 118.109C181.716 118.296 181.555 118.454 181.364 118.57C180.602 118.832 179.802 118.966 178.996 118.966C172.372 118.907 165.754 118.806 159.136 118.718L159.112 118.676Z" fill="#9CA3AF"/>
<path d="M112.211 127.437C114.414 127.437 116.403 129.594 116.355 131.894C116.308 134.43 114.088 136.824 111.815 136.806C109.388 136.806 106.902 134.672 106.937 132.668C106.979 129.991 109.583 127.419 112.211 127.437ZM113.928 132.379C113.928 130.836 113.111 130.014 111.525 130.014C109.938 130.014 108.973 130.777 108.991 132.101C108.991 133.248 110.353 134.253 111.91 134.27C113.236 134.312 113.922 133.644 113.928 132.379Z" fill="#9CA3AF"/>
<path d="M207.801 131.598C207.747 133.732 206.469 135.417 204.279 136.209C202.438 136.883 200.875 136.446 199.543 134.891C198.033 133.118 198.116 129.618 199.543 128.146C201.129 126.485 204.054 126.196 205.498 127.112C206.241 127.594 206.844 128.262 207.248 129.049C207.652 129.836 207.843 130.715 207.801 131.598ZM202.911 133.372C204.409 133.372 204.906 133.011 204.906 131.876C204.911 131.227 204.66 130.602 204.207 130.136C203.754 129.67 203.135 129.402 202.485 129.388C201.633 129.388 200.81 130.422 200.804 131.498C200.798 132.668 201.556 133.342 202.911 133.354V133.372Z" fill="#9CA3AF"/>
<path d="M113.455 156.183C112.217 156.183 110.986 156.107 109.749 156.077C108.926 156.077 108.121 155.988 107.914 155.007C107.795 154.416 109.027 153.517 109.897 153.494C112.265 153.429 114.597 153.346 116.941 153.346C144.171 153.293 231.591 153.24 248.119 153.269C249.392 153.269 250.67 153.37 251.937 153.5C252.328 153.535 253.008 153.813 253.014 154.002C253.079 154.584 252.932 155.169 252.6 155.651C252.134 156.04 251.544 156.25 250.937 156.242C243.438 156.29 235.94 156.311 228.442 156.308C212.406 156.272 135.754 156.183 113.455 156.183Z" fill="#9CA3AF"/>
<path d="M97.087 152.796C98.188 152.796 98.7267 153.245 98.8628 154.209C98.999 155.172 98.2709 155.876 97.1403 155.894C94.6304 155.941 92.1185 155.951 89.6046 155.923C79.8373 155.821 70.072 155.706 60.3086 155.58C59.5983 155.58 58.592 155.722 58.6097 154.682C58.6097 153.742 59.2017 153.098 60.3856 153.08C66.5183 152.997 90.9898 152.849 97.087 152.796Z" fill="#9CA3AF"/>
<path d="M168.921 159.606H208.097C209.559 159.606 210.465 160.026 210.465 160.705C210.465 161.385 209.642 161.793 208.049 161.793H156.756H130.065H129.325C127.898 161.793 126.845 161.432 126.892 160.977C126.969 160.238 128.04 159.677 129.396 159.677C135.316 159.677 141.249 159.677 147.196 159.677H168.945L168.921 159.606Z" fill="#9CA3AF"/>
<path d="M109.808 159.766C111.785 159.766 113.756 159.795 115.728 159.766C116.983 159.766 117.379 160.244 117.581 160.794C117.782 161.344 116.989 161.864 115.994 161.976C115.87 161.985 115.745 161.985 115.621 161.976C111.513 161.976 107.399 161.976 103.291 161.976C102.349 161.976 101.42 161.781 101.207 161.166C101.018 160.64 102.178 159.801 103.16 159.771C105.374 159.718 107.594 159.771 109.808 159.771V159.766Z" fill="#9CA3AF"/>
<path d="M291.823 147.795C291.823 148.871 286.685 149.243 284.637 149.243C207.221 149.275 129.806 149.265 52.3942 149.214C42.4197 149.214 32.4393 149.054 22.4707 148.918C21.9202 148.918 21.3815 148.434 20.8369 148.174C21.3578 147.671 21.7959 146.962 22.4234 146.725C23.0508 146.489 23.9624 146.607 24.7497 146.607C55.3066 146.577 94.1035 146.53 126.188 146.507H135.748H135.795C135.937 146.507 136.073 146.507 136.215 146.507C185.885 146.507 235.558 146.52 285.235 146.548C287.082 146.56 291.823 146.725 291.823 147.795Z" fill="#9CA3AF"/>
</svg>
