<svg viewBox="0 0 552 238" fill="none" xmlns="http://www.w3.org/2000/svg">
<path d="M414.909 190.879C412.322 205.303 387.874 204.96 377.071 205.202C360.448 205.575 343.767 205.516 327.133 205.61C289.988 205.823 252.836 205.681 215.691 205.723C206.877 205.723 198.063 205.681 189.254 205.788C182.423 205.864 171.738 208.022 165.973 203.423C150.327 191.009 190.332 190.064 187.721 182.846C186.478 179.418 169.424 182.367 166.588 182.621C158.153 183.378 149.522 184.578 141.063 183.508C122.594 181.173 129.697 160.809 143.496 156.771C148.113 155.424 189.189 156.044 186.295 147.118C185.111 143.53 173.094 145.54 167.074 146.096C158.786 146.858 152.683 139.256 150.552 133.044C145.745 119.034 168.477 106.189 178.599 101.365C194.351 93.8521 211.328 88.662 228.418 85.0325C259.608 78.4 296.493 71.1646 328.376 77.1232C333.597 78.0986 343.767 80.1438 344.359 86.6994C345.17 95.2826 330.963 94.8451 327.098 100.372C322.013 107.625 336.983 106.159 340.428 106.136C348.87 106.077 357.299 105.787 365.741 105.645C380.107 105.397 406.739 102.808 412.221 120.926C417.703 139.044 390.597 144.181 378.651 147.662C373.022 149.306 362.029 151.771 361.313 159.148C360.46 168.015 378.817 165.828 384.109 165.757C392.195 165.65 401.276 165.012 408.711 168.683C417.134 172.844 416.359 182.852 414.909 190.879Z" fill="#D8EEED"/>
<path d="M428.926 173.737C428.616 173.755 428.306 173.755 427.997 173.737C426.387 173.559 425.706 172.956 425.925 171.414C426.298 168.836 426.819 166.277 427.422 163.729C427.742 162.417 428.565 162.068 429.702 162.83C431.641 164.159 433.511 165.587 435.301 167.11C435.7 167.486 435.946 167.996 435.991 168.542C436.035 169.087 435.876 169.63 435.544 170.066C433.881 172.253 431.803 173.737 428.926 173.737ZM433.816 168.854L429.127 165.077C428.677 167.317 428.293 169.215 427.902 171.159C430.27 171.49 432.046 170.391 433.822 168.854H433.816Z" fill="#9CA3AF"/>
<path d="M175.006 114.878C174.794 114.65 174.596 114.409 174.414 114.157C173.538 112.792 173.579 111.887 174.917 111.089C177.155 109.753 179.475 108.541 181.831 107.418C183.051 106.827 183.838 107.259 183.962 108.6C184.152 110.94 184.217 113.288 184.158 115.635C184.121 116.185 183.879 116.702 183.481 117.084C183.082 117.465 182.555 117.684 182.003 117.698C179.28 117.787 176.817 117.113 175.006 114.878ZM181.884 115.599C181.884 113.59 181.884 111.68 181.884 109.582L176.385 112.461C177.616 114.524 179.57 115.186 181.884 115.599Z" fill="#9CA3AF"/>
<path d="M119.433 125.046C118.912 123.816 116.751 121.694 117.521 120.908C118.29 120.122 120.197 122.681 121.215 123.574C122.138 122.669 123.127 121.712 124.098 120.736C124.518 120.317 124.897 119.826 125.566 120.317C125.706 120.408 125.824 120.531 125.91 120.675C125.996 120.819 126.048 120.981 126.062 121.148C126.075 121.315 126.051 121.483 125.989 121.639C125.928 121.795 125.832 121.935 125.708 122.049C124.802 123.154 123.796 124.165 122.748 125.312L124.903 127.357C125.228 127.632 125.536 127.926 125.826 128.238C126.282 128.793 126.507 129.509 125.868 129.97C125.636 130.088 125.379 130.149 125.119 130.149C124.858 130.149 124.602 130.088 124.37 129.97C123.595 129.394 122.872 128.751 122.209 128.049C121.848 127.7 121.534 127.304 121.144 126.866C120.333 127.635 117.852 130.141 117.142 129.544C116.432 128.947 118.74 126.051 119.433 125.046Z" fill="#D8EEED"/>
<path d="M159.597 83.1526C156.152 83.1526 155.359 80.3448 155.388 79.5172C155.442 77.6906 157.987 74.7882 160.124 74.9655C162.261 75.1429 163.925 77.1172 163.818 79.7714C163.723 81.7694 162.379 83.1526 159.597 83.1526ZM159.929 77.4542C158.473 77.4542 157.786 78.0808 157.78 79.4226C157.78 80.5694 158.407 81.0423 159.929 81.0364C161.113 81.0364 161.782 80.5517 161.764 79.7477C161.728 78.264 161.095 77.4601 159.929 77.4542Z" fill="#D8EEED"/>
<path d="M396.067 211.486C393.924 211.486 392.29 210.061 392.296 208.211C392.296 205.722 394.155 203.417 396.173 203.411C397.949 203.411 399.725 205.569 399.683 207.78C399.705 208.264 399.628 208.748 399.455 209.201C399.282 209.655 399.018 210.068 398.679 210.415C398.34 210.763 397.933 211.037 397.484 211.221C397.035 211.405 396.552 211.495 396.067 211.486ZM396.611 205.776C394.048 205.267 394.024 208.063 394.616 208.631C394.984 208.874 395.415 209.003 395.856 209.003C396.297 209.003 396.729 208.874 397.097 208.631C397.801 208.04 397.919 206.042 396.611 205.776Z" fill="#FFCB68"/>
<path d="M357.737 131.873C355.594 131.873 353.967 130.455 353.967 128.604C353.967 126.11 355.825 123.81 357.844 123.798C359.62 123.798 361.396 125.962 361.354 128.173C361.375 128.657 361.297 129.14 361.124 129.593C360.951 130.045 360.686 130.458 360.348 130.804C360.009 131.151 359.602 131.425 359.153 131.609C358.704 131.793 358.222 131.883 357.737 131.873ZM358.282 126.169C355.725 125.655 355.701 128.457 356.293 129.024C356.658 129.271 357.088 129.406 357.529 129.411C357.97 129.416 358.402 129.292 358.773 129.054C359.472 128.427 359.596 126.429 358.282 126.145V126.169Z" fill="#9CA3AF"/>
<path d="M146.912 198.676C146.912 200.852 145.136 202.867 143.236 202.856C141.152 202.856 139.323 201.271 139.329 199.492C139.329 196.726 140.98 194.45 142.94 194.444C143.483 194.449 144.019 194.563 144.516 194.781C145.014 194.999 145.462 195.315 145.833 195.711C146.204 196.107 146.491 196.573 146.677 197.083C146.862 197.593 146.942 198.135 146.912 198.676V198.676ZM142.922 196.802C141.892 196.802 141.27 197.571 141.264 198.836C141.257 199.066 141.298 199.296 141.386 199.509C141.474 199.722 141.606 199.914 141.774 200.072C141.942 200.231 142.142 200.351 142.36 200.427C142.578 200.502 142.81 200.53 143.04 200.509C143.881 200.509 144.97 199.587 145 198.848C144.976 198.308 144.749 197.797 144.363 197.417C143.978 197.038 143.463 196.818 142.922 196.802V196.802Z" fill="#FFCB68"/>
<path d="M406.775 141.059C406.28 140.506 405.83 139.913 405.431 139.286C405.236 138.937 405.372 138.399 405.36 137.944C405.769 137.985 406.272 137.897 406.544 138.104C407.228 138.634 407.881 139.205 408.498 139.812C409.137 139.31 409.806 138.801 410.451 138.263C410.996 137.802 411.635 137.773 411.913 138.358C412.013 138.62 412.052 138.902 412.026 139.182C412.001 139.462 411.911 139.732 411.765 139.972C411.164 140.568 410.494 141.092 409.77 141.532C410.273 142.088 410.735 142.584 411.179 143.093C411.434 143.382 411.83 143.684 411.854 144.003C411.835 144.571 411.75 145.134 411.599 145.682C411.084 145.57 410.416 145.611 410.084 145.31C409.349 144.615 408.662 143.87 408.03 143.081C407.333 143.641 406.602 144.156 405.84 144.624C405.39 144.75 404.919 144.788 404.455 144.736C404.52 144.281 404.455 143.725 404.685 143.4C405.34 142.584 406.038 141.802 406.775 141.059Z" fill="#FFCB68"/>
<path d="M377.816 83.2649C377.25 83.6741 376.657 84.0454 376.041 84.3762C375.865 84.4618 375.673 84.5107 375.478 84.5198C375.282 84.529 375.087 84.4982 374.904 84.4294C374.732 84.3467 374.65 83.6787 374.798 83.4245C375.305 82.6085 375.854 81.8193 376.443 81.06C376.138 80.6417 375.869 80.1988 375.638 79.7359C375.265 78.9793 375.088 78.329 375.603 77.9034C376.118 77.4778 376.751 78.1812 377.094 78.4354C377.564 78.8492 378.001 79.2977 378.403 79.7773C379.066 79.2748 379.8 78.7842 380.451 78.2049C381.007 77.7143 381.635 77.4955 382.002 78.1694C382.127 78.4177 382.193 78.6921 382.193 78.9704C382.193 79.2487 382.127 79.5231 382.002 79.7714C381.304 80.5516 380.537 81.2677 379.711 81.9113L381.06 83.5428C381.564 84.1339 381.688 84.8019 381.06 85.393C380.433 85.9841 379.876 85.5703 379.438 85.1329C378.882 84.5831 378.385 83.9329 377.816 83.2649Z" fill="#D8EEED"/>
<path d="M349.799 198.097C349.78 199.622 349.26 201.099 348.321 202.301C347.381 203.503 346.072 204.364 344.596 204.753C341.281 205.498 331.981 206.349 331.981 206.349C331.981 208.4 330.643 216.398 321.326 216.398C309.291 216.398 309.262 207.596 309.262 207.596H240.003C240.003 211.628 237.114 216.723 228.791 216.723C215.49 216.723 216.526 206.852 216.526 206.852C207.783 206.662 207.167 199.421 207.167 199.421C207.167 199.421 206.528 199.362 205.569 199.291C203.627 199.143 200.401 198.907 198.678 198.854C196.109 198.783 194.41 194.905 195.849 192.564C197.175 190.407 204.687 191.051 205.841 191.163H205.989C205.989 191.163 206.019 188.704 206.042 185.293C206.095 179.465 206.167 170.899 206.184 167.134C206.184 166.661 206.184 166.265 206.184 165.952C206.184 163.215 206.184 154.904 207.25 148.312C207.25 148.312 207.25 148.265 207.25 148.242C207.794 144.86 208.623 141.94 209.878 140.456C213.578 136.076 218.621 135.272 224.02 135.272C229.419 135.272 301.566 135.952 306.355 135.952C311.144 135.952 323.913 136.443 326.387 137.932C331.247 140.888 334.675 145.357 337.309 150.346L337.398 150.523C339.005 153.68 340.42 156.932 341.636 160.259C342.503 162.709 343.238 165.203 343.838 167.731C344.489 170.344 345.152 173.264 345.792 176.231C346.295 178.596 346.774 180.96 347.224 183.236C347.591 185.169 347.946 187.037 348.26 188.751C349.172 193.593 349.764 197.252 349.799 198.097Z" fill="#E5E7EB"/>
<path d="M254.518 135.042H225.026C225.026 135.042 224.198 124.797 226.163 119.034C226.515 118.016 226.983 117.042 227.56 116.132C230.318 111.674 235.457 108.222 239.47 108.222C242.463 108.264 245.372 109.215 247.811 110.947C247.811 110.947 247.627 116.268 247.521 120.051C247.479 121.511 247.456 122.74 247.456 123.355C247.456 125.572 248.438 126.547 250.131 126.547C251.824 126.547 254.275 126.807 254.275 126.807L254.518 135.042Z" fill="#FFCB68"/>
<path d="M256.974 127.221C255.565 127.221 254.518 126.961 254.518 128.096V133.505C254.518 134.415 255.003 134.622 256.684 134.622C258.365 134.622 259.608 134.858 259.608 133.44V128.096C259.608 127.286 259.07 127.221 256.974 127.221Z" fill="#FFCB68"/>
<path d="M271.767 127.221C269.843 127.221 268.417 126.961 268.417 128.096V133.505C268.417 134.415 269.08 134.622 271.377 134.622C273.673 134.622 275.366 134.858 275.366 133.44V128.096C275.366 127.286 274.638 127.221 271.767 127.221Z" fill="#FFCB68"/>
<path d="M287.164 127.611C285.24 127.611 283.808 127.351 283.808 128.486V133.895C283.808 134.811 284.471 135.018 286.767 135.018C289.064 135.018 290.757 135.249 290.757 133.836V128.51C290.757 127.676 290.029 127.611 287.164 127.611Z" fill="#FFCB68"/>
<path d="M298.311 127.611C297.044 127.611 296.103 127.351 296.103 128.486V133.895C296.103 134.811 296.541 135.018 298.05 135.018C299.56 135.018 300.678 135.249 300.678 133.836V128.51C300.678 127.676 300.199 127.611 298.311 127.611Z" fill="#FFCB68"/>
<path d="M247.811 110.947C247.811 110.947 247.627 116.268 247.521 120.051C244.912 121.858 241.816 122.835 238.641 122.853C233.219 122.853 229.596 119.134 227.566 116.132C230.324 111.674 235.462 108.222 239.476 108.222C242.467 108.265 245.374 109.216 247.811 110.947V110.947Z" fill="#D8EEED"/>
<path d="M305.959 123.704C305.959 125.956 305.633 127.221 301.578 127.221C297.523 127.221 253.109 126.157 250.078 126.157C247.118 126.157 247.817 122.191 247.858 119.064C247.858 118.957 247.858 118.851 247.858 118.75C247.858 118.75 247.757 114.772 247.858 112.514C247.959 110.256 250.226 108.24 253.594 108.24C256.962 108.24 296.357 109.074 300.122 109.074C303.887 109.074 305.254 111.391 305.254 113.868C305.254 115.292 305.497 117.598 305.704 119.72C305.805 121.274 305.959 122.74 305.959 123.704Z" fill="white"/>
<path d="M247.805 119.052C247.805 118.945 247.805 118.839 247.805 118.738C247.805 118.738 247.704 114.76 247.805 112.502C247.905 110.244 250.173 108.228 253.541 108.228C256.909 108.228 296.304 109.062 300.069 109.062C303.834 109.062 305.201 111.379 305.201 113.856C305.201 115.28 305.444 117.586 305.651 119.708L247.805 119.052Z" fill="#FFCB68"/>
<path d="M268.612 94.9692C266.623 95.0993 265.7 95.8263 265.7 97.8244V105.899C265.7 107.247 265.268 108.122 267.807 108.222C270.347 108.323 299.086 109.133 300.957 109.133C302.827 109.133 304.136 107.998 304.136 105.686C304.136 103.375 303.922 97.6766 301.117 96.6717C298.311 95.6667 286.424 93.781 268.612 94.9692Z" fill="#FFCB68"/>
<path d="M337.333 150.381C317.845 150.098 281.458 149.571 272.501 149.418C262.178 149.24 220.764 148.561 207.262 148.336C207.262 148.336 207.262 148.289 207.262 148.265C207.488 146.755 207.825 145.263 208.268 143.802C208.592 142.602 209.143 141.474 209.89 140.48C213.59 136.1 218.633 135.296 224.032 135.296C229.43 135.296 301.578 135.976 306.367 135.976C311.156 135.976 323.925 136.466 326.399 137.956C329.619 139.959 332.381 142.618 334.503 145.759C335.542 147.239 336.487 148.783 337.333 150.381Z" fill="#FFCB68"/>
<path d="M334.527 145.765C323.132 145.664 285.755 145.31 279.232 144.99C272.709 144.671 223.47 144.009 208.292 143.808C208.616 142.608 209.166 141.48 209.914 140.486C213.613 136.106 218.657 135.302 224.056 135.302C229.454 135.302 301.602 135.982 306.391 135.982C311.18 135.982 323.948 136.472 326.423 137.962C329.643 139.965 332.404 142.624 334.527 145.765V145.765Z" fill="white"/>
<path d="M328.453 124.011C328.483 125.822 328.368 127.633 328.11 129.426C327.518 133.02 326.127 134.61 323.516 136.372H303.922C301.128 136.372 300.702 133.67 300.702 131.051C300.702 128.433 301.578 127.209 301.578 127.209C301.578 127.209 305.302 127.635 305.485 123.662C305.574 121.889 305.615 120.5 305.645 119.288C305.681 117.757 305.681 116.557 305.681 115.422C305.681 113.383 310.807 108.837 318.153 111.349L318.331 111.408C325.541 113.903 328.453 116.303 328.453 124.011Z" fill="white"/>
<path d="M328.453 124.011C328.483 125.822 328.368 127.633 328.11 129.426L320.077 124.372C319.923 120.234 315.17 118.082 315.17 118.082L318.307 111.432C325.541 113.903 328.453 116.303 328.453 124.011Z" fill="#FFCB68"/>
<path d="M313.34 127.593L306.166 136.372H303.899C301.105 136.372 300.678 133.67 300.678 131.051C300.678 128.433 301.555 127.209 301.555 127.209C301.555 127.209 305.278 127.635 305.462 123.662C305.55 121.889 305.592 120.5 305.621 119.288L310.298 121.771C310.298 121.771 308.877 125.501 313.34 127.593Z" fill="#FFCB68"/>
<path d="M349.799 198.097C349.78 199.622 349.26 201.098 348.321 202.301C347.381 203.503 346.073 204.364 344.596 204.753C341.281 205.498 331.981 206.349 331.981 206.349C331.981 208.4 330.643 216.398 321.326 216.398C309.291 216.398 309.262 207.596 309.262 207.596H240.003C240.003 211.628 237.114 216.723 228.791 216.723C215.49 216.723 216.526 206.852 216.526 206.852C214.892 206.858 213.277 206.511 211.79 205.835C210.556 205.229 209.491 204.329 208.687 203.215C207.884 202.1 207.368 200.806 207.185 199.445C207.185 199.445 206.545 199.386 205.586 199.315L205.859 191.169L206.06 185.311L206.202 181.173L347.26 183.266C347.627 185.199 347.982 187.067 348.296 188.781C349.172 193.593 349.764 197.252 349.799 198.097Z" fill="#FFCB68"/>
<path d="M320.118 195.531C313.127 195.531 309.599 200.201 309.599 206.763C309.599 213.324 310.967 216.717 320.118 216.717C329.27 216.717 331.673 210.954 331.673 206.119C331.673 201.283 329.85 195.531 320.118 195.531Z" fill="#E5E7EB"/>
<path d="M319.858 202.146C316.898 202.111 316.957 204.061 316.898 205.362C316.839 206.662 317.543 208.584 320.124 208.708C322.705 208.832 323.084 207.082 323.285 205.362C323.487 203.642 322.392 202.176 319.858 202.146Z" fill="white"/>
<path d="M246.609 207.608H240.021C240.021 211.64 237.132 216.735 228.809 216.735C215.508 216.735 216.544 206.863 216.544 206.863C214.91 206.87 213.295 206.523 211.808 205.847C213.205 197.47 217.55 188.45 229.732 188.45C241.915 188.45 245.757 198.41 246.609 207.608Z" fill="#D8EEED"/>
<path d="M228.85 197.861H220.782C219.059 197.861 216.455 201.153 216.455 208.501C216.455 215.849 223.908 217.019 228.46 217.019C233.012 217.019 240.021 213.65 240.021 207.608C239.993 205.807 239.582 204.033 238.816 202.402C238.049 200.772 236.945 199.322 235.575 198.15L228.85 197.861Z" fill="#E5E7EB"/>
<path d="M228.756 202.95C225.53 202.95 225.127 205.043 225.127 206.125C225.119 206.559 225.201 206.991 225.367 207.393C225.533 207.795 225.78 208.159 226.092 208.462C226.404 208.765 226.776 209.001 227.183 209.155C227.59 209.309 228.025 209.378 228.46 209.358C231.088 209.358 232.183 208.483 232.183 206.125C232.183 203.766 230.597 202.95 228.756 202.95Z" fill="white"/>
<path d="M343.874 167.772C336.894 167.991 320.515 168.493 319.852 168.618C319.017 168.771 314.524 168.972 313.488 166.75C312.452 164.527 310.825 150.565 310.825 150.565H337.463C339.07 153.722 340.486 156.973 341.701 160.3C342.558 162.751 343.283 165.245 343.874 167.772V167.772Z" fill="white"/>
<path d="M324.505 161.087C321.983 161.246 321.208 164.822 321.486 168.18C321.764 171.538 322.492 174.363 325.73 174.363C328.968 174.363 329.14 170.74 329.027 168.009C328.915 165.278 328.856 160.809 324.505 161.087Z" fill="#FFCB68"/>
<path d="M231.023 149.424C231.023 149.424 230.378 163.936 230.307 165.029C230.236 166.123 230.449 167.684 233.012 167.825C235.575 167.967 293.859 168.683 296.138 168.612C298.417 168.541 298.861 166.566 299.062 165.029C299.264 163.492 298.837 150.565 298.837 150.565L231.023 149.424Z" fill="white"/>
<path d="M222.22 148.271V163.865C222.22 166.555 220.847 167.157 218.752 167.157H206.202C206.202 166.685 206.202 166.289 206.202 165.975C206.202 163.226 206.202 154.874 207.279 148.241L222.22 148.271Z" fill="white"/>
<path d="M348.296 188.805C344.975 188.976 340.198 188.314 340.198 183.213C340.198 178.484 343.353 176.828 345.827 176.285C346.751 180.612 347.615 185.051 348.296 188.805Z" fill="white"/>
<path d="M350.989 194.456C350.524 188.625 349.534 182.848 348.029 177.195C346.378 171.319 345.306 165.284 342.702 159.692C341.085 156.228 339.665 152.657 337.966 149.229C336.113 145.481 333.822 142.064 330.27 139.646C328.779 138.636 327.311 137.578 325.831 136.513C326.325 136.017 326.793 135.497 327.234 134.953C331.022 129.81 331.377 124.242 329.163 118.401C327.601 114.334 325.02 111.408 320.627 110.043C316.703 108.825 312.979 108.807 309.286 110.504C308.248 111.057 307.259 111.693 306.326 112.407C305.598 111.278 304.875 110.167 304.343 109.334C304.793 107.838 305.408 106.526 305.527 105.196C305.592 103.686 305.477 102.174 305.183 100.691C304.639 97.2746 303.342 95.2884 299.595 94.4608C298.092 94.1239 296.558 93.8697 295.067 93.6155C294.818 92.0667 294.587 90.5062 294.309 88.9397C293.871 86.3565 292.154 84.3821 289.573 84.1398C286.865 83.9131 284.144 83.8993 281.434 84.0984C277.971 84.3289 275.727 87.787 276.633 91.2569C276.691 91.6267 276.725 91.9999 276.734 92.3741C275.739 92.4273 274.834 92.4628 273.94 92.5337C272.134 92.6815 270.317 92.8116 268.517 93.0125C265.676 93.3258 264.09 95.4362 264.042 98.1672C263.995 100.898 264.386 103.795 264.569 106.396C262.03 106.396 259.188 106.271 256.341 106.301C253.221 106.331 250.113 106.52 247.734 109.008C244.028 105.887 239.979 105.887 235.717 107.466C232.307 108.736 229.797 111.136 227.619 113.921C225.052 117.091 223.567 120.997 223.381 125.069C223.256 127.883 223.452 130.709 223.505 133.576C211.595 133.576 209.055 137.17 207.575 140.823C205.651 145.814 204.687 151.122 204.734 156.47C204.675 164.462 204.734 172.466 204.734 180.458C204.734 183.561 204.651 186.659 204.616 189.685C202.437 189.798 200.419 189.88 198.412 190.028C197.809 190.092 197.229 190.293 196.716 190.616C196.203 190.939 195.77 191.375 195.452 191.89C194.953 192.625 194.621 193.462 194.482 194.339C194.343 195.217 194.399 196.114 194.647 196.968C195.239 199.48 196.038 200.083 198.601 200.142C200.336 200.184 202.064 200.278 203.805 200.243C205.166 200.213 205.859 200.722 206.415 202.052C207.972 205.799 210.695 208.128 215.046 208.111C215.502 210.475 216.686 218.213 226.749 218.349C239.393 218.514 240.618 213.78 241.11 208.891C246.988 209.11 257.033 209.275 262.118 209.405C264.8 209.464 267.482 209.435 270.163 209.405C273.265 209.346 276.385 209.192 279.492 209.127C281.783 209.068 284.074 209.092 286.371 209.068C293.289 208.978 300.211 208.883 307.137 208.785C307.889 208.785 308.173 209.056 308.321 209.795C308.836 212.458 310.377 214.812 312.612 216.351C315.17 218.166 318.165 218.491 321.131 218.473C325.582 218.426 329.347 216.777 331.561 212.692C332.461 211.025 332.958 209.145 333.662 207.307C336.717 207.088 339.984 206.828 343.258 206.651C347.2 206.444 349.627 204.103 350.776 200.704C351.427 198.794 351.178 196.519 350.989 194.456ZM197.844 197.553C197.758 197.563 197.671 197.547 197.595 197.506C196.494 196.613 196.689 195.372 196.695 194.184C196.681 193.988 196.708 193.792 196.775 193.607C196.841 193.423 196.945 193.254 197.081 193.112C197.216 192.97 197.38 192.858 197.561 192.783C197.742 192.708 197.937 192.672 198.134 192.676C200.223 192.523 202.337 192.422 204.509 192.298C204.704 194.142 204.87 195.709 205.101 197.618L197.844 197.553ZM346.976 187.031C342.832 187.197 341.766 186.168 341.157 183.313C340.683 181.084 342.69 177.733 344.998 177.798L346.976 187.031ZM337.084 153.567C338.747 157.705 340.44 161.843 342.056 165.857C341.879 166.158 341.843 166.277 341.802 166.283C338.25 166.501 334.657 166.673 331.093 166.933C330.045 167.01 329.732 166.584 329.613 165.644C329.483 164.709 329.285 163.784 329.021 162.878C328.536 161.158 327.66 159.786 325.677 159.573C324.87 159.486 324.057 159.654 323.351 160.054C322.646 160.454 322.084 161.066 321.746 161.802C320.929 163.404 320.746 164.663 320.562 167.122C319.58 167.122 317.804 167.081 316.602 167.016C315.4 166.951 314.548 166.484 314.311 165.284C313.82 162.848 313.352 160.401 312.962 157.942C312.63 155.914 312.411 153.875 312.121 151.664H313.477C320.112 151.747 332.455 151.889 334.237 151.895C336.149 151.924 336.551 152.237 337.084 153.562V153.567ZM327.613 170.036C327.53 171.313 327.5 172.862 326.429 173.471C325.911 173.718 325.323 173.779 324.765 173.642C323.901 173.24 323.155 172.164 323.084 170.456C324.901 170.284 326.186 170.172 327.636 170.03L327.613 170.036ZM322.806 167.134C323.007 165.739 323.019 164.444 323.439 163.286C323.631 162.971 323.897 162.707 324.214 162.518C324.53 162.329 324.888 162.219 325.257 162.198C325.736 162.198 326.411 162.972 326.659 163.557C327.015 164.597 327.292 165.662 327.488 166.744L322.806 167.134ZM325.896 131.317C325.363 132.967 324.528 134.462 322.735 134.947C321.902 135.072 321.054 135.058 320.225 134.906C316.898 134.651 312.382 134.823 309.309 134.563C310.428 133.138 312.305 130.916 313.82 129.166C314.003 128.953 318.041 131.501 321.515 126.121C322.901 127.493 324.369 128.923 325.789 130.384C325.877 130.52 325.934 130.673 325.957 130.833C325.979 130.993 325.966 131.157 325.92 131.312L325.896 131.317ZM311.618 121.463C312.144 120.815 312.878 120.368 313.696 120.198C314.613 120.05 315.554 120.196 316.382 120.615C317.211 121.035 317.885 121.707 318.307 122.533C319.449 124.715 316.3 126.931 313.672 125.938C311.044 124.945 310.777 122.947 311.642 121.458L311.618 121.463ZM319.313 113.365C324.404 114.825 327.914 120.914 326.831 126.121C325.126 125.069 323.475 124.076 321.835 123.048C321.589 122.897 321.398 122.671 321.29 122.403C320.616 120.193 319.005 118.809 316.987 117.538C317.798 116.137 318.573 114.736 319.337 113.359L319.313 113.365ZM307.516 115.073C309.599 113.199 313.494 112.118 316.442 112.62C315.921 113.897 315.258 115.73 314.737 116.9C314.737 116.9 311.263 116.9 310.091 120.122C309.286 119.684 308.451 119.282 307.664 118.797C306.622 118.147 306.551 115.948 307.539 115.067L307.516 115.073ZM304.485 128.226C305.065 128.141 305.603 127.87 306.015 127.452C306.427 127.035 306.692 126.496 306.77 125.915C306.887 125.319 306.972 124.717 307.024 124.112C307.095 123.521 307.119 122.929 307.16 122.338C307.977 122.409 308.859 122.462 308.883 123.054C308.942 124.2 307.936 126.08 311.902 128.445C310.647 129.674 307.604 132.76 307.273 133.138C306.089 134.456 306.089 134.77 303.674 134.456C302.431 134.291 302.443 133.274 302.271 132.423C302.073 131.449 301.958 130.46 301.927 129.467C301.95 129.304 302.013 129.148 302.11 129.014C302.207 128.88 302.335 128.772 302.484 128.699C303.142 128.477 303.82 128.316 304.508 128.22L304.485 128.226ZM303.822 123.645C303.769 124.372 302.194 125.329 301.14 125.323C295.221 125.276 289.301 125.176 283.352 125.176C272.791 125.176 262.225 125.264 251.664 125.276C249.226 125.276 248.894 124.78 248.829 122.663C248.829 121.936 248.829 121.203 248.829 120.393L303.845 121.126C303.887 122.007 303.911 122.835 303.845 123.639L303.822 123.645ZM291.841 128.799C291.841 128.575 294.131 128.48 295.309 128.451V134.309H291.858C291.906 132.837 291.752 130.236 291.864 128.793L291.841 128.799ZM297.31 134.32L296.908 128.409H297.245C297.837 128.409 299.021 128.338 299.151 128.77C299.572 130.177 299.779 132.653 300.051 134.309L297.31 134.32ZM289.615 134.19L285.353 134.09C285.211 132.121 285.086 130.301 284.956 128.439L289.419 128.533C289.485 130.454 289.55 132.287 289.615 134.184V134.19ZM282.588 128.403L282.517 133.794L277.716 133.753C277.462 131.909 277.231 130.206 276.982 128.35L282.588 128.403ZM274.603 133.782L269.98 133.688C269.849 131.926 269.705 130.064 269.547 128.102C271.862 128.131 271.525 128.149 273.691 128.19C273.89 128.207 274.088 128.237 274.283 128.279C274.419 130.088 274.508 131.826 274.585 133.777L274.603 133.782ZM261.337 127.788L267.055 127.871L266.978 133.717C265.404 133.717 263.823 133.747 262.243 133.747C261.307 133.747 261.361 133.191 261.302 132.831C261.041 131.182 261.526 129.52 261.337 127.783V127.788ZM258.602 133.7H255.163C255.269 131.926 255.364 129.562 255.471 127.788C256.388 127.984 258.43 127.517 258.602 127.96C259.082 129.225 258.425 132.328 258.602 133.717V133.7ZM279.836 89.6609C279.765 88.6914 280.197 88.0944 281.097 88.0826C283.849 88.0826 286.596 88.0826 289.331 88.2126C289.658 88.3052 289.958 88.4733 290.208 88.7033C290.458 88.9333 290.65 89.2188 290.769 89.5367C291.108 90.8022 291.355 92.0902 291.509 93.3909L279.818 92.7111C279.83 91.5525 279.913 90.6126 279.836 89.6786V89.6609ZM268.387 96.8962C274.628 96.5568 280.884 96.5726 287.123 96.9435C289.925 97.1288 292.721 97.3554 295.511 97.6233C296.661 97.7676 297.802 97.9808 298.926 98.2617C299.683 98.3702 300.379 98.7377 300.896 99.3015C301.412 99.8654 301.716 100.591 301.756 101.353C301.91 102.978 301.969 104.61 301.933 106.242C301.898 107.395 301.448 107.844 300.015 107.554C294.214 106.381 288.299 105.854 282.381 105.982C278.456 106.053 274.526 106.218 270.601 106.443C268.5 106.573 267.718 105.55 267.529 103.801C267.339 102.051 267.322 100.106 267.221 98.2617C267.174 97.4342 267.529 96.9613 268.387 96.914V96.8962ZM249.445 112.005C249.628 111.314 250.629 110.652 251.374 110.362C254.05 109.334 255.423 109.665 280.783 109.665C283.796 109.665 297.032 110.185 300.738 110.634C304.68 111.113 303.78 116.433 303.532 118.053L248.628 117.314C248.789 115.533 249.072 113.765 249.474 112.023L249.445 112.005ZM242.459 110.285C243.679 110.427 244.827 111.385 245.952 112.059C246.171 112.195 246.278 112.727 246.266 113.069C246.266 114.707 246.195 116.344 246.088 117.988C246.065 118.425 245.894 118.842 245.603 119.17C243.111 121.422 236.836 122.037 234.113 120.092C232.603 119.016 231.461 117.444 230.04 115.99C233.414 111.899 237.375 109.694 242.489 110.303L242.459 110.285ZM228.412 118.307C230.188 121.505 232.497 124.07 236.108 124.644C239.452 125.164 242.827 125.057 246.041 123.331C246.171 123.993 246.301 124.573 246.396 125.158C246.442 125.812 246.743 126.423 247.234 126.858C247.725 127.294 248.368 127.52 249.024 127.487C250.273 127.534 251.511 127.528 252.765 127.54L252.683 133.717L226.542 133.369C225.95 128.261 225.719 123.19 228.412 118.307ZM215.04 138.074C218.296 137.062 221.693 136.575 225.103 136.632C233.983 136.602 242.862 136.75 251.7 136.815C262.302 136.898 272.91 136.915 283.512 137.057C290.26 137.146 297.002 137.483 303.757 137.595C307.551 137.666 311.363 137.377 315.164 137.501C318.212 137.601 321.361 137.784 324.09 139.274C326.588 140.645 328.879 142.401 331.265 144.003L330.981 144.34L210.251 142.726C211.293 140.297 212.785 138.837 215.04 138.074ZM211.092 145.493C250.664 146.025 292.125 147.077 331.697 147.077C332.3 147.031 332.9 147.193 333.396 147.538C333.892 147.883 334.254 148.388 334.42 148.968L208.99 147.29C209.263 145.469 209.262 145.463 211.092 145.493ZM295.57 167.157L281.688 166.933H280.173L280.374 151.327C280.629 151.327 281.008 151.268 281.393 151.268C286.324 151.333 291.249 151.439 296.191 151.445C297.292 151.445 297.571 151.818 297.571 152.858C297.571 156.872 297.701 160.892 297.802 164.899C297.837 166.968 297.671 167.187 295.57 167.157ZM278.012 151.268L277.805 166.75L255.116 166.442L255.329 150.961L278.012 151.268ZM252.511 150.907L252.298 166.413C251.759 166.413 251.297 166.466 250.836 166.454C245.123 166.371 239.411 166.265 233.669 166.164C232.029 166.135 231.49 165.609 231.55 163.971C231.727 159.881 231.958 155.784 232.142 151.688C232.183 150.919 232.414 150.547 233.326 150.565C239.476 150.677 245.626 150.736 251.771 150.831C251.984 150.831 252.197 150.872 252.511 150.907ZM207.646 159.898C207.759 157.179 207.919 154.46 208.049 151.747C208.132 150.056 208.286 149.973 209.973 150.027C213.122 150.18 216.283 150.287 219.444 150.405C219.9 150.405 220.379 150.405 221.013 150.405C221.013 151.422 221.013 152.314 220.977 153.213C220.977 156.576 220.942 159.946 220.889 163.321C220.889 164.882 220.646 165.035 219.166 165.012C217.011 164.964 214.845 164.964 212.69 164.953L207.575 164.888C207.593 162.99 207.581 161.441 207.646 159.898ZM207.682 178.365C207.682 175.41 207.747 172.401 207.682 169.416C207.682 168.452 207.966 168.316 208.866 168.34C212.418 168.405 216.035 168.381 219.616 168.34C222.38 168.304 223.416 166.093 223.428 164.013C223.464 159.822 223.393 155.63 223.369 151.439C223.369 151.185 223.369 150.931 223.369 150.559L229.685 150.641C229.431 152.917 229.093 155.164 228.957 157.433C228.787 160.057 228.777 162.688 228.927 165.313C229.117 167.932 230.549 169.031 233.231 169.067C240.334 169.142 247.438 169.215 254.541 169.286C268.156 169.404 281.73 169.433 295.321 169.682C299.033 169.747 300.649 167.784 300.649 164.438C300.702 160.596 300.584 156.754 300.53 152.911C300.53 152.492 300.53 152.072 300.53 151.575L310.173 151.7C310.215 151.977 311.547 166.147 312.322 167.985C312.985 169.563 314.501 170.137 316.146 170.219C317.614 170.302 319.319 170.296 320.752 170.314C321.054 172.087 322.291 175.823 326.186 175.587C328.554 175.439 329.223 172.803 329.862 170.722C329.974 170.361 330.377 169.865 330.691 169.835C334.242 169.486 337.735 169.244 341.251 168.919C342.311 168.83 342.82 169.203 343.027 170.243C343.388 171.881 343.903 173.482 344.353 175.144C343.069 175.671 341.925 176.488 341.009 177.529C340.093 178.571 339.43 179.81 339.073 181.149C338.972 181.469 338.439 181.699 338.061 181.871C337.809 181.924 337.549 181.924 337.297 181.871C308.094 181.457 278.914 181.039 249.758 180.617C236.502 180.409 223.254 180.18 210.014 179.932L207.694 179.938C207.694 179.447 207.694 178.909 207.694 178.365H207.682ZM237.925 210.741C236.694 214.034 232.041 215.47 228.992 215.47C226.652 215.499 224.338 214.983 222.232 213.963C221.116 213.477 220.145 212.711 219.412 211.739C218.68 210.768 218.212 209.624 218.053 208.418C217.774 206.822 217.827 205.187 218.207 203.612C219.267 199.628 220.966 198.942 225.31 198.919C227.856 198.919 230.259 198.812 232.84 198.865C235.421 198.919 236.771 200.444 237.7 202.412C238.307 203.711 238.64 205.121 238.679 206.553C238.718 207.986 238.461 209.412 237.925 210.741ZM244.733 205.805C243.667 205.74 242.495 205.805 241.583 205.805C240.672 205.805 240.021 196.749 233.361 196.749C231.733 196.749 229.88 196.625 227.56 196.625C218.876 196.625 217.455 198.233 215.514 203.523C215.318 204.044 215.229 204.605 215.087 205.137C213.235 205.368 213.104 205.273 213.175 203.512C213.377 197.967 216.378 194.266 221.202 191.985C224.482 190.504 228.059 189.796 231.656 189.916C238.322 190.004 243.827 196.034 244.437 201.685C244.585 203.009 244.792 204.327 244.969 205.675C244.815 205.764 244.774 205.811 244.733 205.805ZM329.761 206.698C329.761 212.325 326.612 214.477 321.983 214.66C319.912 214.669 317.849 214.423 315.838 213.927C313.056 213.336 311.6 211.285 311.103 208.69C310.274 204.487 311.381 200.225 315.69 198.05C319.876 195.963 324.57 197.063 326.346 198.528C328.536 200.355 329.483 202.903 329.785 205.687C329.801 206.024 329.793 206.362 329.761 206.698ZM343.489 203.092C340.091 203.352 336.705 203.719 333.165 204.05C332.572 201.237 331.291 198.616 329.436 196.418C327.015 193.522 317.804 191.731 311.736 197.896C309.933 199.655 308.751 201.952 308.368 204.44C308.256 205.256 307.977 205.622 307.054 205.622C299.95 205.675 292.847 205.776 285.743 205.882C281.937 205.935 278.137 206.042 274.33 206.101C267.227 206.207 260.064 206.32 252.919 206.367C251.38 206.367 249.835 206.113 248.29 205.983C248.071 204.15 247.87 202.383 247.645 200.603C247.382 198.624 246.714 196.72 245.681 195.01C244.648 193.301 243.273 191.822 241.643 190.667C234 184.939 222.866 185.725 215.756 192.15C212.702 194.917 211.328 198.41 210.961 202.406C210.961 202.643 210.961 202.885 210.961 203.323C208.901 201.845 208.227 199.776 208.114 197.73C207.871 192.866 207.913 187.995 207.86 183.118C207.86 183.041 207.925 182.97 208.049 182.734H209.233C251.83 183.289 294.433 183.841 337.042 184.389C338.226 184.389 338.818 184.649 339.262 185.872C340.251 188.734 342.453 190.01 345.442 190.099C347.342 190.135 347.319 190.14 347.538 191.979C347.739 193.693 347.982 195.396 348.254 197.098C348.356 197.807 348.312 198.529 348.124 199.221C347.937 199.912 347.61 200.559 347.164 201.12C346.718 201.681 346.162 202.145 345.53 202.484C344.898 202.823 344.204 203.03 343.489 203.092Z" fill="#9CA3AF"/>
<path d="M254.009 196.566C254.204 195.147 257.418 195.165 259.064 195.153C264.948 195.118 270.832 195.248 276.716 195.325C282.127 195.395 286.365 195.449 291.776 195.555C292.474 195.555 297.103 195.673 297.216 196.903C297.328 198.132 295.57 198.351 291.888 198.351C280.724 198.126 269.559 197.896 258.395 197.659C257.3 197.636 253.813 197.985 254.009 196.566Z" fill="#9CA3AF"/>
<path d="M276.112 192.676C269.494 192.586 262.874 192.493 256.252 192.399C255.519 192.394 254.789 192.286 254.086 192.079C253.375 191.855 253.026 191.228 253.813 190.773C254.588 190.28 255.477 189.993 256.394 189.939C263.403 189.987 270.412 190.135 277.421 190.253C283.478 190.359 289.532 190.469 295.582 190.584C296.447 190.593 297.311 190.674 298.163 190.826C298.512 190.891 299.086 191.305 299.062 191.488C299.035 191.709 298.958 191.922 298.837 192.109C298.716 192.296 298.555 192.454 298.364 192.57C297.602 192.832 296.802 192.966 295.996 192.966C289.372 192.907 282.754 192.806 276.136 192.718L276.112 192.676Z" fill="#9CA3AF"/>
<path d="M229.211 201.437C231.414 201.437 233.403 203.594 233.355 205.894C233.308 208.43 231.088 210.824 228.815 210.806C226.388 210.806 223.902 208.672 223.937 206.668C223.979 203.991 226.583 201.419 229.211 201.437ZM230.928 206.379C230.928 204.836 230.111 204.014 228.525 204.014C226.938 204.014 225.973 204.777 225.991 206.101C225.991 207.248 227.353 208.253 228.91 208.27C230.236 208.312 230.922 207.644 230.928 206.379Z" fill="#9CA3AF"/>
<path d="M324.801 205.598C324.747 207.732 323.469 209.417 321.279 210.209C319.438 210.883 317.875 210.446 316.543 208.891C315.033 207.118 315.116 203.618 316.543 202.146C318.129 200.485 321.054 200.196 322.498 201.112C323.241 201.594 323.844 202.262 324.248 203.049C324.652 203.836 324.842 204.715 324.801 205.598ZM319.911 207.372C321.409 207.372 321.906 207.011 321.906 205.876C321.911 205.227 321.66 204.602 321.207 204.136C320.753 203.67 320.135 203.402 319.485 203.388C318.633 203.388 317.81 204.422 317.804 205.498C317.798 206.668 318.556 207.342 319.911 207.354V207.372Z" fill="#9CA3AF"/>
<path d="M230.455 230.183C229.217 230.183 227.986 230.107 226.749 230.077C225.926 230.077 225.121 229.988 224.914 229.007C224.795 228.416 226.027 227.517 226.897 227.494C229.265 227.429 231.597 227.346 233.941 227.346C261.171 227.293 348.591 227.24 365.119 227.269C366.392 227.269 367.67 227.37 368.937 227.5C369.328 227.535 370.008 227.813 370.014 228.002C370.079 228.584 369.932 229.169 369.6 229.651C369.134 230.04 368.544 230.25 367.937 230.242C360.438 230.29 352.94 230.311 345.442 230.307C329.406 230.272 252.754 230.183 230.455 230.183Z" fill="#9CA3AF"/>
<path d="M214.087 226.796C215.188 226.796 215.727 227.245 215.863 228.209C215.999 229.172 215.271 229.876 214.14 229.894C211.63 229.941 209.118 229.951 206.605 229.923C196.837 229.821 187.072 229.706 177.309 229.58C176.598 229.58 175.592 229.722 175.61 228.682C175.61 227.742 176.202 227.098 177.386 227.08C183.518 226.997 207.99 226.849 214.087 226.796Z" fill="#9CA3AF"/>
<path d="M285.921 233.606H325.097C326.559 233.606 327.465 234.026 327.465 234.705C327.465 235.385 326.642 235.793 325.049 235.793H273.756H247.065H246.325C244.898 235.793 243.845 235.433 243.892 234.977C243.969 234.238 245.04 233.677 246.396 233.677C252.316 233.677 258.249 233.677 264.196 233.677H285.945L285.921 233.606Z" fill="#9CA3AF"/>
<path d="M226.808 233.766C228.785 233.766 230.757 233.795 232.728 233.766C233.983 233.766 234.379 234.244 234.581 234.794C234.782 235.344 233.989 235.864 232.994 235.976C232.87 235.985 232.745 235.985 232.621 235.976C228.513 235.976 224.399 235.976 220.291 235.976C219.35 235.976 218.42 235.781 218.207 235.166C218.018 234.64 219.178 233.801 220.16 233.771C222.374 233.718 224.594 233.771 226.808 233.771V233.766Z" fill="#9CA3AF"/>
<path d="M408.823 221.795C408.823 222.871 403.685 223.244 401.637 223.244C324.221 223.275 246.806 223.265 169.394 223.214C159.42 223.214 149.439 223.054 139.471 222.918C138.92 222.918 138.382 222.434 137.837 222.174C138.358 221.671 138.796 220.962 139.423 220.725C140.051 220.489 140.962 220.607 141.75 220.607C172.307 220.578 211.103 220.53 243.188 220.507H252.748H252.795C252.937 220.507 253.073 220.507 253.215 220.507C302.885 220.507 352.558 220.52 402.235 220.548C404.082 220.56 408.823 220.725 408.823 221.795Z" fill="#9CA3AF"/>
<path d="M455.145 108.222C454.136 104.182 454.726 99.9126 456.792 96.2905C461.184 88.5103 469.561 87.6495 475.458 94.3182L476.764 95.7892C477.813 93.2189 479.042 90.7247 480.442 88.325C483.945 83.1056 488.809 80.0218 495.364 80C498.329 80 500.547 81.471 502.644 83.269C505.239 85.5461 507.275 88.3827 508.595 91.5614C508.903 92.2696 509.254 92.967 509.77 94.0458C510.126 93.4952 510.526 92.9741 510.967 92.4876C514.964 88.7718 519.18 88.8154 523.188 92.4876C526.317 95.3861 527.821 99.1236 528.941 103.079C529.139 103.744 529.249 104.441 529.424 105.258C531.379 105.062 533.212 104.779 535.057 104.714C538.636 104.524 542.159 105.662 544.939 107.906C549.726 111.786 548.76 118.389 543.007 120.699C538.902 122.376 534.634 123.629 530.27 124.437C517.928 126.616 482.408 127.411 470.495 126.801C458.581 126.191 450.511 124.851 447.491 123.848C446.081 123.473 444.854 122.605 444.037 121.404C443.22 120.202 442.868 118.749 443.045 117.31C443.341 114.248 443.923 111.219 448.062 110.271C450.368 109.672 452.63 108.931 455.145 108.222ZM499.822 122.388C518.829 122.388 532.257 120.644 541.634 116.852C544.039 115.883 544.17 112.842 542.458 111.971C538.142 108.473 530.72 110.413 528.458 110.718C526.833 110.936 525.614 110.434 525.439 108.538C525.373 107.754 525.274 106.969 525.142 106.196C524.644 102.279 522.893 98.6234 520.146 95.7675C519.679 95.2263 519.046 94.8514 518.345 94.6999C517.643 94.5485 516.911 94.6287 516.259 94.9284C514.072 95.7086 512.251 97.2601 511.143 99.2871C510.879 99.6669 510.529 99.9794 510.121 100.199C509.712 100.419 509.257 100.539 508.793 100.551C508.09 100.453 507.343 99.4614 506.959 98.6224C505.609 95.811 504.763 92.6837 503.05 90.1012C499.163 84.2061 495.485 82.8767 488.436 86.5925C482.726 89.5999 480.75 94.8739 479.773 100.758C479.608 101.739 479.487 103.046 478.345 103.559C477.203 104.071 476.018 102.545 475.205 101.706C473.964 100.442 473.141 98.7967 471.911 97.4564C468.551 93.6317 463.742 94.7867 461.107 97.9686C458.471 101.15 458.362 104.561 460.25 108.135C462.04 111.513 460.503 113.104 457.45 112.875C454.398 112.646 447.766 112.875 447.766 117.125C447.879 117.541 448.076 117.93 448.346 118.267C448.616 118.605 448.953 118.883 449.336 119.086C453.465 120.721 480.816 122.388 499.822 122.388Z" fill="#83C3C0" fill-opacity="0.2"/>
<path d="M16.5779 86.2362C15.2678 76.6752 19.2481 73.0663 29.9786 74.1941C30.5026 71.1491 30.827 68.0666 31.6131 65.1093C32.2176 62.9891 33.1479 60.9767 34.3706 59.1447C38.251 53.2302 45.2134 52.3405 50.7159 56.8641C54.9495 60.5101 58.3536 65.027 60.6977 70.1091C61.1345 70.9737 61.5213 71.8634 62.0328 72.941C63.7074 71.5906 65.7078 70.7089 67.8312 70.3854C69.9545 70.0619 72.1253 70.3081 74.1234 71.099C78.3033 72.6654 80.9984 75.9609 83.3815 79.8705C86.8253 77.1639 89.6202 76.3995 94.7484 77.1263C99.8766 77.8531 102.235 80.8855 104.019 84.745C106.718 83.7446 109.648 83.552 112.454 84.1903C115.26 84.8286 117.821 86.2705 119.828 88.3413C124.669 92.9401 123.945 98.2782 117.819 100.747C113.468 102.353 108.932 103.398 104.318 103.854C94.7733 105.107 85.1907 106.06 75.6206 106.724C69.382 107.162 63.031 106.975 56.73 106.862C49.4557 106.736 42.1939 106.298 34.9196 106.147C30.7646 106.072 26.5847 106.448 22.4423 106.361C17.6923 106.487 13.0185 105.144 9.05409 102.514C3.40186 98.5163 3.66388 91.9627 9.81521 88.83C12.0196 87.8397 14.2774 86.9737 16.5779 86.2362V86.2362ZM9.66548 95.96C9.66548 97.7519 10.7136 100.546 22.0056 100.546C30.6648 100.546 39.3283 100.575 47.9958 100.634C56.2558 100.634 64.5408 101.135 72.7758 100.722C82.8824 100.208 92.9641 99.0802 103.033 97.99C107.388 97.5138 111.767 96.5364 116.01 95.6467C118.118 95.2082 117.881 93.9801 116.596 92.6895C113.839 89.8951 107.974 89.0305 104.269 90.8725C101.773 92.1256 99.8516 91.3487 99.5147 88.5543C99.1778 85.76 98.1172 83.542 94.8731 82.6398C89.8822 81.5246 87.3867 82.6398 84.0303 85.8477C82.271 87.5519 80.6116 86.7249 79.6009 84.4067C78.7647 82.4523 77.6919 80.609 76.4067 78.9182C73.5619 75.2342 66.063 74.5951 63.5551 79.244C62.507 81.1988 60.4981 81.0234 59.2254 79.1062C58.7263 78.3668 58.5392 77.4396 58.0775 76.6752C55.32 72.0513 52.7497 67.2897 49.6678 62.8914C48.8751 61.7816 47.7914 60.9145 46.5373 60.3865C45.2831 59.8586 43.9076 59.6904 42.5639 59.9008C41.2203 60.1112 39.9611 60.6919 38.9265 61.5783C37.8919 62.4647 37.1225 63.6219 36.7038 64.9214C35.8979 67.4735 35.4527 70.1267 35.3813 72.8032C35.4559 74.762 35.635 76.7155 35.9178 78.6551C35.9926 80.9732 34.5702 82.2013 32.4865 81.274C30.4028 80.3467 25.7238 76.0737 21.8683 80.9858C20.1963 82.8779 21.7186 84.8703 22.4173 86.7123C23.9021 90.6971 22.854 92.3386 18.487 92.5892C15.3177 92.7647 9.66548 94.1806 9.66548 95.96Z" fill="#83C3C0" fill-opacity="0.2"/>
<path d="M255.275 34.4347C252.926 29.3754 251.987 23.8735 256.672 19.5984C260.697 15.9305 265.242 18.1565 269.432 20.5723C271.146 14.2483 273.24 8.02539 281.023 8.00009C288.806 7.9748 292.386 13.1226 293.504 20.3826C298.214 16.955 303.178 14.7668 308.143 18.4348C313.78 22.596 312.751 28.49 310.682 34.3588C314.338 33.9695 318.016 34.8642 321.08 36.8884C321.586 37.1751 322.044 37.5377 322.439 37.9635C326.108 42.4283 326.146 46.8172 320.509 49.195C317.156 50.6107 313.591 51.4654 309.958 51.7246C303.851 52.142 297.694 51.8385 291.561 51.9776C284.921 52.1294 259.516 51.4843 254.742 50.8266C253.191 50.6458 251.658 50.337 250.159 49.9033C247.734 49.1697 245.334 48.2464 245.08 45.1982C244.674 40.7461 245.778 38.4062 249.219 36.7746C251.111 35.8765 253.18 35.2568 255.275 34.4347ZM319.811 44.8693C321.004 44.7808 320.814 40.7461 316.548 40.5058C313.026 40.2781 309.493 40.2781 305.972 40.5058C303.813 40.6575 303.064 39.848 303.648 37.9761C304.176 36.2576 305.001 34.6439 306.086 33.2078C307.076 32.0842 307.733 30.7086 307.984 29.2346C308.235 27.7606 308.07 26.2461 307.508 24.86C307.279 23.93 306.725 23.1115 305.946 22.5507C305.167 21.99 304.213 21.7236 303.255 21.7992C298.366 21.9257 295.357 24.5944 292.971 28.4774C292.31 29.5525 291.053 30.8552 289.695 30.4884C288.336 30.1216 289.301 20.7873 288.425 18.3968C287.628 16.3491 286.13 14.6472 284.197 13.5906C279.957 11.5289 275.45 14.2609 274.04 19.396C273.571 21.1288 273.824 23.0387 273.393 24.7841C273.131 26.0339 272.451 27.1578 271.463 27.9715C270.993 28.2877 269.457 27.3138 268.556 26.7067C267.442 25.7262 266.276 24.8058 265.064 23.9494C264.136 23.3714 263.048 23.1005 261.955 23.1755C260.863 23.2505 259.823 23.6674 258.982 24.3668C257.281 25.8972 257.561 28.1612 258.538 29.8813C259.694 31.943 261.407 33.6758 262.69 35.6742C263.16 36.4078 264.023 38.3429 263.21 38.3556C254.323 38.6085 249.498 41.4291 249.067 43.6425C248.635 45.8559 253.79 45.2488 255.948 45.3373C262.855 45.6029 269.762 45.6915 276.656 45.7547C286.813 45.8432 296.97 46.033 307.127 45.7547C311.369 45.7412 315.606 45.4539 319.811 44.8946V44.8693Z" fill="#83C3C0" fill-opacity="0.2"/>
</svg>
