<svg viewBox="0 0 40 40" fill="none" xmlns="http://www.w3.org/2000/svg">
<path d="M32.5 25H25C23.625 25 22.5 23.875 22.5 22.5C22.5 21.125 23.625 20 25 20H32.5C32.5 20 40 11.6406 40 7.5C40 3.35938 36.6406 0 32.5 0C28.3594 0 25 3.35938 25 7.5C25 9.49219 26.7344 12.4531 28.5391 15H25C20.8672 15 17.5 18.3672 17.5 22.5C17.5 26.6328 20.8672 30 25 30H32.5C33.875 30 35 31.125 35 32.5C35 33.875 33.875 35 32.5 35H14.4922C13.2422 36.9375 11.8516 38.7266 10.7969 40H32.5C36.6328 40 40 36.6328 40 32.5C40 28.3672 36.6328 25 32.5 25ZM32.5 5C33.8828 5 35 6.11719 35 7.5C35 8.88281 33.8828 10 32.5 10C31.1172 10 30 8.88281 30 7.5C30 6.11719 31.1172 5 32.5 5ZM7.5 20C3.35938 20 0 23.3594 0 27.5C0 31.6406 7.5 40 7.5 40C7.5 40 15 31.6406 15 27.5C15 23.3594 11.6406 20 7.5 20ZM7.5 30C6.11719 30 5 28.8828 5 27.5C5 26.1172 6.11719 25 7.5 25C8.88281 25 10 26.1172 10 27.5C10 28.8828 8.88281 30 7.5 30Z" fill="currentColor"/>
</svg>