<svg viewBox="0 0 24 24" fill="none" xmlns="http://www.w3.org/2000/svg">
  <path fill-rule="evenodd" clip-rule="evenodd"
    d="M18.4783 18.4798C18.8684 18.0889 19.5016 18.0882 19.8925 18.4783L23.2064 21.7853C23.5973 22.1754 23.598 22.8086 23.2078 23.1995C22.8177 23.5904 22.1845 23.5911 21.7936 23.201L18.4798 19.894C18.0889 19.5039 18.0882 18.8707 18.4783 18.4798Z"
    fill="currentColor" shape-rendering="auto" />
  <path fill-rule="evenodd" clip-rule="evenodd"
    d="M10.8633 2.5C6.24436 2.5 2.5 6.24436 2.5 10.8633C2.5 15.4822 6.24436 19.2265 10.8633 19.2265C15.4822 19.2265 19.2265 15.4822 19.2265 10.8633C19.2265 6.24436 15.4822 2.5 10.8633 2.5ZM0.5 10.8633C0.5 5.13979 5.13979 0.5 10.8633 0.5C16.5867 0.5 21.2265 5.13979 21.2265 10.8633C21.2265 16.5867 16.5867 21.2265 10.8633 21.2265C5.13979 21.2265 0.5 16.5867 0.5 10.8633Z"
    fill="currentColor" shape-rendering="auto" />
  <path fill-rule="evenodd" clip-rule="evenodd"
    d="M7.568 5.03482C7.94441 5.43896 7.92192 6.07173 7.51778 6.44814C6.52661 7.37128 5.76297 8.52946 5.31184 9.8264C5.1304 10.348 4.56045 10.6238 4.03882 10.4424C3.51719 10.2609 3.24141 9.69097 3.42286 9.16934C3.98259 7.56016 4.92874 6.12639 6.15468 4.98459C6.55883 4.60818 7.19159 4.63067 7.568 5.03482Z"
    fill="currentColor" shape-rendering="auto" />
</svg>