<svg viewBox="0 0 44 44" fill="none" xmlns="http://www.w3.org/2000/svg">
<path fill-rule="evenodd" clip-rule="evenodd" d="M22 0C9.85 0 0 9.85 0 22C0 34.15 9.85 44 22 44C34.15 44 44 34.15 44 22C44 9.85 34.15 0 22 0ZM15.414 26.414C15.0368 26.7783 14.5316 26.9799 14.0072 26.9753C13.4828 26.9708 12.9812 26.7605 12.6104 26.3896C12.2395 26.0188 12.0292 25.5172 12.0247 24.9928C12.0201 24.4684 12.2217 23.9632 12.586 23.586L20.586 15.586C20.9611 15.2111 21.4697 15.0004 22 15.0004C22.5303 15.0004 23.0389 15.2111 23.414 15.586L31.414 23.586C31.7783 23.9632 31.9799 24.4684 31.9753 24.9928C31.9708 25.5172 31.7605 26.0188 31.3896 26.3896C31.0188 26.7605 30.5172 26.9708 29.9928 26.9753C29.4684 26.9799 28.9632 26.7783 28.586 26.414L22 19.828L15.414 26.414Z" fill="#83C3C0" fill-opacity="0.6"/>
</svg>