<svg width="24" height="25" viewBox="0 0 24 25" fill="none" xmlns="http://www.w3.org/2000/svg">
  <path fill-rule="evenodd" clip-rule="evenodd"
    d="M0 12.9021C0 6.28535 5.38373 0.9021 12.0011 0.9021C18.6184 0.9021 24.0022 6.28535 24.0022 12.9021C24.0022 19.5189 18.6184 24.9021 12.0011 24.9021C5.38373 24.9021 0 19.5189 0 12.9021ZM12.6724 12.3149H15.9012C16.4765 12.3149 16.9428 12.7624 16.9428 13.3146C16.9428 13.8672 16.4765 14.3144 15.9012 14.3144H11.6308C11.0555 14.3144 10.5893 13.8668 10.5893 13.3146V7.5494C10.5893 6.99723 11.0556 6.54965 11.6308 6.54965C12.2061 6.54965 12.6724 6.99723 12.6724 7.5494V12.3149Z"
    fill="currentColor" />
</svg>